<svg width="809" height="223" viewBox="0 0 809 223" fill="none" xmlns="http://www.w3.org/2000/svg">
<g stroke-width="2" stroke="none" fill="none" fill-rule="evenodd">
<path d="M18.3953 93.9999L2.00677 9.49318H19.2872L25.9764 50.7432C26.348 53.5675 26.9797 57.8783 27.8716 63.6756C28.7635 69.9189 29.4325 74.6013 29.8784 77.7229H30.3243C30.3987 77.4256 32.2196 68.4324 35.7872 50.7432L45.598 9.49318H59.9797L69.7906 50.7432C70.9797 56.6148 72.7635 65.608 75.1419 77.7229H75.6993C76.2196 74.0067 77 68.4324 78.0406 60.9999C78.7095 56.3918 79.1926 52.9729 79.4899 50.7432L86.0676 9.49318H102.122L86.5135 93.9999H65.5541L56.0777 52.1925C54.2939 43.4222 53.0676 36.9189 52.3987 32.6824H51.9527C50.7635 39.5945 49.5372 46.0979 48.2737 52.1925L39.0203 93.9999H18.3953Z" fill="#363A35"/>
<path d="M113.382 93.9999V30.1182H129.993V93.9999H113.382ZM121.855 19.7499C117.618 19.7499 114.645 18.1148 112.936 14.8445C112.193 13.5067 111.821 12.0945 111.821 10.608C111.821 6.66885 113.642 3.95602 117.284 2.46953C118.696 1.87493 120.22 1.57764 121.855 1.57764C126.166 1.57764 129.176 3.21277 130.885 6.48304C131.48 7.74656 131.777 9.12156 131.777 10.608C131.777 14.3243 130.068 16.9999 126.649 18.6351C125.162 19.3783 123.564 19.7499 121.855 19.7499Z" fill="#363A35"/>
<path d="M148.054 93.9999V30.1182H161.767L162.882 38.4797H163.328C170.24 31.8648 177.152 28.5202 184.064 28.4459C197.22 28.5945 203.834 37.179 203.909 54.1993V93.9999H187.074V56.206C187.074 48.8479 185.216 44.5371 181.5 43.2736C180.459 42.9763 179.307 42.8276 178.044 42.8276C174.476 42.8276 170.834 44.4999 167.118 47.8445C166.375 48.5134 165.557 49.2567 164.666 50.0743V93.9999H148.054Z" fill="#363A35"/>
<path d="M44.8176 221.561C33.2973 221.561 23.9325 217.584 16.723 209.632C9.66218 201.679 6.13177 191.162 6.13177 178.081C6.13177 163.662 10.5541 152.29 19.3987 143.966C26.6081 137.277 35.3041 133.932 45.4865 133.932C54.777 133.932 62.8784 137.388 69.7906 144.301C69.9392 144.449 70.0879 144.598 70.2365 144.747L61.3176 155.449C56.4865 150.767 51.321 148.426 45.821 148.426C38.2399 148.426 32.3683 151.77 28.2061 158.459C25.0102 163.588 23.4122 169.943 23.4122 177.524C23.4122 189.564 26.7196 198.074 33.3345 203.054C36.8277 205.655 40.8784 206.956 45.4865 206.956C51.9527 206.882 57.75 204.132 62.8784 198.706L71.7973 209.186C64.7365 217.436 55.7433 221.561 44.8176 221.561Z" fill="#363A35"/>
<path d="M83.9493 220V128.915H100.561V151.882L99.8919 163.811C106.804 157.716 113.493 154.595 119.959 154.446C133.115 154.595 139.73 163.179 139.804 180.199V220H122.97V182.206C122.97 174.848 121.112 170.537 117.395 169.274C116.355 168.976 115.203 168.828 113.939 168.828C110.372 168.828 106.73 170.5 103.014 173.845C102.27 174.513 101.453 175.257 100.561 176.074V220H83.9493Z" fill="#363A35"/>
<path d="M156.973 220V156.118H173.584V220H156.973ZM165.446 145.75C161.209 145.75 158.236 144.115 156.527 140.845C155.784 139.507 155.412 138.095 155.412 136.608C155.412 132.669 157.233 129.956 160.875 128.47C162.287 127.875 163.811 127.578 165.446 127.578C169.757 127.578 172.767 129.213 174.476 132.483C175.071 133.747 175.368 135.122 175.368 136.608C175.368 140.324 173.659 143 170.24 144.635C168.753 145.378 167.155 145.75 165.446 145.75Z" fill="#363A35"/>
<path d="M210.598 221.561C197.591 221.412 191.051 212.902 190.976 196.03V156.118H207.699V193.912C207.699 201.122 209.446 205.358 212.939 206.622C214.054 206.993 215.28 207.179 216.618 207.179C220.706 207.179 224.385 205.358 227.655 201.716C228.324 200.973 228.993 200.155 229.662 199.263V156.118H246.385V220H232.784L231.446 210.858H231C224.757 217.845 217.956 221.412 210.598 221.561Z" fill="#363A35"/>
<path d="M299.564 220L283.176 135.493H300.456L307.145 176.743C307.517 179.568 308.149 183.878 309.041 189.676C309.932 195.919 310.601 200.601 311.047 203.723H311.493C311.568 203.426 313.389 194.432 316.956 176.743L326.767 135.493H341.149L350.959 176.743C352.149 182.615 353.932 191.608 356.311 203.723H356.868C357.389 200.007 358.169 194.432 359.209 187C359.878 182.392 360.362 178.973 360.659 176.743L367.237 135.493H383.291L367.682 220H346.723L337.247 178.193C335.463 169.422 334.237 162.919 333.568 158.682H333.122C331.932 165.595 330.706 172.098 329.443 178.193L320.189 220H299.564Z" fill="#363A35"/>
<path d="M422.311 221.561C412.277 221.561 404.287 218.105 398.341 211.193C393.139 205.098 390.537 197.405 390.537 188.115C390.537 177.189 394.105 168.456 401.24 161.915C406.814 156.936 413.169 154.446 420.304 154.446C430.932 154.446 438.551 158.794 443.159 167.49C445.76 172.47 447.061 178.341 447.061 185.105C447.061 188.449 446.801 190.976 446.28 192.686H406.814C407.78 200.49 411.497 205.507 417.963 207.736C419.97 208.405 422.162 208.74 424.541 208.74C429.446 208.665 434.24 207.179 438.922 204.28L444.608 214.537C437.845 219.22 430.412 221.561 422.311 221.561ZM406.591 181.649H432.679C432.679 173.399 429.483 168.753 423.091 167.713C422.274 167.564 421.419 167.49 420.527 167.49C415.399 167.49 411.497 169.831 408.821 174.513C407.706 176.595 406.963 178.973 406.591 181.649Z" fill="#363A35"/>
<path d="M460.774 220V156.118H477.385V220H460.774ZM469.247 145.75C465.01 145.75 462.037 144.115 460.328 140.845C459.584 139.507 459.213 138.095 459.213 136.608C459.213 132.669 461.034 129.956 464.676 128.47C466.088 127.875 467.612 127.578 469.247 127.578C473.557 127.578 476.568 129.213 478.277 132.483C478.872 133.747 479.169 135.122 479.169 136.608C479.169 140.324 477.459 143 474.041 144.635C472.554 145.378 470.956 145.75 469.247 145.75Z" fill="#363A35"/>
<path d="M491.99 193.243V181.314H523.206V193.243H491.99Z" fill="#363A35"/>
<path d="M573.375 221.561C561.855 221.561 552.49 217.584 545.28 209.632C538.22 201.679 534.689 191.162 534.689 178.081C534.689 163.662 539.112 152.29 547.956 143.966C555.166 137.277 563.862 133.932 574.044 133.932C583.334 133.932 591.436 137.388 598.348 144.301C598.497 144.449 598.645 144.598 598.794 144.747L589.875 155.449C585.044 150.767 579.878 148.426 574.378 148.426C566.797 148.426 560.926 151.77 556.764 158.459C553.568 163.588 551.97 169.943 551.97 177.524C551.97 189.564 555.277 198.074 561.892 203.054C565.385 205.655 569.436 206.956 574.044 206.956C580.51 206.882 586.307 204.132 591.436 198.706L600.355 209.186C593.294 217.436 584.301 221.561 573.375 221.561Z" fill="#363A35"/>
<path d="M612.507 220V128.915H629.118V151.882L628.449 163.811C635.362 157.716 642.051 154.595 648.517 154.446C661.672 154.595 668.287 163.179 668.362 180.199V220H651.527V182.206C651.527 174.848 649.669 170.537 645.953 169.274C644.912 168.976 643.76 168.828 642.497 168.828C638.929 168.828 635.287 170.5 631.571 173.845C630.828 174.513 630.01 175.257 629.118 176.074V220H612.507Z" fill="#363A35"/>
<path d="M713.291 221.561C703.257 221.561 695.267 218.105 689.321 211.193C684.118 205.098 681.517 197.405 681.517 188.115C681.517 177.189 685.084 168.456 692.22 161.915C697.794 156.936 704.149 154.446 711.284 154.446C721.912 154.446 729.53 158.794 734.139 167.49C736.74 172.47 738.041 178.341 738.041 185.105C738.041 188.449 737.78 190.976 737.26 192.686H697.794C698.76 200.49 702.476 205.507 708.943 207.736C710.949 208.405 713.142 208.74 715.52 208.74C720.426 208.665 725.22 207.179 729.902 204.28L735.588 214.537C728.824 219.22 721.392 221.561 713.291 221.561ZM697.571 181.649H723.659C723.659 173.399 720.463 168.753 714.071 167.713C713.253 167.564 712.399 167.49 711.507 167.49C706.378 167.49 702.476 169.831 699.801 174.513C698.686 176.595 697.943 178.973 697.571 181.649Z" fill="#363A35"/>
<path d="M751.753 220V156.118H765.466L766.581 164.48H767.027C773.939 157.865 780.851 154.52 787.764 154.446C800.919 154.595 807.534 163.179 807.608 180.199V220H790.774V182.206C790.774 174.848 788.916 170.537 785.199 169.274C784.159 168.976 783.007 168.828 781.743 168.828C778.176 168.828 774.534 170.5 770.818 173.845C770.074 174.513 769.257 175.257 768.365 176.074V220H751.753Z" fill="#363A35"/>
<path d="M18.3953 93.9999L2.00677 9.49318H19.2872L25.9764 50.7432C26.348 53.5675 26.9797 57.8783 27.8716 63.6756C28.7635 69.9189 29.4325 74.6013 29.8784 77.7229H30.3243C30.3987 77.4256 32.2196 68.4324 35.7872 50.7432L45.598 9.49318H59.9797L69.7906 50.7432C70.9797 56.6148 72.7635 65.608 75.1419 77.7229H75.6993C76.2196 74.0067 77 68.4324 78.0406 60.9999C78.7095 56.3918 79.1926 52.9729 79.4899 50.7432L86.0676 9.49318H102.122L86.5135 93.9999H65.5541L56.0777 52.1925C54.2939 43.4222 53.0676 36.9189 52.3987 32.6824H51.9527C50.7635 39.5945 49.5372 46.0979 48.2737 52.1925L39.0203 93.9999H18.3953Z" stroke="#363A35" stroke-width="2"/>
<path d="M113.382 93.9999V30.1182H129.993V93.9999H113.382ZM121.855 19.7499C117.618 19.7499 114.645 18.1148 112.936 14.8445C112.193 13.5067 111.821 12.0945 111.821 10.608C111.821 6.66885 113.642 3.95602 117.284 2.46953C118.696 1.87493 120.22 1.57764 121.855 1.57764C126.166 1.57764 129.176 3.21277 130.885 6.48304C131.48 7.74656 131.777 9.12156 131.777 10.608C131.777 14.3243 130.068 16.9999 126.649 18.6351C125.162 19.3783 123.564 19.7499 121.855 19.7499Z" stroke="#363A35" stroke-width="2"/>
<path d="M148.054 93.9999V30.1182H161.767L162.882 38.4797H163.328C170.24 31.8648 177.152 28.5202 184.064 28.4459C197.22 28.5945 203.834 37.179 203.909 54.1993V93.9999H187.074V56.206C187.074 48.8479 185.216 44.5371 181.5 43.2736C180.459 42.9763 179.307 42.8276 178.044 42.8276C174.476 42.8276 170.834 44.4999 167.118 47.8445C166.375 48.5134 165.557 49.2567 164.666 50.0743V93.9999H148.054Z" stroke="#363A35" stroke-width="2"/>
<path d="M44.8176 221.561C33.2973 221.561 23.9325 217.584 16.723 209.632C9.66218 201.679 6.13177 191.162 6.13177 178.081C6.13177 163.662 10.5541 152.29 19.3987 143.966C26.6081 137.277 35.3041 133.932 45.4865 133.932C54.777 133.932 62.8784 137.388 69.7906 144.301C69.9392 144.449 70.0879 144.598 70.2365 144.747L61.3176 155.449C56.4865 150.767 51.321 148.426 45.821 148.426C38.2399 148.426 32.3683 151.77 28.2061 158.459C25.0102 163.588 23.4122 169.943 23.4122 177.524C23.4122 189.564 26.7196 198.074 33.3345 203.054C36.8277 205.655 40.8784 206.956 45.4865 206.956C51.9527 206.882 57.75 204.132 62.8784 198.706L71.7973 209.186C64.7365 217.436 55.7433 221.561 44.8176 221.561Z" stroke="#363A35" stroke-width="2"/>
<path d="M83.9493 220V128.915H100.561V151.882L99.8919 163.811C106.804 157.716 113.493 154.595 119.959 154.446C133.115 154.595 139.73 163.179 139.804 180.199V220H122.97V182.206C122.97 174.848 121.112 170.537 117.395 169.274C116.355 168.976 115.203 168.828 113.939 168.828C110.372 168.828 106.73 170.5 103.014 173.845C102.27 174.513 101.453 175.257 100.561 176.074V220H83.9493Z" stroke="#363A35" stroke-width="2"/>
<path d="M156.973 220V156.118H173.584V220H156.973ZM165.446 145.75C161.209 145.75 158.236 144.115 156.527 140.845C155.784 139.507 155.412 138.095 155.412 136.608C155.412 132.669 157.233 129.956 160.875 128.47C162.287 127.875 163.811 127.578 165.446 127.578C169.757 127.578 172.767 129.213 174.476 132.483C175.071 133.747 175.368 135.122 175.368 136.608C175.368 140.324 173.659 143 170.24 144.635C168.753 145.378 167.155 145.75 165.446 145.75Z" stroke="#363A35" stroke-width="2"/>
<path d="M210.598 221.561C197.591 221.412 191.051 212.902 190.976 196.03V156.118H207.699V193.912C207.699 201.122 209.446 205.358 212.939 206.622C214.054 206.993 215.28 207.179 216.618 207.179C220.706 207.179 224.385 205.358 227.655 201.716C228.324 200.973 228.993 200.155 229.662 199.263V156.118H246.385V220H232.784L231.446 210.858H231C224.757 217.845 217.956 221.412 210.598 221.561Z" stroke="#363A35" stroke-width="2"/>
<path d="M299.564 220L283.176 135.493H300.456L307.145 176.743C307.517 179.568 308.149 183.878 309.041 189.676C309.932 195.919 310.601 200.601 311.047 203.723H311.493C311.568 203.426 313.389 194.432 316.956 176.743L326.767 135.493H341.149L350.959 176.743C352.149 182.615 353.932 191.608 356.311 203.723H356.868C357.389 200.007 358.169 194.432 359.209 187C359.878 182.392 360.362 178.973 360.659 176.743L367.237 135.493H383.291L367.682 220H346.723L337.247 178.193C335.463 169.422 334.237 162.919 333.568 158.682H333.122C331.932 165.595 330.706 172.098 329.443 178.193L320.189 220H299.564Z" stroke="#363A35" stroke-width="2"/>
<path d="M422.311 221.561C412.277 221.561 404.287 218.105 398.341 211.193C393.139 205.098 390.537 197.405 390.537 188.115C390.537 177.189 394.105 168.456 401.24 161.915C406.814 156.936 413.169 154.446 420.304 154.446C430.932 154.446 438.551 158.794 443.159 167.49C445.76 172.47 447.061 178.341 447.061 185.105C447.061 188.449 446.801 190.976 446.28 192.686H406.814C407.78 200.49 411.497 205.507 417.963 207.736C419.97 208.405 422.162 208.74 424.541 208.74C429.446 208.665 434.24 207.179 438.922 204.28L444.608 214.537C437.845 219.22 430.412 221.561 422.311 221.561ZM406.591 181.649H432.679C432.679 173.399 429.483 168.753 423.091 167.713C422.274 167.564 421.419 167.49 420.527 167.49C415.399 167.49 411.497 169.831 408.821 174.513C407.706 176.595 406.963 178.973 406.591 181.649Z" stroke="#363A35" stroke-width="2"/>
<path d="M460.774 220V156.118H477.385V220H460.774ZM469.247 145.75C465.01 145.75 462.037 144.115 460.328 140.845C459.584 139.507 459.213 138.095 459.213 136.608C459.213 132.669 461.034 129.956 464.676 128.47C466.088 127.875 467.612 127.578 469.247 127.578C473.557 127.578 476.568 129.213 478.277 132.483C478.872 133.747 479.169 135.122 479.169 136.608C479.169 140.324 477.459 143 474.041 144.635C472.554 145.378 470.956 145.75 469.247 145.75Z" stroke="#363A35" stroke-width="2"/>
<path d="M491.99 193.243V181.314H523.206V193.243H491.99Z" stroke="#363A35" stroke-width="2"/>
<path d="M573.375 221.561C561.855 221.561 552.49 217.584 545.28 209.632C538.22 201.679 534.689 191.162 534.689 178.081C534.689 163.662 539.112 152.29 547.956 143.966C555.166 137.277 563.862 133.932 574.044 133.932C583.334 133.932 591.436 137.388 598.348 144.301C598.497 144.449 598.645 144.598 598.794 144.747L589.875 155.449C585.044 150.767 579.878 148.426 574.378 148.426C566.797 148.426 560.926 151.77 556.764 158.459C553.568 163.588 551.97 169.943 551.97 177.524C551.97 189.564 555.277 198.074 561.892 203.054C565.385 205.655 569.436 206.956 574.044 206.956C580.51 206.882 586.307 204.132 591.436 198.706L600.355 209.186C593.294 217.436 584.301 221.561 573.375 221.561Z" stroke="#363A35" stroke-width="2"/>
<path d="M612.507 220V128.915H629.118V151.882L628.449 163.811C635.362 157.716 642.051 154.595 648.517 154.446C661.672 154.595 668.287 163.179 668.362 180.199V220H651.527V182.206C651.527 174.848 649.669 170.537 645.953 169.274C644.912 168.976 643.76 168.828 642.497 168.828C638.929 168.828 635.287 170.5 631.571 173.845C630.828 174.513 630.01 175.257 629.118 176.074V220H612.507Z" stroke="#363A35" stroke-width="2"/>
<path d="M713.291 221.561C703.257 221.561 695.267 218.105 689.321 211.193C684.118 205.098 681.517 197.405 681.517 188.115C681.517 177.189 685.084 168.456 692.22 161.915C697.794 156.936 704.149 154.446 711.284 154.446C721.912 154.446 729.53 158.794 734.139 167.49C736.74 172.47 738.041 178.341 738.041 185.105C738.041 188.449 737.78 190.976 737.26 192.686H697.794C698.76 200.49 702.476 205.507 708.943 207.736C710.949 208.405 713.142 208.74 715.52 208.74C720.426 208.665 725.22 207.179 729.902 204.28L735.588 214.537C728.824 219.22 721.392 221.561 713.291 221.561ZM697.571 181.649H723.659C723.659 173.399 720.463 168.753 714.071 167.713C713.253 167.564 712.399 167.49 711.507 167.49C706.378 167.49 702.476 169.831 699.801 174.513C698.686 176.595 697.943 178.973 697.571 181.649Z" stroke="#363A35" stroke-width="2"/>
<path d="M751.753 220V156.118H765.466L766.581 164.48H767.027C773.939 157.865 780.851 154.52 787.764 154.446C800.919 154.595 807.534 163.179 807.608 180.199V220H790.774V182.206C790.774 174.848 788.916 170.537 785.199 169.274C784.159 168.976 783.007 168.828 781.743 168.828C778.176 168.828 774.534 170.5 770.818 173.845C770.074 174.513 769.257 175.257 768.365 176.074V220H751.753Z" stroke="#363A35" stroke-width="2"/>
</g>
</svg>
