<svg width="3893" height="131" viewBox="0 0 3893 131" fill="none" xmlns="http://www.w3.org/2000/svg">
<rect width="3892" height="131" transform="translate(0.61499)" fill="white"/>
<path d="M62.3025 103.312C52.615 103.312 44.74 99.9687 38.6775 93.2812C32.74 86.5937 29.7712 77.75 29.7712 66.75C29.7712 54.625 33.49 45.0625 40.9275 38.0625C46.99 32.4375 54.3025 29.625 62.865 29.625C70.6775 29.625 77.49 32.5312 83.3025 38.3437C83.4275 38.4687 83.5525 38.5937 83.6775 38.7187L76.1775 47.7187C72.115 43.7812 67.7712 41.8125 63.1462 41.8125C56.7712 41.8125 51.8337 44.625 48.3337 50.25C45.6462 54.5625 44.3025 59.9062 44.3025 66.2812C44.3025 76.4062 47.0837 83.5625 52.6462 87.75C55.5837 89.9375 58.99 91.0312 62.865 91.0312C68.3025 90.9687 73.1775 88.6562 77.49 84.0937L84.99 92.9062C79.0525 99.8437 71.49 103.312 62.3025 103.312ZM117.859 103.312C110.609 103.312 104.484 100.719 99.4837 95.5312C94.4837 90.2187 91.9837 83.4375 91.9837 75.1875C91.9837 65.6875 95.14 58.25 101.452 52.875C106.202 48.875 111.671 46.875 117.859 46.875C125.109 46.875 131.202 49.5 136.14 54.75C141.14 60.0625 143.64 66.875 143.64 75.1875C143.64 84.625 140.484 92.0312 134.171 97.4062C129.484 101.344 124.046 103.312 117.859 103.312ZM117.859 91.7812C122.984 91.7812 126.421 88.875 128.171 83.0625C128.859 80.75 129.202 78.125 129.202 75.1875C129.202 67.125 127.015 61.9062 122.64 59.5312C121.202 58.7812 119.609 58.4062 117.859 58.4062C112.796 58.4062 109.359 61.2187 107.546 66.8437C106.796 69.2812 106.421 72.0625 106.421 75.1875C106.421 83.0625 108.577 88.1875 112.89 90.5625C114.39 91.375 116.046 91.7812 117.859 91.7812ZM155.602 102V48.2812H167.134L168.071 55.4062H168.446C173.321 50.2812 178.165 47.4687 182.977 46.9687C183.665 46.9062 184.321 46.875 184.946 46.875C192.009 46.9375 196.946 50.0937 199.759 56.3437C204.696 51.0937 209.259 48.0625 213.446 47.25C214.571 47 215.696 46.875 216.821 46.875C226.259 46.875 231.696 52.1875 233.134 62.8125C233.384 64.625 233.509 66.5312 233.509 68.5312V102H219.446V70.2187C219.446 63.8437 217.759 60.1875 214.384 59.25C213.634 59.0625 212.821 58.9687 211.946 58.9687C208.821 59.0312 205.352 61.0625 201.54 65.0625V102H187.477V70.2187C187.477 63.8437 185.79 60.1875 182.415 59.25C181.665 59.0625 180.852 58.9687 179.977 58.9687C176.852 59.0312 173.384 61.0625 169.571 65.0625V102H155.602ZM248.284 102V48.2812H259.815L260.752 55.4062H261.127C266.002 50.2812 270.846 47.4687 275.659 46.9687C276.346 46.9062 277.002 46.875 277.627 46.875C284.69 46.9375 289.627 50.0937 292.44 56.3437C297.377 51.0937 301.94 48.0625 306.127 47.25C307.252 47 308.377 46.875 309.502 46.875C318.94 46.875 324.377 52.1875 325.815 62.8125C326.065 64.625 326.19 66.5312 326.19 68.5312V102H312.127V70.2187C312.127 63.8437 310.44 60.1875 307.065 59.25C306.315 59.0625 305.502 58.9687 304.627 58.9687C301.502 59.0312 298.034 61.0625 294.221 65.0625V102H280.159V70.2187C280.159 63.8437 278.471 60.1875 275.096 59.25C274.346 59.0625 273.534 58.9687 272.659 58.9687C269.534 59.0312 266.065 61.0625 262.252 65.0625V102H248.284ZM364.309 103.312C355.871 103.312 349.152 100.406 344.152 94.5937C339.777 89.4687 337.59 83 337.59 75.1875C337.59 66 340.59 58.6562 346.59 53.1562C351.277 48.9687 356.621 46.875 362.621 46.875C371.559 46.875 377.965 50.5312 381.84 57.8437C384.027 62.0312 385.121 66.9687 385.121 72.6562C385.121 75.4687 384.902 77.5937 384.465 79.0312H351.277C352.09 85.5937 355.215 89.8125 360.652 91.6875C362.34 92.25 364.184 92.5312 366.184 92.5312C370.309 92.4687 374.34 91.2187 378.277 88.7812L383.059 97.4062C377.371 101.344 371.121 103.312 364.309 103.312ZM351.09 69.75H373.027C373.027 62.8125 370.34 58.9062 364.965 58.0312C364.277 57.9062 363.559 57.8437 362.809 57.8437C358.496 57.8437 355.215 59.8125 352.965 63.75C352.027 65.5 351.402 67.5 351.09 69.75ZM396.802 102V48.2812H408.334L409.271 57.75H409.646C412.896 51.9375 416.99 48.4375 421.927 47.25C422.99 47 423.99 46.875 424.927 46.875C427.24 46.875 429.365 47.2812 431.302 48.0937L428.771 60.2812C426.771 59.6562 424.896 59.3437 423.146 59.3437C418.834 59.3437 415.271 61.7187 412.459 66.4687C411.834 67.5312 411.271 68.6875 410.771 69.9375V102H396.802ZM461.64 103.312C453.077 103.312 446.359 100.312 441.484 94.3125C437.421 89.25 435.39 82.875 435.39 75.1875C435.39 65.625 438.702 58.1875 445.327 52.875C450.327 48.875 456.171 46.875 462.859 46.875C468.671 46.9375 473.89 48.9375 478.515 52.875L471.765 61.9687C468.952 59.5937 466.202 58.4062 463.515 58.4062C458.265 58.4062 454.421 60.7812 451.984 65.5312C450.546 68.2812 449.827 71.5 449.827 75.1875C449.827 81.9375 451.921 86.75 456.109 89.625C458.234 91.0625 460.577 91.7812 463.14 91.7812C466.765 91.7187 470.265 90.2812 473.64 87.4687L479.171 96.8437C474.296 101.156 468.452 103.312 461.64 103.312ZM489.446 102V48.2812H503.415V102H489.446ZM496.571 39.5625C493.009 39.5625 490.509 38.1875 489.071 35.4375C488.446 34.3125 488.134 33.125 488.134 31.875C488.134 28.5625 489.665 26.2812 492.727 25.0312C493.915 24.5312 495.196 24.2812 496.571 24.2812C500.196 24.2812 502.727 25.6562 504.165 28.4062C504.665 29.4687 504.915 30.625 504.915 31.875C504.915 35 503.477 37.25 500.602 38.625C499.352 39.25 498.009 39.5625 496.571 39.5625ZM531.971 103.312C526.034 103.312 521.596 101.062 518.659 96.5625C516.909 93.875 516.034 90.8125 516.034 87.375C516.034 79.875 520.315 74.5312 528.877 71.3437C533.502 69.5937 539.534 68.3125 546.971 67.5C546.596 61.375 543.565 58.2812 537.877 58.2187C533.752 58.2812 528.815 59.9687 523.065 63.2812L518.002 54C525.752 49.25 533.221 46.875 540.409 46.875C552.409 46.875 559.19 53 560.752 65.25C560.94 66.9375 561.034 68.7187 561.034 70.5937V102H549.596L548.471 96.2812H548.19C542.69 100.969 537.284 103.312 531.971 103.312ZM536.565 92.3437C540.002 92.2812 543.471 90.5 546.971 87V76.2187C535.721 78.0312 529.909 81.375 529.534 86.25C529.534 89.9375 531.502 91.9375 535.44 92.25C535.815 92.3125 536.19 92.3437 536.565 92.3437ZM588.84 103.312C580.09 103.187 575.684 97.7187 575.621 86.9062V25.4062H589.59V87.5625C589.84 90.125 590.809 91.5312 592.496 91.7812C593.246 91.7812 593.902 91.7187 594.465 91.5937L596.152 102.094C594.152 102.906 591.715 103.312 588.84 103.312Z" fill="#363A35"/>
<path d="M716.302 103.312C706.615 103.312 698.74 99.9687 692.677 93.2812C686.74 86.5937 683.771 77.75 683.771 66.75C683.771 54.625 687.49 45.0625 694.927 38.0625C700.99 32.4375 708.302 29.625 716.865 29.625C724.677 29.625 731.49 32.5312 737.302 38.3437C737.427 38.4687 737.552 38.5937 737.677 38.7187L730.177 47.7187C726.115 43.7812 721.771 41.8125 717.146 41.8125C710.771 41.8125 705.834 44.625 702.334 50.25C699.646 54.5625 698.302 59.9062 698.302 66.2812C698.302 76.4062 701.084 83.5625 706.646 87.75C709.584 89.9375 712.99 91.0312 716.865 91.0312C722.302 90.9687 727.177 88.6562 731.49 84.0937L738.99 92.9062C733.052 99.8437 725.49 103.312 716.302 103.312ZM771.859 103.312C764.609 103.312 758.484 100.719 753.484 95.5312C748.484 90.2187 745.984 83.4375 745.984 75.1875C745.984 65.6875 749.14 58.25 755.452 52.875C760.202 48.875 765.671 46.875 771.859 46.875C779.109 46.875 785.202 49.5 790.14 54.75C795.14 60.0625 797.64 66.875 797.64 75.1875C797.64 84.625 794.484 92.0312 788.171 97.4062C783.484 101.344 778.046 103.312 771.859 103.312ZM771.859 91.7812C776.984 91.7812 780.421 88.875 782.171 83.0625C782.859 80.75 783.202 78.125 783.202 75.1875C783.202 67.125 781.015 61.9062 776.64 59.5312C775.202 58.7812 773.609 58.4062 771.859 58.4062C766.796 58.4062 763.359 61.2187 761.546 66.8437C760.796 69.2812 760.421 72.0625 760.421 75.1875C760.421 83.0625 762.577 88.1875 766.89 90.5625C768.39 91.375 770.046 91.7812 771.859 91.7812ZM809.602 102V48.2812H821.134L822.071 55.4062H822.446C827.321 50.2812 832.165 47.4687 836.977 46.9687C837.665 46.9062 838.321 46.875 838.946 46.875C846.009 46.9375 850.946 50.0937 853.759 56.3437C858.696 51.0937 863.259 48.0625 867.446 47.25C868.571 47 869.696 46.875 870.821 46.875C880.259 46.875 885.696 52.1875 887.134 62.8125C887.384 64.625 887.509 66.5312 887.509 68.5312V102H873.446V70.2187C873.446 63.8437 871.759 60.1875 868.384 59.25C867.634 59.0625 866.821 58.9687 865.946 58.9687C862.821 59.0312 859.352 61.0625 855.54 65.0625V102H841.477V70.2187C841.477 63.8437 839.79 60.1875 836.415 59.25C835.665 59.0625 834.852 58.9687 833.977 58.9687C830.852 59.0312 827.384 61.0625 823.571 65.0625V102H809.602ZM902.284 102V48.2812H913.815L914.752 55.4062H915.127C920.002 50.2812 924.846 47.4687 929.659 46.9687C930.346 46.9062 931.002 46.875 931.627 46.875C938.69 46.9375 943.627 50.0937 946.44 56.3437C951.377 51.0937 955.94 48.0625 960.127 47.25C961.252 47 962.377 46.875 963.502 46.875C972.94 46.875 978.377 52.1875 979.815 62.8125C980.065 64.625 980.19 66.5312 980.19 68.5312V102H966.127V70.2187C966.127 63.8437 964.44 60.1875 961.065 59.25C960.315 59.0625 959.502 58.9687 958.627 58.9687C955.502 59.0312 952.034 61.0625 948.221 65.0625V102H934.159V70.2187C934.159 63.8437 932.471 60.1875 929.096 59.25C928.346 59.0625 927.534 58.9687 926.659 58.9687C923.534 59.0312 920.065 61.0625 916.252 65.0625V102H902.284ZM1018.31 103.312C1009.87 103.312 1003.15 100.406 998.152 94.5937C993.777 89.4687 991.59 83 991.59 75.1875C991.59 66 994.59 58.6562 1000.59 53.1562C1005.28 48.9687 1010.62 46.875 1016.62 46.875C1025.56 46.875 1031.96 50.5312 1035.84 57.8437C1038.03 62.0312 1039.12 66.9687 1039.12 72.6562C1039.12 75.4687 1038.9 77.5937 1038.46 79.0312H1005.28C1006.09 85.5937 1009.21 89.8125 1014.65 91.6875C1016.34 92.25 1018.18 92.5312 1020.18 92.5312C1024.31 92.4687 1028.34 91.2187 1032.28 88.7812L1037.06 97.4062C1031.37 101.344 1025.12 103.312 1018.31 103.312ZM1005.09 69.75H1027.03C1027.03 62.8125 1024.34 58.9062 1018.96 58.0312C1018.28 57.9062 1017.56 57.8437 1016.81 57.8437C1012.5 57.8437 1009.21 59.8125 1006.96 63.75C1006.03 65.5 1005.4 67.5 1005.09 69.75ZM1050.8 102V48.2812H1062.33L1063.27 57.75H1063.65C1066.9 51.9375 1070.99 48.4375 1075.93 47.25C1076.99 47 1077.99 46.875 1078.93 46.875C1081.24 46.875 1083.36 47.2812 1085.3 48.0937L1082.77 60.2812C1080.77 59.6562 1078.9 59.3437 1077.15 59.3437C1072.83 59.3437 1069.27 61.7187 1066.46 66.4687C1065.83 67.5312 1065.27 68.6875 1064.77 69.9375V102H1050.8ZM1115.64 103.312C1107.08 103.312 1100.36 100.312 1095.48 94.3125C1091.42 89.25 1089.39 82.875 1089.39 75.1875C1089.39 65.625 1092.7 58.1875 1099.33 52.875C1104.33 48.875 1110.17 46.875 1116.86 46.875C1122.67 46.9375 1127.89 48.9375 1132.51 52.875L1125.76 61.9687C1122.95 59.5937 1120.2 58.4062 1117.51 58.4062C1112.26 58.4062 1108.42 60.7812 1105.98 65.5312C1104.55 68.2812 1103.83 71.5 1103.83 75.1875C1103.83 81.9375 1105.92 86.75 1110.11 89.625C1112.23 91.0625 1114.58 91.7812 1117.14 91.7812C1120.76 91.7187 1124.26 90.2812 1127.64 87.4687L1133.17 96.8437C1128.3 101.156 1122.45 103.312 1115.64 103.312ZM1143.45 102V48.2812H1157.41V102H1143.45ZM1150.57 39.5625C1147.01 39.5625 1144.51 38.1875 1143.07 35.4375C1142.45 34.3125 1142.13 33.125 1142.13 31.875C1142.13 28.5625 1143.66 26.2812 1146.73 25.0312C1147.91 24.5312 1149.2 24.2812 1150.57 24.2812C1154.2 24.2812 1156.73 25.6562 1158.16 28.4062C1158.66 29.4687 1158.91 30.625 1158.91 31.875C1158.91 35 1157.48 37.25 1154.6 38.625C1153.35 39.25 1152.01 39.5625 1150.57 39.5625ZM1185.97 103.312C1180.03 103.312 1175.6 101.062 1172.66 96.5625C1170.91 93.875 1170.03 90.8125 1170.03 87.375C1170.03 79.875 1174.31 74.5312 1182.88 71.3437C1187.5 69.5937 1193.53 68.3125 1200.97 67.5C1200.6 61.375 1197.56 58.2812 1191.88 58.2187C1187.75 58.2812 1182.81 59.9687 1177.06 63.2812L1172 54C1179.75 49.25 1187.22 46.875 1194.41 46.875C1206.41 46.875 1213.19 53 1214.75 65.25C1214.94 66.9375 1215.03 68.7187 1215.03 70.5937V102H1203.6L1202.47 96.2812H1202.19C1196.69 100.969 1191.28 103.312 1185.97 103.312ZM1190.56 92.3437C1194 92.2812 1197.47 90.5 1200.97 87V76.2187C1189.72 78.0312 1183.91 81.375 1183.53 86.25C1183.53 89.9375 1185.5 91.9375 1189.44 92.25C1189.81 92.3125 1190.19 92.3437 1190.56 92.3437ZM1242.84 103.312C1234.09 103.187 1229.68 97.7187 1229.62 86.9062V25.4062H1243.59V87.5625C1243.84 90.125 1244.81 91.5312 1246.5 91.7812C1247.25 91.7812 1247.9 91.7187 1248.46 91.5937L1250.15 102.094C1248.15 102.906 1245.71 103.312 1242.84 103.312Z" fill="#363A35"/>
<path d="M1370.3 103.312C1360.61 103.312 1352.74 99.9687 1346.68 93.2812C1340.74 86.5937 1337.77 77.75 1337.77 66.75C1337.77 54.625 1341.49 45.0625 1348.93 38.0625C1354.99 32.4375 1362.3 29.625 1370.86 29.625C1378.68 29.625 1385.49 32.5312 1391.3 38.3437C1391.43 38.4687 1391.55 38.5937 1391.68 38.7187L1384.18 47.7187C1380.11 43.7812 1375.77 41.8125 1371.15 41.8125C1364.77 41.8125 1359.83 44.625 1356.33 50.25C1353.65 54.5625 1352.3 59.9062 1352.3 66.2812C1352.3 76.4062 1355.08 83.5625 1360.65 87.75C1363.58 89.9375 1366.99 91.0312 1370.86 91.0312C1376.3 90.9687 1381.18 88.6562 1385.49 84.0937L1392.99 92.9062C1387.05 99.8437 1379.49 103.312 1370.3 103.312ZM1425.86 103.312C1418.61 103.312 1412.48 100.719 1407.48 95.5312C1402.48 90.2187 1399.98 83.4375 1399.98 75.1875C1399.98 65.6875 1403.14 58.25 1409.45 52.875C1414.2 48.875 1419.67 46.875 1425.86 46.875C1433.11 46.875 1439.2 49.5 1444.14 54.75C1449.14 60.0625 1451.64 66.875 1451.64 75.1875C1451.64 84.625 1448.48 92.0312 1442.17 97.4062C1437.48 101.344 1432.05 103.312 1425.86 103.312ZM1425.86 91.7812C1430.98 91.7812 1434.42 88.875 1436.17 83.0625C1436.86 80.75 1437.2 78.125 1437.2 75.1875C1437.2 67.125 1435.01 61.9062 1430.64 59.5312C1429.2 58.7812 1427.61 58.4062 1425.86 58.4062C1420.8 58.4062 1417.36 61.2187 1415.55 66.8437C1414.8 69.2812 1414.42 72.0625 1414.42 75.1875C1414.42 83.0625 1416.58 88.1875 1420.89 90.5625C1422.39 91.375 1424.05 91.7812 1425.86 91.7812ZM1463.6 102V48.2812H1475.13L1476.07 55.4062H1476.45C1481.32 50.2812 1486.16 47.4687 1490.98 46.9687C1491.66 46.9062 1492.32 46.875 1492.95 46.875C1500.01 46.9375 1504.95 50.0937 1507.76 56.3437C1512.7 51.0937 1517.26 48.0625 1521.45 47.25C1522.57 47 1523.7 46.875 1524.82 46.875C1534.26 46.875 1539.7 52.1875 1541.13 62.8125C1541.38 64.625 1541.51 66.5312 1541.51 68.5312V102H1527.45V70.2187C1527.45 63.8437 1525.76 60.1875 1522.38 59.25C1521.63 59.0625 1520.82 58.9687 1519.95 58.9687C1516.82 59.0312 1513.35 61.0625 1509.54 65.0625V102H1495.48V70.2187C1495.48 63.8437 1493.79 60.1875 1490.41 59.25C1489.66 59.0625 1488.85 58.9687 1487.98 58.9687C1484.85 59.0312 1481.38 61.0625 1477.57 65.0625V102H1463.6ZM1556.28 102V48.2812H1567.81L1568.75 55.4062H1569.13C1574 50.2812 1578.85 47.4687 1583.66 46.9687C1584.35 46.9062 1585 46.875 1585.63 46.875C1592.69 46.9375 1597.63 50.0937 1600.44 56.3437C1605.38 51.0937 1609.94 48.0625 1614.13 47.25C1615.25 47 1616.38 46.875 1617.5 46.875C1626.94 46.875 1632.38 52.1875 1633.81 62.8125C1634.06 64.625 1634.19 66.5312 1634.19 68.5312V102H1620.13V70.2187C1620.13 63.8437 1618.44 60.1875 1615.06 59.25C1614.31 59.0625 1613.5 58.9687 1612.63 58.9687C1609.5 59.0312 1606.03 61.0625 1602.22 65.0625V102H1588.16V70.2187C1588.16 63.8437 1586.47 60.1875 1583.1 59.25C1582.35 59.0625 1581.53 58.9687 1580.66 58.9687C1577.53 59.0312 1574.06 61.0625 1570.25 65.0625V102H1556.28ZM1672.31 103.312C1663.87 103.312 1657.15 100.406 1652.15 94.5937C1647.78 89.4687 1645.59 83 1645.59 75.1875C1645.59 66 1648.59 58.6562 1654.59 53.1562C1659.28 48.9687 1664.62 46.875 1670.62 46.875C1679.56 46.875 1685.96 50.5312 1689.84 57.8437C1692.03 62.0312 1693.12 66.9687 1693.12 72.6562C1693.12 75.4687 1692.9 77.5937 1692.46 79.0312H1659.28C1660.09 85.5937 1663.21 89.8125 1668.65 91.6875C1670.34 92.25 1672.18 92.5312 1674.18 92.5312C1678.31 92.4687 1682.34 91.2187 1686.28 88.7812L1691.06 97.4062C1685.37 101.344 1679.12 103.312 1672.31 103.312ZM1659.09 69.75H1681.03C1681.03 62.8125 1678.34 58.9062 1672.96 58.0312C1672.28 57.9062 1671.56 57.8437 1670.81 57.8437C1666.5 57.8437 1663.21 59.8125 1660.96 63.75C1660.03 65.5 1659.4 67.5 1659.09 69.75ZM1704.8 102V48.2812H1716.33L1717.27 57.75H1717.65C1720.9 51.9375 1724.99 48.4375 1729.93 47.25C1730.99 47 1731.99 46.875 1732.93 46.875C1735.24 46.875 1737.36 47.2812 1739.3 48.0937L1736.77 60.2812C1734.77 59.6562 1732.9 59.3437 1731.15 59.3437C1726.83 59.3437 1723.27 61.7187 1720.46 66.4687C1719.83 67.5312 1719.27 68.6875 1718.77 69.9375V102H1704.8ZM1769.64 103.312C1761.08 103.312 1754.36 100.312 1749.48 94.3125C1745.42 89.25 1743.39 82.875 1743.39 75.1875C1743.39 65.625 1746.7 58.1875 1753.33 52.875C1758.33 48.875 1764.17 46.875 1770.86 46.875C1776.67 46.9375 1781.89 48.9375 1786.51 52.875L1779.76 61.9687C1776.95 59.5937 1774.2 58.4062 1771.51 58.4062C1766.26 58.4062 1762.42 60.7812 1759.98 65.5312C1758.55 68.2812 1757.83 71.5 1757.83 75.1875C1757.83 81.9375 1759.92 86.75 1764.11 89.625C1766.23 91.0625 1768.58 91.7812 1771.14 91.7812C1774.76 91.7187 1778.26 90.2812 1781.64 87.4687L1787.17 96.8437C1782.3 101.156 1776.45 103.312 1769.64 103.312ZM1797.45 102V48.2812H1811.41V102H1797.45ZM1804.57 39.5625C1801.01 39.5625 1798.51 38.1875 1797.07 35.4375C1796.45 34.3125 1796.13 33.125 1796.13 31.875C1796.13 28.5625 1797.66 26.2812 1800.73 25.0312C1801.91 24.5312 1803.2 24.2812 1804.57 24.2812C1808.2 24.2812 1810.73 25.6562 1812.16 28.4062C1812.66 29.4687 1812.91 30.625 1812.91 31.875C1812.91 35 1811.48 37.25 1808.6 38.625C1807.35 39.25 1806.01 39.5625 1804.57 39.5625ZM1839.97 103.312C1834.03 103.312 1829.6 101.062 1826.66 96.5625C1824.91 93.875 1824.03 90.8125 1824.03 87.375C1824.03 79.875 1828.31 74.5312 1836.88 71.3437C1841.5 69.5937 1847.53 68.3125 1854.97 67.5C1854.6 61.375 1851.56 58.2812 1845.88 58.2187C1841.75 58.2812 1836.81 59.9687 1831.06 63.2812L1826 54C1833.75 49.25 1841.22 46.875 1848.41 46.875C1860.41 46.875 1867.19 53 1868.75 65.25C1868.94 66.9375 1869.03 68.7187 1869.03 70.5937V102H1857.6L1856.47 96.2812H1856.19C1850.69 100.969 1845.28 103.312 1839.97 103.312ZM1844.56 92.3437C1848 92.2812 1851.47 90.5 1854.97 87V76.2187C1843.72 78.0312 1837.91 81.375 1837.53 86.25C1837.53 89.9375 1839.5 91.9375 1843.44 92.25C1843.81 92.3125 1844.19 92.3437 1844.56 92.3437ZM1896.84 103.312C1888.09 103.187 1883.68 97.7187 1883.62 86.9062V25.4062H1897.59V87.5625C1897.84 90.125 1898.81 91.5312 1900.5 91.7812C1901.25 91.7812 1901.9 91.7187 1902.46 91.5937L1904.15 102.094C1902.15 102.906 1899.71 103.312 1896.84 103.312Z" fill="#363A35"/>
<path d="M2024.3 103.312C2014.61 103.312 2006.74 99.9687 2000.68 93.2812C1994.74 86.5937 1991.77 77.75 1991.77 66.75C1991.77 54.625 1995.49 45.0625 2002.93 38.0625C2008.99 32.4375 2016.3 29.625 2024.86 29.625C2032.68 29.625 2039.49 32.5312 2045.3 38.3437C2045.43 38.4687 2045.55 38.5937 2045.68 38.7187L2038.18 47.7187C2034.11 43.7812 2029.77 41.8125 2025.15 41.8125C2018.77 41.8125 2013.83 44.625 2010.33 50.25C2007.65 54.5625 2006.3 59.9062 2006.3 66.2812C2006.3 76.4062 2009.08 83.5625 2014.65 87.75C2017.58 89.9375 2020.99 91.0312 2024.86 91.0312C2030.3 90.9687 2035.18 88.6562 2039.49 84.0937L2046.99 92.9062C2041.05 99.8437 2033.49 103.312 2024.3 103.312ZM2079.86 103.312C2072.61 103.312 2066.48 100.719 2061.48 95.5312C2056.48 90.2187 2053.98 83.4375 2053.98 75.1875C2053.98 65.6875 2057.14 58.25 2063.45 52.875C2068.2 48.875 2073.67 46.875 2079.86 46.875C2087.11 46.875 2093.2 49.5 2098.14 54.75C2103.14 60.0625 2105.64 66.875 2105.64 75.1875C2105.64 84.625 2102.48 92.0312 2096.17 97.4062C2091.48 101.344 2086.05 103.312 2079.86 103.312ZM2079.86 91.7812C2084.98 91.7812 2088.42 88.875 2090.17 83.0625C2090.86 80.75 2091.2 78.125 2091.2 75.1875C2091.2 67.125 2089.01 61.9062 2084.64 59.5312C2083.2 58.7812 2081.61 58.4062 2079.86 58.4062C2074.8 58.4062 2071.36 61.2187 2069.55 66.8437C2068.8 69.2812 2068.42 72.0625 2068.42 75.1875C2068.42 83.0625 2070.58 88.1875 2074.89 90.5625C2076.39 91.375 2078.05 91.7812 2079.86 91.7812ZM2117.6 102V48.2812H2129.13L2130.07 55.4062H2130.45C2135.32 50.2812 2140.16 47.4687 2144.98 46.9687C2145.66 46.9062 2146.32 46.875 2146.95 46.875C2154.01 46.9375 2158.95 50.0937 2161.76 56.3437C2166.7 51.0937 2171.26 48.0625 2175.45 47.25C2176.57 47 2177.7 46.875 2178.82 46.875C2188.26 46.875 2193.7 52.1875 2195.13 62.8125C2195.38 64.625 2195.51 66.5312 2195.51 68.5312V102H2181.45V70.2187C2181.45 63.8437 2179.76 60.1875 2176.38 59.25C2175.63 59.0625 2174.82 58.9687 2173.95 58.9687C2170.82 59.0312 2167.35 61.0625 2163.54 65.0625V102H2149.48V70.2187C2149.48 63.8437 2147.79 60.1875 2144.41 59.25C2143.66 59.0625 2142.85 58.9687 2141.98 58.9687C2138.85 59.0312 2135.38 61.0625 2131.57 65.0625V102H2117.6ZM2210.28 102V48.2812H2221.81L2222.75 55.4062H2223.13C2228 50.2812 2232.85 47.4687 2237.66 46.9687C2238.35 46.9062 2239 46.875 2239.63 46.875C2246.69 46.9375 2251.63 50.0937 2254.44 56.3437C2259.38 51.0937 2263.94 48.0625 2268.13 47.25C2269.25 47 2270.38 46.875 2271.5 46.875C2280.94 46.875 2286.38 52.1875 2287.81 62.8125C2288.06 64.625 2288.19 66.5312 2288.19 68.5312V102H2274.13V70.2187C2274.13 63.8437 2272.44 60.1875 2269.06 59.25C2268.31 59.0625 2267.5 58.9687 2266.63 58.9687C2263.5 59.0312 2260.03 61.0625 2256.22 65.0625V102H2242.16V70.2187C2242.16 63.8437 2240.47 60.1875 2237.1 59.25C2236.35 59.0625 2235.53 58.9687 2234.66 58.9687C2231.53 59.0312 2228.06 61.0625 2224.25 65.0625V102H2210.28ZM2326.31 103.312C2317.87 103.312 2311.15 100.406 2306.15 94.5937C2301.78 89.4687 2299.59 83 2299.59 75.1875C2299.59 66 2302.59 58.6562 2308.59 53.1562C2313.28 48.9687 2318.62 46.875 2324.62 46.875C2333.56 46.875 2339.96 50.5312 2343.84 57.8437C2346.03 62.0312 2347.12 66.9687 2347.12 72.6562C2347.12 75.4687 2346.9 77.5937 2346.46 79.0312H2313.28C2314.09 85.5937 2317.21 89.8125 2322.65 91.6875C2324.34 92.25 2326.18 92.5312 2328.18 92.5312C2332.31 92.4687 2336.34 91.2187 2340.28 88.7812L2345.06 97.4062C2339.37 101.344 2333.12 103.312 2326.31 103.312ZM2313.09 69.75H2335.03C2335.03 62.8125 2332.34 58.9062 2326.96 58.0312C2326.28 57.9062 2325.56 57.8437 2324.81 57.8437C2320.5 57.8437 2317.21 59.8125 2314.96 63.75C2314.03 65.5 2313.4 67.5 2313.09 69.75ZM2358.8 102V48.2812H2370.33L2371.27 57.75H2371.65C2374.9 51.9375 2378.99 48.4375 2383.93 47.25C2384.99 47 2385.99 46.875 2386.93 46.875C2389.24 46.875 2391.36 47.2812 2393.3 48.0937L2390.77 60.2812C2388.77 59.6562 2386.9 59.3437 2385.15 59.3437C2380.83 59.3437 2377.27 61.7187 2374.46 66.4687C2373.83 67.5312 2373.27 68.6875 2372.77 69.9375V102H2358.8ZM2423.64 103.312C2415.08 103.312 2408.36 100.312 2403.48 94.3125C2399.42 89.25 2397.39 82.875 2397.39 75.1875C2397.39 65.625 2400.7 58.1875 2407.33 52.875C2412.33 48.875 2418.17 46.875 2424.86 46.875C2430.67 46.9375 2435.89 48.9375 2440.51 52.875L2433.76 61.9687C2430.95 59.5937 2428.2 58.4062 2425.51 58.4062C2420.26 58.4062 2416.42 60.7812 2413.98 65.5312C2412.55 68.2812 2411.83 71.5 2411.83 75.1875C2411.83 81.9375 2413.92 86.75 2418.11 89.625C2420.23 91.0625 2422.58 91.7812 2425.14 91.7812C2428.76 91.7187 2432.26 90.2812 2435.64 87.4687L2441.17 96.8437C2436.3 101.156 2430.45 103.312 2423.64 103.312ZM2451.45 102V48.2812H2465.41V102H2451.45ZM2458.57 39.5625C2455.01 39.5625 2452.51 38.1875 2451.07 35.4375C2450.45 34.3125 2450.13 33.125 2450.13 31.875C2450.13 28.5625 2451.66 26.2812 2454.73 25.0312C2455.91 24.5312 2457.2 24.2812 2458.57 24.2812C2462.2 24.2812 2464.73 25.6562 2466.16 28.4062C2466.66 29.4687 2466.91 30.625 2466.91 31.875C2466.91 35 2465.48 37.25 2462.6 38.625C2461.35 39.25 2460.01 39.5625 2458.57 39.5625ZM2493.97 103.312C2488.03 103.312 2483.6 101.062 2480.66 96.5625C2478.91 93.875 2478.03 90.8125 2478.03 87.375C2478.03 79.875 2482.31 74.5312 2490.88 71.3437C2495.5 69.5937 2501.53 68.3125 2508.97 67.5C2508.6 61.375 2505.56 58.2812 2499.88 58.2187C2495.75 58.2812 2490.81 59.9687 2485.06 63.2812L2480 54C2487.75 49.25 2495.22 46.875 2502.41 46.875C2514.41 46.875 2521.19 53 2522.75 65.25C2522.94 66.9375 2523.03 68.7187 2523.03 70.5937V102H2511.6L2510.47 96.2812H2510.19C2504.69 100.969 2499.28 103.312 2493.97 103.312ZM2498.56 92.3437C2502 92.2812 2505.47 90.5 2508.97 87V76.2187C2497.72 78.0312 2491.91 81.375 2491.53 86.25C2491.53 89.9375 2493.5 91.9375 2497.44 92.25C2497.81 92.3125 2498.19 92.3437 2498.56 92.3437ZM2550.84 103.312C2542.09 103.187 2537.68 97.7187 2537.62 86.9062V25.4062H2551.59V87.5625C2551.84 90.125 2552.81 91.5312 2554.5 91.7812C2555.25 91.7812 2555.9 91.7187 2556.46 91.5937L2558.15 102.094C2556.15 102.906 2553.71 103.312 2550.84 103.312Z" fill="#363A35"/>
<path d="M2678.3 103.312C2668.61 103.312 2660.74 99.9687 2654.68 93.2812C2648.74 86.5937 2645.77 77.75 2645.77 66.75C2645.77 54.625 2649.49 45.0625 2656.93 38.0625C2662.99 32.4375 2670.3 29.625 2678.86 29.625C2686.68 29.625 2693.49 32.5312 2699.3 38.3437C2699.43 38.4687 2699.55 38.5937 2699.68 38.7187L2692.18 47.7187C2688.11 43.7812 2683.77 41.8125 2679.15 41.8125C2672.77 41.8125 2667.83 44.625 2664.33 50.25C2661.65 54.5625 2660.3 59.9062 2660.3 66.2812C2660.3 76.4062 2663.08 83.5625 2668.65 87.75C2671.58 89.9375 2674.99 91.0312 2678.86 91.0312C2684.3 90.9687 2689.18 88.6562 2693.49 84.0937L2700.99 92.9062C2695.05 99.8437 2687.49 103.312 2678.3 103.312ZM2733.86 103.312C2726.61 103.312 2720.48 100.719 2715.48 95.5312C2710.48 90.2187 2707.98 83.4375 2707.98 75.1875C2707.98 65.6875 2711.14 58.25 2717.45 52.875C2722.2 48.875 2727.67 46.875 2733.86 46.875C2741.11 46.875 2747.2 49.5 2752.14 54.75C2757.14 60.0625 2759.64 66.875 2759.64 75.1875C2759.64 84.625 2756.48 92.0312 2750.17 97.4062C2745.48 101.344 2740.05 103.312 2733.86 103.312ZM2733.86 91.7812C2738.98 91.7812 2742.42 88.875 2744.17 83.0625C2744.86 80.75 2745.2 78.125 2745.2 75.1875C2745.2 67.125 2743.01 61.9062 2738.64 59.5312C2737.2 58.7812 2735.61 58.4062 2733.86 58.4062C2728.8 58.4062 2725.36 61.2187 2723.55 66.8437C2722.8 69.2812 2722.42 72.0625 2722.42 75.1875C2722.42 83.0625 2724.58 88.1875 2728.89 90.5625C2730.39 91.375 2732.05 91.7812 2733.86 91.7812ZM2771.6 102V48.2812H2783.13L2784.07 55.4062H2784.45C2789.32 50.2812 2794.16 47.4687 2798.98 46.9687C2799.66 46.9062 2800.32 46.875 2800.95 46.875C2808.01 46.9375 2812.95 50.0937 2815.76 56.3437C2820.7 51.0937 2825.26 48.0625 2829.45 47.25C2830.57 47 2831.7 46.875 2832.82 46.875C2842.26 46.875 2847.7 52.1875 2849.13 62.8125C2849.38 64.625 2849.51 66.5312 2849.51 68.5312V102H2835.45V70.2187C2835.45 63.8437 2833.76 60.1875 2830.38 59.25C2829.63 59.0625 2828.82 58.9687 2827.95 58.9687C2824.82 59.0312 2821.35 61.0625 2817.54 65.0625V102H2803.48V70.2187C2803.48 63.8437 2801.79 60.1875 2798.41 59.25C2797.66 59.0625 2796.85 58.9687 2795.98 58.9687C2792.85 59.0312 2789.38 61.0625 2785.57 65.0625V102H2771.6ZM2864.28 102V48.2812H2875.81L2876.75 55.4062H2877.13C2882 50.2812 2886.85 47.4687 2891.66 46.9687C2892.35 46.9062 2893 46.875 2893.63 46.875C2900.69 46.9375 2905.63 50.0937 2908.44 56.3437C2913.38 51.0937 2917.94 48.0625 2922.13 47.25C2923.25 47 2924.38 46.875 2925.5 46.875C2934.94 46.875 2940.38 52.1875 2941.81 62.8125C2942.06 64.625 2942.19 66.5312 2942.19 68.5312V102H2928.13V70.2187C2928.13 63.8437 2926.44 60.1875 2923.06 59.25C2922.31 59.0625 2921.5 58.9687 2920.63 58.9687C2917.5 59.0312 2914.03 61.0625 2910.22 65.0625V102H2896.16V70.2187C2896.16 63.8437 2894.47 60.1875 2891.1 59.25C2890.35 59.0625 2889.53 58.9687 2888.66 58.9687C2885.53 59.0312 2882.06 61.0625 2878.25 65.0625V102H2864.28ZM2980.31 103.312C2971.87 103.312 2965.15 100.406 2960.15 94.5937C2955.78 89.4687 2953.59 83 2953.59 75.1875C2953.59 66 2956.59 58.6562 2962.59 53.1562C2967.28 48.9687 2972.62 46.875 2978.62 46.875C2987.56 46.875 2993.96 50.5312 2997.84 57.8437C3000.03 62.0312 3001.12 66.9687 3001.12 72.6562C3001.12 75.4687 3000.9 77.5937 3000.46 79.0312H2967.28C2968.09 85.5937 2971.21 89.8125 2976.65 91.6875C2978.34 92.25 2980.18 92.5312 2982.18 92.5312C2986.31 92.4687 2990.34 91.2187 2994.28 88.7812L2999.06 97.4062C2993.37 101.344 2987.12 103.312 2980.31 103.312ZM2967.09 69.75H2989.03C2989.03 62.8125 2986.34 58.9062 2980.96 58.0312C2980.28 57.9062 2979.56 57.8437 2978.81 57.8437C2974.5 57.8437 2971.21 59.8125 2968.96 63.75C2968.03 65.5 2967.4 67.5 2967.09 69.75ZM3012.8 102V48.2812H3024.33L3025.27 57.75H3025.65C3028.9 51.9375 3032.99 48.4375 3037.93 47.25C3038.99 47 3039.99 46.875 3040.93 46.875C3043.24 46.875 3045.36 47.2812 3047.3 48.0937L3044.77 60.2812C3042.77 59.6562 3040.9 59.3437 3039.15 59.3437C3034.83 59.3437 3031.27 61.7187 3028.46 66.4687C3027.83 67.5312 3027.27 68.6875 3026.77 69.9375V102H3012.8ZM3077.64 103.312C3069.08 103.312 3062.36 100.312 3057.48 94.3125C3053.42 89.25 3051.39 82.875 3051.39 75.1875C3051.39 65.625 3054.7 58.1875 3061.33 52.875C3066.33 48.875 3072.17 46.875 3078.86 46.875C3084.67 46.9375 3089.89 48.9375 3094.51 52.875L3087.76 61.9687C3084.95 59.5937 3082.2 58.4062 3079.51 58.4062C3074.26 58.4062 3070.42 60.7812 3067.98 65.5312C3066.55 68.2812 3065.83 71.5 3065.83 75.1875C3065.83 81.9375 3067.92 86.75 3072.11 89.625C3074.23 91.0625 3076.58 91.7812 3079.14 91.7812C3082.76 91.7187 3086.26 90.2812 3089.64 87.4687L3095.17 96.8437C3090.3 101.156 3084.45 103.312 3077.64 103.312ZM3105.45 102V48.2812H3119.41V102H3105.45ZM3112.57 39.5625C3109.01 39.5625 3106.51 38.1875 3105.07 35.4375C3104.45 34.3125 3104.13 33.125 3104.13 31.875C3104.13 28.5625 3105.66 26.2812 3108.73 25.0312C3109.91 24.5312 3111.2 24.2812 3112.57 24.2812C3116.2 24.2812 3118.73 25.6562 3120.16 28.4062C3120.66 29.4687 3120.91 30.625 3120.91 31.875C3120.91 35 3119.48 37.25 3116.6 38.625C3115.35 39.25 3114.01 39.5625 3112.57 39.5625ZM3147.97 103.312C3142.03 103.312 3137.6 101.062 3134.66 96.5625C3132.91 93.875 3132.03 90.8125 3132.03 87.375C3132.03 79.875 3136.31 74.5312 3144.88 71.3437C3149.5 69.5937 3155.53 68.3125 3162.97 67.5C3162.6 61.375 3159.56 58.2812 3153.88 58.2187C3149.75 58.2812 3144.81 59.9687 3139.06 63.2812L3134 54C3141.75 49.25 3149.22 46.875 3156.41 46.875C3168.41 46.875 3175.19 53 3176.75 65.25C3176.94 66.9375 3177.03 68.7187 3177.03 70.5937V102H3165.6L3164.47 96.2812H3164.19C3158.69 100.969 3153.28 103.312 3147.97 103.312ZM3152.56 92.3437C3156 92.2812 3159.47 90.5 3162.97 87V76.2187C3151.72 78.0312 3145.91 81.375 3145.53 86.25C3145.53 89.9375 3147.5 91.9375 3151.44 92.25C3151.81 92.3125 3152.19 92.3437 3152.56 92.3437ZM3204.84 103.312C3196.09 103.187 3191.68 97.7187 3191.62 86.9062V25.4062H3205.59V87.5625C3205.84 90.125 3206.81 91.5312 3208.5 91.7812C3209.25 91.7812 3209.9 91.7187 3210.46 91.5937L3212.15 102.094C3210.15 102.906 3207.71 103.312 3204.84 103.312Z" fill="#363A35"/>
<path d="M3332.3 103.312C3322.61 103.312 3314.74 99.9687 3308.68 93.2812C3302.74 86.5937 3299.77 77.75 3299.77 66.75C3299.77 54.625 3303.49 45.0625 3310.93 38.0625C3316.99 32.4375 3324.3 29.625 3332.86 29.625C3340.68 29.625 3347.49 32.5312 3353.3 38.3437C3353.43 38.4687 3353.55 38.5937 3353.68 38.7187L3346.18 47.7187C3342.11 43.7812 3337.77 41.8125 3333.15 41.8125C3326.77 41.8125 3321.83 44.625 3318.33 50.25C3315.65 54.5625 3314.3 59.9062 3314.3 66.2812C3314.3 76.4062 3317.08 83.5625 3322.65 87.75C3325.58 89.9375 3328.99 91.0312 3332.86 91.0312C3338.3 90.9687 3343.18 88.6562 3347.49 84.0937L3354.99 92.9062C3349.05 99.8437 3341.49 103.312 3332.3 103.312ZM3387.86 103.312C3380.61 103.312 3374.48 100.719 3369.48 95.5312C3364.48 90.2187 3361.98 83.4375 3361.98 75.1875C3361.98 65.6875 3365.14 58.25 3371.45 52.875C3376.2 48.875 3381.67 46.875 3387.86 46.875C3395.11 46.875 3401.2 49.5 3406.14 54.75C3411.14 60.0625 3413.64 66.875 3413.64 75.1875C3413.64 84.625 3410.48 92.0312 3404.17 97.4062C3399.48 101.344 3394.05 103.312 3387.86 103.312ZM3387.86 91.7812C3392.98 91.7812 3396.42 88.875 3398.17 83.0625C3398.86 80.75 3399.2 78.125 3399.2 75.1875C3399.2 67.125 3397.01 61.9062 3392.64 59.5312C3391.2 58.7812 3389.61 58.4062 3387.86 58.4062C3382.8 58.4062 3379.36 61.2187 3377.55 66.8437C3376.8 69.2812 3376.42 72.0625 3376.42 75.1875C3376.42 83.0625 3378.58 88.1875 3382.89 90.5625C3384.39 91.375 3386.05 91.7812 3387.86 91.7812ZM3425.6 102V48.2812H3437.13L3438.07 55.4062H3438.45C3443.32 50.2812 3448.16 47.4687 3452.98 46.9687C3453.66 46.9062 3454.32 46.875 3454.95 46.875C3462.01 46.9375 3466.95 50.0937 3469.76 56.3437C3474.7 51.0937 3479.26 48.0625 3483.45 47.25C3484.57 47 3485.7 46.875 3486.82 46.875C3496.26 46.875 3501.7 52.1875 3503.13 62.8125C3503.38 64.625 3503.51 66.5312 3503.51 68.5312V102H3489.45V70.2187C3489.45 63.8437 3487.76 60.1875 3484.38 59.25C3483.63 59.0625 3482.82 58.9687 3481.95 58.9687C3478.82 59.0312 3475.35 61.0625 3471.54 65.0625V102H3457.48V70.2187C3457.48 63.8437 3455.79 60.1875 3452.41 59.25C3451.66 59.0625 3450.85 58.9687 3449.98 58.9687C3446.85 59.0312 3443.38 61.0625 3439.57 65.0625V102H3425.6ZM3518.28 102V48.2812H3529.81L3530.75 55.4062H3531.13C3536 50.2812 3540.85 47.4687 3545.66 46.9687C3546.35 46.9062 3547 46.875 3547.63 46.875C3554.69 46.9375 3559.63 50.0937 3562.44 56.3437C3567.38 51.0937 3571.94 48.0625 3576.13 47.25C3577.25 47 3578.38 46.875 3579.5 46.875C3588.94 46.875 3594.38 52.1875 3595.81 62.8125C3596.06 64.625 3596.19 66.5312 3596.19 68.5312V102H3582.13V70.2187C3582.13 63.8437 3580.44 60.1875 3577.06 59.25C3576.31 59.0625 3575.5 58.9687 3574.63 58.9687C3571.5 59.0312 3568.03 61.0625 3564.22 65.0625V102H3550.16V70.2187C3550.16 63.8437 3548.47 60.1875 3545.1 59.25C3544.35 59.0625 3543.53 58.9687 3542.66 58.9687C3539.53 59.0312 3536.06 61.0625 3532.25 65.0625V102H3518.28ZM3634.31 103.312C3625.87 103.312 3619.15 100.406 3614.15 94.5937C3609.78 89.4687 3607.59 83 3607.59 75.1875C3607.59 66 3610.59 58.6562 3616.59 53.1562C3621.28 48.9687 3626.62 46.875 3632.62 46.875C3641.56 46.875 3647.96 50.5312 3651.84 57.8437C3654.03 62.0312 3655.12 66.9687 3655.12 72.6562C3655.12 75.4687 3654.9 77.5937 3654.46 79.0312H3621.28C3622.09 85.5937 3625.21 89.8125 3630.65 91.6875C3632.34 92.25 3634.18 92.5312 3636.18 92.5312C3640.31 92.4687 3644.34 91.2187 3648.28 88.7812L3653.06 97.4062C3647.37 101.344 3641.12 103.312 3634.31 103.312ZM3621.09 69.75H3643.03C3643.03 62.8125 3640.34 58.9062 3634.96 58.0312C3634.28 57.9062 3633.56 57.8437 3632.81 57.8437C3628.5 57.8437 3625.21 59.8125 3622.96 63.75C3622.03 65.5 3621.4 67.5 3621.09 69.75ZM3666.8 102V48.2812H3678.33L3679.27 57.75H3679.65C3682.9 51.9375 3686.99 48.4375 3691.93 47.25C3692.99 47 3693.99 46.875 3694.93 46.875C3697.24 46.875 3699.36 47.2812 3701.3 48.0937L3698.77 60.2812C3696.77 59.6562 3694.9 59.3437 3693.15 59.3437C3688.83 59.3437 3685.27 61.7187 3682.46 66.4687C3681.83 67.5312 3681.27 68.6875 3680.77 69.9375V102H3666.8ZM3731.64 103.312C3723.08 103.312 3716.36 100.312 3711.48 94.3125C3707.42 89.25 3705.39 82.875 3705.39 75.1875C3705.39 65.625 3708.7 58.1875 3715.33 52.875C3720.33 48.875 3726.17 46.875 3732.86 46.875C3738.67 46.9375 3743.89 48.9375 3748.51 52.875L3741.76 61.9687C3738.95 59.5937 3736.2 58.4062 3733.51 58.4062C3728.26 58.4062 3724.42 60.7812 3721.98 65.5312C3720.55 68.2812 3719.83 71.5 3719.83 75.1875C3719.83 81.9375 3721.92 86.75 3726.11 89.625C3728.23 91.0625 3730.58 91.7812 3733.14 91.7812C3736.76 91.7187 3740.26 90.2812 3743.64 87.4687L3749.17 96.8437C3744.3 101.156 3738.45 103.312 3731.64 103.312ZM3759.45 102V48.2812H3773.41V102H3759.45ZM3766.57 39.5625C3763.01 39.5625 3760.51 38.1875 3759.07 35.4375C3758.45 34.3125 3758.13 33.125 3758.13 31.875C3758.13 28.5625 3759.66 26.2812 3762.73 25.0312C3763.91 24.5312 3765.2 24.2812 3766.57 24.2812C3770.2 24.2812 3772.73 25.6562 3774.16 28.4062C3774.66 29.4687 3774.91 30.625 3774.91 31.875C3774.91 35 3773.48 37.25 3770.6 38.625C3769.35 39.25 3768.01 39.5625 3766.57 39.5625ZM3801.97 103.312C3796.03 103.312 3791.6 101.062 3788.66 96.5625C3786.91 93.875 3786.03 90.8125 3786.03 87.375C3786.03 79.875 3790.31 74.5312 3798.88 71.3437C3803.5 69.5937 3809.53 68.3125 3816.97 67.5C3816.6 61.375 3813.56 58.2812 3807.88 58.2187C3803.75 58.2812 3798.81 59.9687 3793.06 63.2812L3788 54C3795.75 49.25 3803.22 46.875 3810.41 46.875C3822.41 46.875 3829.19 53 3830.75 65.25C3830.94 66.9375 3831.03 68.7187 3831.03 70.5937V102H3819.6L3818.47 96.2812H3818.19C3812.69 100.969 3807.28 103.312 3801.97 103.312ZM3806.56 92.3437C3810 92.2812 3813.47 90.5 3816.97 87V76.2187C3805.72 78.0312 3799.91 81.375 3799.53 86.25C3799.53 89.9375 3801.5 91.9375 3805.44 92.25C3805.81 92.3125 3806.19 92.3437 3806.56 92.3437ZM3858.84 103.312C3850.09 103.187 3845.68 97.7187 3845.62 86.9062V25.4062H3859.59V87.5625C3859.84 90.125 3860.81 91.5312 3862.5 91.7812C3863.25 91.7812 3863.9 91.7187 3864.46 91.5937L3866.15 102.094C3864.15 102.906 3861.71 103.312 3858.84 103.312Z" fill="#363A35"/>
</svg>
