<svg width="3849" height="131" viewBox="0 0 3849 131" fill="none" xmlns="http://www.w3.org/2000/svg">
<rect width="3848" height="131" transform="translate(0.61499)" fill="white"/>
<path d="M62.3025 103.312C52.615 103.312 44.74 99.9687 38.6775 93.2812C32.74 86.5937 29.7712 77.75 29.7712 66.75C29.7712 54.625 33.49 45.0625 40.9275 38.0625C46.99 32.4375 54.3025 29.625 62.865 29.625C70.6775 29.625 77.49 32.5312 83.3025 38.3437C83.4275 38.4687 83.5525 38.5937 83.6775 38.7187L76.1775 47.7187C72.115 43.7812 67.7712 41.8125 63.1462 41.8125C56.7712 41.8125 51.8337 44.625 48.3337 50.25C45.6462 54.5625 44.3025 59.9062 44.3025 66.2812C44.3025 76.4062 47.0837 83.5625 52.6462 87.75C55.5837 89.9375 58.99 91.0312 62.865 91.0312C68.3025 90.9687 73.1775 88.6562 77.49 84.0937L84.99 92.9062C79.0525 99.8437 71.49 103.312 62.3025 103.312ZM117.859 103.312C110.609 103.312 104.484 100.719 99.4837 95.5312C94.4837 90.2187 91.9837 83.4375 91.9837 75.1875C91.9837 65.6875 95.14 58.25 101.452 52.875C106.202 48.875 111.671 46.875 117.859 46.875C125.109 46.875 131.202 49.5 136.14 54.75C141.14 60.0625 143.64 66.875 143.64 75.1875C143.64 84.625 140.484 92.0312 134.171 97.4062C129.484 101.344 124.046 103.312 117.859 103.312ZM117.859 91.7812C122.984 91.7812 126.421 88.875 128.171 83.0625C128.859 80.75 129.202 78.125 129.202 75.1875C129.202 67.125 127.015 61.9062 122.64 59.5312C121.202 58.7812 119.609 58.4062 117.859 58.4062C112.796 58.4062 109.359 61.2187 107.546 66.8437C106.796 69.2812 106.421 72.0625 106.421 75.1875C106.421 83.0625 108.577 88.1875 112.89 90.5625C114.39 91.375 116.046 91.7812 117.859 91.7812ZM155.602 102V48.2812H167.134L168.071 55.4062H168.446C173.321 50.2812 178.165 47.4687 182.977 46.9687C183.665 46.9062 184.321 46.875 184.946 46.875C192.009 46.9375 196.946 50.0937 199.759 56.3437C204.696 51.0937 209.259 48.0625 213.446 47.25C214.571 47 215.696 46.875 216.821 46.875C226.259 46.875 231.696 52.1875 233.134 62.8125C233.384 64.625 233.509 66.5312 233.509 68.5312V102H219.446V70.2187C219.446 63.8437 217.759 60.1875 214.384 59.25C213.634 59.0625 212.821 58.9687 211.946 58.9687C208.821 59.0312 205.352 61.0625 201.54 65.0625V102H187.477V70.2187C187.477 63.8437 185.79 60.1875 182.415 59.25C181.665 59.0625 180.852 58.9687 179.977 58.9687C176.852 59.0312 173.384 61.0625 169.571 65.0625V102H155.602ZM248.284 102V48.2812H259.815L260.752 55.4062H261.127C266.002 50.2812 270.846 47.4687 275.659 46.9687C276.346 46.9062 277.002 46.875 277.627 46.875C284.69 46.9375 289.627 50.0937 292.44 56.3437C297.377 51.0937 301.94 48.0625 306.127 47.25C307.252 47 308.377 46.875 309.502 46.875C318.94 46.875 324.377 52.1875 325.815 62.8125C326.065 64.625 326.19 66.5312 326.19 68.5312V102H312.127V70.2187C312.127 63.8437 310.44 60.1875 307.065 59.25C306.315 59.0625 305.502 58.9687 304.627 58.9687C301.502 59.0312 298.034 61.0625 294.221 65.0625V102H280.159V70.2187C280.159 63.8437 278.471 60.1875 275.096 59.25C274.346 59.0625 273.534 58.9687 272.659 58.9687C269.534 59.0312 266.065 61.0625 262.252 65.0625V102H248.284ZM364.309 103.312C355.871 103.312 349.152 100.406 344.152 94.5937C339.777 89.4687 337.59 83 337.59 75.1875C337.59 66 340.59 58.6562 346.59 53.1562C351.277 48.9687 356.621 46.875 362.621 46.875C371.559 46.875 377.965 50.5312 381.84 57.8437C384.027 62.0312 385.121 66.9687 385.121 72.6562C385.121 75.4687 384.902 77.5937 384.465 79.0312H351.277C352.09 85.5937 355.215 89.8125 360.652 91.6875C362.34 92.25 364.184 92.5312 366.184 92.5312C370.309 92.4687 374.34 91.2187 378.277 88.7812L383.059 97.4062C377.371 101.344 371.121 103.312 364.309 103.312ZM351.09 69.75H373.027C373.027 62.8125 370.34 58.9062 364.965 58.0312C364.277 57.9062 363.559 57.8437 362.809 57.8437C358.496 57.8437 355.215 59.8125 352.965 63.75C352.027 65.5 351.402 67.5 351.09 69.75ZM396.802 102V48.2812H408.334L409.271 57.75H409.646C412.896 51.9375 416.99 48.4375 421.927 47.25C422.99 47 423.99 46.875 424.927 46.875C427.24 46.875 429.365 47.2812 431.302 48.0937L428.771 60.2812C426.771 59.6562 424.896 59.3437 423.146 59.3437C418.834 59.3437 415.271 61.7187 412.459 66.4687C411.834 67.5312 411.271 68.6875 410.771 69.9375V102H396.802ZM461.64 103.312C453.077 103.312 446.359 100.312 441.484 94.3125C437.421 89.25 435.39 82.875 435.39 75.1875C435.39 65.625 438.702 58.1875 445.327 52.875C450.327 48.875 456.171 46.875 462.859 46.875C468.671 46.9375 473.89 48.9375 478.515 52.875L471.765 61.9687C468.952 59.5937 466.202 58.4062 463.515 58.4062C458.265 58.4062 454.421 60.7812 451.984 65.5312C450.546 68.2812 449.827 71.5 449.827 75.1875C449.827 81.9375 451.921 86.75 456.109 89.625C458.234 91.0625 460.577 91.7812 463.14 91.7812C466.765 91.7187 470.265 90.2812 473.64 87.4687L479.171 96.8437C474.296 101.156 468.452 103.312 461.64 103.312ZM489.446 102V48.2812H503.415V102H489.446ZM496.571 39.5625C493.009 39.5625 490.509 38.1875 489.071 35.4375C488.446 34.3125 488.134 33.125 488.134 31.875C488.134 28.5625 489.665 26.2812 492.727 25.0312C493.915 24.5312 495.196 24.2812 496.571 24.2812C500.196 24.2812 502.727 25.6562 504.165 28.4062C504.665 29.4687 504.915 30.625 504.915 31.875C504.915 35 503.477 37.25 500.602 38.625C499.352 39.25 498.009 39.5625 496.571 39.5625ZM531.971 103.312C526.034 103.312 521.596 101.062 518.659 96.5625C516.909 93.875 516.034 90.8125 516.034 87.375C516.034 79.875 520.315 74.5312 528.877 71.3437C533.502 69.5937 539.534 68.3125 546.971 67.5C546.596 61.375 543.565 58.2812 537.877 58.2187C533.752 58.2812 528.815 59.9687 523.065 63.2812L518.002 54C525.752 49.25 533.221 46.875 540.409 46.875C552.409 46.875 559.19 53 560.752 65.25C560.94 66.9375 561.034 68.7187 561.034 70.5937V102H549.596L548.471 96.2812H548.19C542.69 100.969 537.284 103.312 531.971 103.312ZM536.565 92.3437C540.002 92.2812 543.471 90.5 546.971 87V76.2187C535.721 78.0312 529.909 81.375 529.534 86.25C529.534 89.9375 531.502 91.9375 535.44 92.25C535.815 92.3125 536.19 92.3437 536.565 92.3437ZM588.84 103.312C580.09 103.187 575.684 97.7187 575.621 86.9062V25.4062H589.59V87.5625C589.84 90.125 590.809 91.5312 592.496 91.7812C593.246 91.7812 593.902 91.7187 594.465 91.5937L596.152 102.094C594.152 102.906 591.715 103.312 588.84 103.312Z" fill="#363A35"/>
<path d="M714.615 103.312C696.24 103.187 687.021 92.0937 686.959 70.0312V30.9375H701.209V71.25C701.209 82.5625 704.396 89 710.771 90.5625C711.959 90.875 713.24 91.0312 714.615 91.0312C721.99 91.0312 726.396 86.9062 727.834 78.6562C728.209 76.4687 728.396 74 728.396 71.25V30.9375H742.084V70.0312C742.084 91.5312 733.49 102.625 716.302 103.312C715.74 103.312 715.177 103.312 714.615 103.312ZM759.202 102V30.9375H773.452V102H759.202ZM818.227 103.312C799.852 103.187 790.634 92.0937 790.571 70.0312V30.9375H804.821V71.25C804.821 82.5625 808.009 89 814.384 90.5625C815.571 90.875 816.852 91.0312 818.227 91.0312C825.602 91.0312 830.009 86.9062 831.446 78.6562C831.821 76.4687 832.009 74 832.009 71.25V30.9375H845.696V70.0312C845.696 91.5312 837.102 102.625 819.915 103.312C819.352 103.312 818.79 103.312 818.227 103.312ZM855.409 102L875.377 65.3437L856.721 30.9375H872.471L879.502 45.5625C882.502 51.875 884.284 55.625 884.846 56.8125H885.315C886.627 53.375 888.19 49.625 890.002 45.5625L896.752 30.9375H911.659L893.002 66L912.971 102H897.221L889.252 86.25C888.752 85.25 888.034 83.75 887.096 81.75C885.596 78.625 884.44 76.2187 883.627 74.5312H883.252C881.815 78.0312 880.096 81.9375 878.096 86.25L870.502 102H855.409Z" fill="#363A35"/>
<path d="M1032.3 103.312C1022.61 103.312 1014.74 99.9687 1008.68 93.2812C1002.74 86.5937 999.771 77.75 999.771 66.75C999.771 54.625 1003.49 45.0625 1010.93 38.0625C1016.99 32.4375 1024.3 29.625 1032.86 29.625C1040.68 29.625 1047.49 32.5312 1053.3 38.3437C1053.43 38.4687 1053.55 38.5937 1053.68 38.7187L1046.18 47.7187C1042.11 43.7812 1037.77 41.8125 1033.15 41.8125C1026.77 41.8125 1021.83 44.625 1018.33 50.25C1015.65 54.5625 1014.3 59.9062 1014.3 66.2812C1014.3 76.4062 1017.08 83.5625 1022.65 87.75C1025.58 89.9375 1028.99 91.0312 1032.86 91.0312C1038.3 90.9687 1043.18 88.6562 1047.49 84.0937L1054.99 92.9062C1049.05 99.8437 1041.49 103.312 1032.3 103.312ZM1087.86 103.312C1080.61 103.312 1074.48 100.719 1069.48 95.5312C1064.48 90.2187 1061.98 83.4375 1061.98 75.1875C1061.98 65.6875 1065.14 58.25 1071.45 52.875C1076.2 48.875 1081.67 46.875 1087.86 46.875C1095.11 46.875 1101.2 49.5 1106.14 54.75C1111.14 60.0625 1113.64 66.875 1113.64 75.1875C1113.64 84.625 1110.48 92.0312 1104.17 97.4062C1099.48 101.344 1094.05 103.312 1087.86 103.312ZM1087.86 91.7812C1092.98 91.7812 1096.42 88.875 1098.17 83.0625C1098.86 80.75 1099.2 78.125 1099.2 75.1875C1099.2 67.125 1097.01 61.9062 1092.64 59.5312C1091.2 58.7812 1089.61 58.4062 1087.86 58.4062C1082.8 58.4062 1079.36 61.2187 1077.55 66.8437C1076.8 69.2812 1076.42 72.0625 1076.42 75.1875C1076.42 83.0625 1078.58 88.1875 1082.89 90.5625C1084.39 91.375 1086.05 91.7812 1087.86 91.7812ZM1125.6 102V48.2812H1137.13L1138.07 55.4062H1138.45C1143.32 50.2812 1148.16 47.4687 1152.98 46.9687C1153.66 46.9062 1154.32 46.875 1154.95 46.875C1162.01 46.9375 1166.95 50.0937 1169.76 56.3437C1174.7 51.0937 1179.26 48.0625 1183.45 47.25C1184.57 47 1185.7 46.875 1186.82 46.875C1196.26 46.875 1201.7 52.1875 1203.13 62.8125C1203.38 64.625 1203.51 66.5312 1203.51 68.5312V102H1189.45V70.2187C1189.45 63.8437 1187.76 60.1875 1184.38 59.25C1183.63 59.0625 1182.82 58.9687 1181.95 58.9687C1178.82 59.0312 1175.35 61.0625 1171.54 65.0625V102H1157.48V70.2187C1157.48 63.8437 1155.79 60.1875 1152.41 59.25C1151.66 59.0625 1150.85 58.9687 1149.98 58.9687C1146.85 59.0312 1143.38 61.0625 1139.57 65.0625V102H1125.6ZM1218.28 102V48.2812H1229.81L1230.75 55.4062H1231.13C1236 50.2812 1240.85 47.4687 1245.66 46.9687C1246.35 46.9062 1247 46.875 1247.63 46.875C1254.69 46.9375 1259.63 50.0937 1262.44 56.3437C1267.38 51.0937 1271.94 48.0625 1276.13 47.25C1277.25 47 1278.38 46.875 1279.5 46.875C1288.94 46.875 1294.38 52.1875 1295.81 62.8125C1296.06 64.625 1296.19 66.5312 1296.19 68.5312V102H1282.13V70.2187C1282.13 63.8437 1280.44 60.1875 1277.06 59.25C1276.31 59.0625 1275.5 58.9687 1274.63 58.9687C1271.5 59.0312 1268.03 61.0625 1264.22 65.0625V102H1250.16V70.2187C1250.16 63.8437 1248.47 60.1875 1245.1 59.25C1244.35 59.0625 1243.53 58.9687 1242.66 58.9687C1239.53 59.0312 1236.06 61.0625 1232.25 65.0625V102H1218.28ZM1334.31 103.312C1325.87 103.312 1319.15 100.406 1314.15 94.5937C1309.78 89.4687 1307.59 83 1307.59 75.1875C1307.59 66 1310.59 58.6562 1316.59 53.1562C1321.28 48.9687 1326.62 46.875 1332.62 46.875C1341.56 46.875 1347.96 50.5312 1351.84 57.8437C1354.03 62.0312 1355.12 66.9687 1355.12 72.6562C1355.12 75.4687 1354.9 77.5937 1354.46 79.0312H1321.28C1322.09 85.5937 1325.21 89.8125 1330.65 91.6875C1332.34 92.25 1334.18 92.5312 1336.18 92.5312C1340.31 92.4687 1344.34 91.2187 1348.28 88.7812L1353.06 97.4062C1347.37 101.344 1341.12 103.312 1334.31 103.312ZM1321.09 69.75H1343.03C1343.03 62.8125 1340.34 58.9062 1334.96 58.0312C1334.28 57.9062 1333.56 57.8437 1332.81 57.8437C1328.5 57.8437 1325.21 59.8125 1322.96 63.75C1322.03 65.5 1321.4 67.5 1321.09 69.75ZM1366.8 102V48.2812H1378.33L1379.27 57.75H1379.65C1382.9 51.9375 1386.99 48.4375 1391.93 47.25C1392.99 47 1393.99 46.875 1394.93 46.875C1397.24 46.875 1399.36 47.2812 1401.3 48.0937L1398.77 60.2812C1396.77 59.6562 1394.9 59.3437 1393.15 59.3437C1388.83 59.3437 1385.27 61.7187 1382.46 66.4687C1381.83 67.5312 1381.27 68.6875 1380.77 69.9375V102H1366.8ZM1431.64 103.312C1423.08 103.312 1416.36 100.312 1411.48 94.3125C1407.42 89.25 1405.39 82.875 1405.39 75.1875C1405.39 65.625 1408.7 58.1875 1415.33 52.875C1420.33 48.875 1426.17 46.875 1432.86 46.875C1438.67 46.9375 1443.89 48.9375 1448.51 52.875L1441.76 61.9687C1438.95 59.5937 1436.2 58.4062 1433.51 58.4062C1428.26 58.4062 1424.42 60.7812 1421.98 65.5312C1420.55 68.2812 1419.83 71.5 1419.83 75.1875C1419.83 81.9375 1421.92 86.75 1426.11 89.625C1428.23 91.0625 1430.58 91.7812 1433.14 91.7812C1436.76 91.7187 1440.26 90.2812 1443.64 87.4687L1449.17 96.8437C1444.3 101.156 1438.45 103.312 1431.64 103.312ZM1459.45 102V48.2812H1473.41V102H1459.45ZM1466.57 39.5625C1463.01 39.5625 1460.51 38.1875 1459.07 35.4375C1458.45 34.3125 1458.13 33.125 1458.13 31.875C1458.13 28.5625 1459.66 26.2812 1462.73 25.0312C1463.91 24.5312 1465.2 24.2812 1466.57 24.2812C1470.2 24.2812 1472.73 25.6562 1474.16 28.4062C1474.66 29.4687 1474.91 30.625 1474.91 31.875C1474.91 35 1473.48 37.25 1470.6 38.625C1469.35 39.25 1468.01 39.5625 1466.57 39.5625ZM1501.97 103.312C1496.03 103.312 1491.6 101.062 1488.66 96.5625C1486.91 93.875 1486.03 90.8125 1486.03 87.375C1486.03 79.875 1490.31 74.5312 1498.88 71.3437C1503.5 69.5937 1509.53 68.3125 1516.97 67.5C1516.6 61.375 1513.56 58.2812 1507.88 58.2187C1503.75 58.2812 1498.81 59.9687 1493.06 63.2812L1488 54C1495.75 49.25 1503.22 46.875 1510.41 46.875C1522.41 46.875 1529.19 53 1530.75 65.25C1530.94 66.9375 1531.03 68.7187 1531.03 70.5937V102H1519.6L1518.47 96.2812H1518.19C1512.69 100.969 1507.28 103.312 1501.97 103.312ZM1506.56 92.3437C1510 92.2812 1513.47 90.5 1516.97 87V76.2187C1505.72 78.0312 1499.91 81.375 1499.53 86.25C1499.53 89.9375 1501.5 91.9375 1505.44 92.25C1505.81 92.3125 1506.19 92.3437 1506.56 92.3437ZM1558.84 103.312C1550.09 103.187 1545.68 97.7187 1545.62 86.9062V25.4062H1559.59V87.5625C1559.84 90.125 1560.81 91.5312 1562.5 91.7812C1563.25 91.7812 1563.9 91.7187 1564.46 91.5937L1566.15 102.094C1564.15 102.906 1561.71 103.312 1558.84 103.312Z" fill="#363A35"/>
<path d="M1684.61 103.312C1666.24 103.187 1657.02 92.0937 1656.96 70.0312V30.9375H1671.21V71.25C1671.21 82.5625 1674.4 89 1680.77 90.5625C1681.96 90.875 1683.24 91.0312 1684.61 91.0312C1691.99 91.0312 1696.4 86.9062 1697.83 78.6562C1698.21 76.4687 1698.4 74 1698.4 71.25V30.9375H1712.08V70.0312C1712.08 91.5312 1703.49 102.625 1686.3 103.312C1685.74 103.312 1685.18 103.312 1684.61 103.312ZM1729.2 102V30.9375H1743.45V102H1729.2ZM1788.23 103.312C1769.85 103.187 1760.63 92.0937 1760.57 70.0312V30.9375H1774.82V71.25C1774.82 82.5625 1778.01 89 1784.38 90.5625C1785.57 90.875 1786.85 91.0312 1788.23 91.0312C1795.6 91.0312 1800.01 86.9062 1801.45 78.6562C1801.82 76.4687 1802.01 74 1802.01 71.25V30.9375H1815.7V70.0312C1815.7 91.5312 1807.1 102.625 1789.91 103.312C1789.35 103.312 1788.79 103.312 1788.23 103.312ZM1825.41 102L1845.38 65.3437L1826.72 30.9375H1842.47L1849.5 45.5625C1852.5 51.875 1854.28 55.625 1854.85 56.8125H1855.31C1856.63 53.375 1858.19 49.625 1860 45.5625L1866.75 30.9375H1881.66L1863 66L1882.97 102H1867.22L1859.25 86.25C1858.75 85.25 1858.03 83.75 1857.1 81.75C1855.6 78.625 1854.44 76.2187 1853.63 74.5312H1853.25C1851.81 78.0312 1850.1 81.9375 1848.1 86.25L1840.5 102H1825.41Z" fill="#363A35"/>
<path d="M2002.3 103.312C1992.61 103.312 1984.74 99.9687 1978.68 93.2812C1972.74 86.5937 1969.77 77.75 1969.77 66.75C1969.77 54.625 1973.49 45.0625 1980.93 38.0625C1986.99 32.4375 1994.3 29.625 2002.86 29.625C2010.68 29.625 2017.49 32.5312 2023.3 38.3437C2023.43 38.4687 2023.55 38.5937 2023.68 38.7187L2016.18 47.7187C2012.11 43.7812 2007.77 41.8125 2003.15 41.8125C1996.77 41.8125 1991.83 44.625 1988.33 50.25C1985.65 54.5625 1984.3 59.9062 1984.3 66.2812C1984.3 76.4062 1987.08 83.5625 1992.65 87.75C1995.58 89.9375 1998.99 91.0312 2002.86 91.0312C2008.3 90.9687 2013.18 88.6562 2017.49 84.0937L2024.99 92.9062C2019.05 99.8437 2011.49 103.312 2002.3 103.312ZM2057.86 103.312C2050.61 103.312 2044.48 100.719 2039.48 95.5312C2034.48 90.2187 2031.98 83.4375 2031.98 75.1875C2031.98 65.6875 2035.14 58.25 2041.45 52.875C2046.2 48.875 2051.67 46.875 2057.86 46.875C2065.11 46.875 2071.2 49.5 2076.14 54.75C2081.14 60.0625 2083.64 66.875 2083.64 75.1875C2083.64 84.625 2080.48 92.0312 2074.17 97.4062C2069.48 101.344 2064.05 103.312 2057.86 103.312ZM2057.86 91.7812C2062.98 91.7812 2066.42 88.875 2068.17 83.0625C2068.86 80.75 2069.2 78.125 2069.2 75.1875C2069.2 67.125 2067.01 61.9062 2062.64 59.5312C2061.2 58.7812 2059.61 58.4062 2057.86 58.4062C2052.8 58.4062 2049.36 61.2187 2047.55 66.8437C2046.8 69.2812 2046.42 72.0625 2046.42 75.1875C2046.42 83.0625 2048.58 88.1875 2052.89 90.5625C2054.39 91.375 2056.05 91.7812 2057.86 91.7812ZM2095.6 102V48.2812H2107.13L2108.07 55.4062H2108.45C2113.32 50.2812 2118.16 47.4687 2122.98 46.9687C2123.66 46.9062 2124.32 46.875 2124.95 46.875C2132.01 46.9375 2136.95 50.0937 2139.76 56.3437C2144.7 51.0937 2149.26 48.0625 2153.45 47.25C2154.57 47 2155.7 46.875 2156.82 46.875C2166.26 46.875 2171.7 52.1875 2173.13 62.8125C2173.38 64.625 2173.51 66.5312 2173.51 68.5312V102H2159.45V70.2187C2159.45 63.8437 2157.76 60.1875 2154.38 59.25C2153.63 59.0625 2152.82 58.9687 2151.95 58.9687C2148.82 59.0312 2145.35 61.0625 2141.54 65.0625V102H2127.48V70.2187C2127.48 63.8437 2125.79 60.1875 2122.41 59.25C2121.66 59.0625 2120.85 58.9687 2119.98 58.9687C2116.85 59.0312 2113.38 61.0625 2109.57 65.0625V102H2095.6ZM2188.28 102V48.2812H2199.81L2200.75 55.4062H2201.13C2206 50.2812 2210.85 47.4687 2215.66 46.9687C2216.35 46.9062 2217 46.875 2217.63 46.875C2224.69 46.9375 2229.63 50.0937 2232.44 56.3437C2237.38 51.0937 2241.94 48.0625 2246.13 47.25C2247.25 47 2248.38 46.875 2249.5 46.875C2258.94 46.875 2264.38 52.1875 2265.81 62.8125C2266.06 64.625 2266.19 66.5312 2266.19 68.5312V102H2252.13V70.2187C2252.13 63.8437 2250.44 60.1875 2247.06 59.25C2246.31 59.0625 2245.5 58.9687 2244.63 58.9687C2241.5 59.0312 2238.03 61.0625 2234.22 65.0625V102H2220.16V70.2187C2220.16 63.8437 2218.47 60.1875 2215.1 59.25C2214.35 59.0625 2213.53 58.9687 2212.66 58.9687C2209.53 59.0312 2206.06 61.0625 2202.25 65.0625V102H2188.28ZM2304.31 103.312C2295.87 103.312 2289.15 100.406 2284.15 94.5937C2279.78 89.4687 2277.59 83 2277.59 75.1875C2277.59 66 2280.59 58.6562 2286.59 53.1562C2291.28 48.9687 2296.62 46.875 2302.62 46.875C2311.56 46.875 2317.96 50.5312 2321.84 57.8437C2324.03 62.0312 2325.12 66.9687 2325.12 72.6562C2325.12 75.4687 2324.9 77.5937 2324.46 79.0312H2291.28C2292.09 85.5937 2295.21 89.8125 2300.65 91.6875C2302.34 92.25 2304.18 92.5312 2306.18 92.5312C2310.31 92.4687 2314.34 91.2187 2318.28 88.7812L2323.06 97.4062C2317.37 101.344 2311.12 103.312 2304.31 103.312ZM2291.09 69.75H2313.03C2313.03 62.8125 2310.34 58.9062 2304.96 58.0312C2304.28 57.9062 2303.56 57.8437 2302.81 57.8437C2298.5 57.8437 2295.21 59.8125 2292.96 63.75C2292.03 65.5 2291.4 67.5 2291.09 69.75ZM2336.8 102V48.2812H2348.33L2349.27 57.75H2349.65C2352.9 51.9375 2356.99 48.4375 2361.93 47.25C2362.99 47 2363.99 46.875 2364.93 46.875C2367.24 46.875 2369.36 47.2812 2371.3 48.0937L2368.77 60.2812C2366.77 59.6562 2364.9 59.3437 2363.15 59.3437C2358.83 59.3437 2355.27 61.7187 2352.46 66.4687C2351.83 67.5312 2351.27 68.6875 2350.77 69.9375V102H2336.8ZM2401.64 103.312C2393.08 103.312 2386.36 100.312 2381.48 94.3125C2377.42 89.25 2375.39 82.875 2375.39 75.1875C2375.39 65.625 2378.7 58.1875 2385.33 52.875C2390.33 48.875 2396.17 46.875 2402.86 46.875C2408.67 46.9375 2413.89 48.9375 2418.51 52.875L2411.76 61.9687C2408.95 59.5937 2406.2 58.4062 2403.51 58.4062C2398.26 58.4062 2394.42 60.7812 2391.98 65.5312C2390.55 68.2812 2389.83 71.5 2389.83 75.1875C2389.83 81.9375 2391.92 86.75 2396.11 89.625C2398.23 91.0625 2400.58 91.7812 2403.14 91.7812C2406.76 91.7187 2410.26 90.2812 2413.64 87.4687L2419.17 96.8437C2414.3 101.156 2408.45 103.312 2401.64 103.312ZM2429.45 102V48.2812H2443.41V102H2429.45ZM2436.57 39.5625C2433.01 39.5625 2430.51 38.1875 2429.07 35.4375C2428.45 34.3125 2428.13 33.125 2428.13 31.875C2428.13 28.5625 2429.66 26.2812 2432.73 25.0312C2433.91 24.5312 2435.2 24.2812 2436.57 24.2812C2440.2 24.2812 2442.73 25.6562 2444.16 28.4062C2444.66 29.4687 2444.91 30.625 2444.91 31.875C2444.91 35 2443.48 37.25 2440.6 38.625C2439.35 39.25 2438.01 39.5625 2436.57 39.5625ZM2471.97 103.312C2466.03 103.312 2461.6 101.062 2458.66 96.5625C2456.91 93.875 2456.03 90.8125 2456.03 87.375C2456.03 79.875 2460.31 74.5312 2468.88 71.3437C2473.5 69.5937 2479.53 68.3125 2486.97 67.5C2486.6 61.375 2483.56 58.2812 2477.88 58.2187C2473.75 58.2812 2468.81 59.9687 2463.06 63.2812L2458 54C2465.75 49.25 2473.22 46.875 2480.41 46.875C2492.41 46.875 2499.19 53 2500.75 65.25C2500.94 66.9375 2501.03 68.7187 2501.03 70.5937V102H2489.6L2488.47 96.2812H2488.19C2482.69 100.969 2477.28 103.312 2471.97 103.312ZM2476.56 92.3437C2480 92.2812 2483.47 90.5 2486.97 87V76.2187C2475.72 78.0312 2469.91 81.375 2469.53 86.25C2469.53 89.9375 2471.5 91.9375 2475.44 92.25C2475.81 92.3125 2476.19 92.3437 2476.56 92.3437ZM2528.84 103.312C2520.09 103.187 2515.68 97.7187 2515.62 86.9062V25.4062H2529.59V87.5625C2529.84 90.125 2530.81 91.5312 2532.5 91.7812C2533.25 91.7812 2533.9 91.7187 2534.46 91.5937L2536.15 102.094C2534.15 102.906 2531.71 103.312 2528.84 103.312Z" fill="#363A35"/>
<path d="M2654.61 103.312C2636.24 103.187 2627.02 92.0937 2626.96 70.0312V30.9375H2641.21V71.25C2641.21 82.5625 2644.4 89 2650.77 90.5625C2651.96 90.875 2653.24 91.0312 2654.61 91.0312C2661.99 91.0312 2666.4 86.9062 2667.83 78.6562C2668.21 76.4687 2668.4 74 2668.4 71.25V30.9375H2682.08V70.0312C2682.08 91.5312 2673.49 102.625 2656.3 103.312C2655.74 103.312 2655.18 103.312 2654.61 103.312ZM2699.2 102V30.9375H2713.45V102H2699.2ZM2758.23 103.312C2739.85 103.187 2730.63 92.0937 2730.57 70.0312V30.9375H2744.82V71.25C2744.82 82.5625 2748.01 89 2754.38 90.5625C2755.57 90.875 2756.85 91.0312 2758.23 91.0312C2765.6 91.0312 2770.01 86.9062 2771.45 78.6562C2771.82 76.4687 2772.01 74 2772.01 71.25V30.9375H2785.7V70.0312C2785.7 91.5312 2777.1 102.625 2759.91 103.312C2759.35 103.312 2758.79 103.312 2758.23 103.312ZM2795.41 102L2815.38 65.3437L2796.72 30.9375H2812.47L2819.5 45.5625C2822.5 51.875 2824.28 55.625 2824.85 56.8125H2825.31C2826.63 53.375 2828.19 49.625 2830 45.5625L2836.75 30.9375H2851.66L2833 66L2852.97 102H2837.22L2829.25 86.25C2828.75 85.25 2828.03 83.75 2827.1 81.75C2825.6 78.625 2824.44 76.2187 2823.63 74.5312H2823.25C2821.81 78.0312 2820.1 81.9375 2818.1 86.25L2810.5 102H2795.41Z" fill="#363A35"/>
<path d="M2972.3 103.312C2962.61 103.312 2954.74 99.9687 2948.68 93.2812C2942.74 86.5937 2939.77 77.75 2939.77 66.75C2939.77 54.625 2943.49 45.0625 2950.93 38.0625C2956.99 32.4375 2964.3 29.625 2972.86 29.625C2980.68 29.625 2987.49 32.5312 2993.3 38.3437C2993.43 38.4687 2993.55 38.5937 2993.68 38.7187L2986.18 47.7187C2982.11 43.7812 2977.77 41.8125 2973.15 41.8125C2966.77 41.8125 2961.83 44.625 2958.33 50.25C2955.65 54.5625 2954.3 59.9062 2954.3 66.2812C2954.3 76.4062 2957.08 83.5625 2962.65 87.75C2965.58 89.9375 2968.99 91.0312 2972.86 91.0312C2978.3 90.9687 2983.18 88.6562 2987.49 84.0937L2994.99 92.9062C2989.05 99.8437 2981.49 103.312 2972.3 103.312ZM3027.86 103.312C3020.61 103.312 3014.48 100.719 3009.48 95.5312C3004.48 90.2187 3001.98 83.4375 3001.98 75.1875C3001.98 65.6875 3005.14 58.25 3011.45 52.875C3016.2 48.875 3021.67 46.875 3027.86 46.875C3035.11 46.875 3041.2 49.5 3046.14 54.75C3051.14 60.0625 3053.64 66.875 3053.64 75.1875C3053.64 84.625 3050.48 92.0312 3044.17 97.4062C3039.48 101.344 3034.05 103.312 3027.86 103.312ZM3027.86 91.7812C3032.98 91.7812 3036.42 88.875 3038.17 83.0625C3038.86 80.75 3039.2 78.125 3039.2 75.1875C3039.2 67.125 3037.01 61.9062 3032.64 59.5312C3031.2 58.7812 3029.61 58.4062 3027.86 58.4062C3022.8 58.4062 3019.36 61.2187 3017.55 66.8437C3016.8 69.2812 3016.42 72.0625 3016.42 75.1875C3016.42 83.0625 3018.58 88.1875 3022.89 90.5625C3024.39 91.375 3026.05 91.7812 3027.86 91.7812ZM3065.6 102V48.2812H3077.13L3078.07 55.4062H3078.45C3083.32 50.2812 3088.16 47.4687 3092.98 46.9687C3093.66 46.9062 3094.32 46.875 3094.95 46.875C3102.01 46.9375 3106.95 50.0937 3109.76 56.3437C3114.7 51.0937 3119.26 48.0625 3123.45 47.25C3124.57 47 3125.7 46.875 3126.82 46.875C3136.26 46.875 3141.7 52.1875 3143.13 62.8125C3143.38 64.625 3143.51 66.5312 3143.51 68.5312V102H3129.45V70.2187C3129.45 63.8437 3127.76 60.1875 3124.38 59.25C3123.63 59.0625 3122.82 58.9687 3121.95 58.9687C3118.82 59.0312 3115.35 61.0625 3111.54 65.0625V102H3097.48V70.2187C3097.48 63.8437 3095.79 60.1875 3092.41 59.25C3091.66 59.0625 3090.85 58.9687 3089.98 58.9687C3086.85 59.0312 3083.38 61.0625 3079.57 65.0625V102H3065.6ZM3158.28 102V48.2812H3169.81L3170.75 55.4062H3171.13C3176 50.2812 3180.85 47.4687 3185.66 46.9687C3186.35 46.9062 3187 46.875 3187.63 46.875C3194.69 46.9375 3199.63 50.0937 3202.44 56.3437C3207.38 51.0937 3211.94 48.0625 3216.13 47.25C3217.25 47 3218.38 46.875 3219.5 46.875C3228.94 46.875 3234.38 52.1875 3235.81 62.8125C3236.06 64.625 3236.19 66.5312 3236.19 68.5312V102H3222.13V70.2187C3222.13 63.8437 3220.44 60.1875 3217.06 59.25C3216.31 59.0625 3215.5 58.9687 3214.63 58.9687C3211.5 59.0312 3208.03 61.0625 3204.22 65.0625V102H3190.16V70.2187C3190.16 63.8437 3188.47 60.1875 3185.1 59.25C3184.35 59.0625 3183.53 58.9687 3182.66 58.9687C3179.53 59.0312 3176.06 61.0625 3172.25 65.0625V102H3158.28ZM3274.31 103.312C3265.87 103.312 3259.15 100.406 3254.15 94.5937C3249.78 89.4687 3247.59 83 3247.59 75.1875C3247.59 66 3250.59 58.6562 3256.59 53.1562C3261.28 48.9687 3266.62 46.875 3272.62 46.875C3281.56 46.875 3287.96 50.5312 3291.84 57.8437C3294.03 62.0312 3295.12 66.9687 3295.12 72.6562C3295.12 75.4687 3294.9 77.5937 3294.46 79.0312H3261.28C3262.09 85.5937 3265.21 89.8125 3270.65 91.6875C3272.34 92.25 3274.18 92.5312 3276.18 92.5312C3280.31 92.4687 3284.34 91.2187 3288.28 88.7812L3293.06 97.4062C3287.37 101.344 3281.12 103.312 3274.31 103.312ZM3261.09 69.75H3283.03C3283.03 62.8125 3280.34 58.9062 3274.96 58.0312C3274.28 57.9062 3273.56 57.8437 3272.81 57.8437C3268.5 57.8437 3265.21 59.8125 3262.96 63.75C3262.03 65.5 3261.4 67.5 3261.09 69.75ZM3306.8 102V48.2812H3318.33L3319.27 57.75H3319.65C3322.9 51.9375 3326.99 48.4375 3331.93 47.25C3332.99 47 3333.99 46.875 3334.93 46.875C3337.24 46.875 3339.36 47.2812 3341.3 48.0937L3338.77 60.2812C3336.77 59.6562 3334.9 59.3437 3333.15 59.3437C3328.83 59.3437 3325.27 61.7187 3322.46 66.4687C3321.83 67.5312 3321.27 68.6875 3320.77 69.9375V102H3306.8ZM3371.64 103.312C3363.08 103.312 3356.36 100.312 3351.48 94.3125C3347.42 89.25 3345.39 82.875 3345.39 75.1875C3345.39 65.625 3348.7 58.1875 3355.33 52.875C3360.33 48.875 3366.17 46.875 3372.86 46.875C3378.67 46.9375 3383.89 48.9375 3388.51 52.875L3381.76 61.9687C3378.95 59.5937 3376.2 58.4062 3373.51 58.4062C3368.26 58.4062 3364.42 60.7812 3361.98 65.5312C3360.55 68.2812 3359.83 71.5 3359.83 75.1875C3359.83 81.9375 3361.92 86.75 3366.11 89.625C3368.23 91.0625 3370.58 91.7812 3373.14 91.7812C3376.76 91.7187 3380.26 90.2812 3383.64 87.4687L3389.17 96.8437C3384.3 101.156 3378.45 103.312 3371.64 103.312ZM3399.45 102V48.2812H3413.41V102H3399.45ZM3406.57 39.5625C3403.01 39.5625 3400.51 38.1875 3399.07 35.4375C3398.45 34.3125 3398.13 33.125 3398.13 31.875C3398.13 28.5625 3399.66 26.2812 3402.73 25.0312C3403.91 24.5312 3405.2 24.2812 3406.57 24.2812C3410.2 24.2812 3412.73 25.6562 3414.16 28.4062C3414.66 29.4687 3414.91 30.625 3414.91 31.875C3414.91 35 3413.48 37.25 3410.6 38.625C3409.35 39.25 3408.01 39.5625 3406.57 39.5625ZM3441.97 103.312C3436.03 103.312 3431.6 101.062 3428.66 96.5625C3426.91 93.875 3426.03 90.8125 3426.03 87.375C3426.03 79.875 3430.31 74.5312 3438.88 71.3437C3443.5 69.5937 3449.53 68.3125 3456.97 67.5C3456.6 61.375 3453.56 58.2812 3447.88 58.2187C3443.75 58.2812 3438.81 59.9687 3433.06 63.2812L3428 54C3435.75 49.25 3443.22 46.875 3450.41 46.875C3462.41 46.875 3469.19 53 3470.75 65.25C3470.94 66.9375 3471.03 68.7187 3471.03 70.5937V102H3459.6L3458.47 96.2812H3458.19C3452.69 100.969 3447.28 103.312 3441.97 103.312ZM3446.56 92.3437C3450 92.2812 3453.47 90.5 3456.97 87V76.2187C3445.72 78.0312 3439.91 81.375 3439.53 86.25C3439.53 89.9375 3441.5 91.9375 3445.44 92.25C3445.81 92.3125 3446.19 92.3437 3446.56 92.3437ZM3498.84 103.312C3490.09 103.187 3485.68 97.7187 3485.62 86.9062V25.4062H3499.59V87.5625C3499.84 90.125 3500.81 91.5312 3502.5 91.7812C3503.25 91.7812 3503.9 91.7187 3504.46 91.5937L3506.15 102.094C3504.15 102.906 3501.71 103.312 3498.84 103.312Z" fill="#363A35"/>
<path d="M3624.61 103.312C3606.24 103.187 3597.02 92.0937 3596.96 70.0312V30.9375H3611.21V71.25C3611.21 82.5625 3614.4 89 3620.77 90.5625C3621.96 90.875 3623.24 91.0312 3624.61 91.0312C3631.99 91.0312 3636.4 86.9062 3637.83 78.6562C3638.21 76.4687 3638.4 74 3638.4 71.25V30.9375H3652.08V70.0312C3652.08 91.5312 3643.49 102.625 3626.3 103.312C3625.74 103.312 3625.18 103.312 3624.61 103.312ZM3669.2 102V30.9375H3683.45V102H3669.2ZM3728.23 103.312C3709.85 103.187 3700.63 92.0937 3700.57 70.0312V30.9375H3714.82V71.25C3714.82 82.5625 3718.01 89 3724.38 90.5625C3725.57 90.875 3726.85 91.0312 3728.23 91.0312C3735.6 91.0312 3740.01 86.9062 3741.45 78.6562C3741.82 76.4687 3742.01 74 3742.01 71.25V30.9375H3755.7V70.0312C3755.7 91.5312 3747.1 102.625 3729.91 103.312C3729.35 103.312 3728.79 103.312 3728.23 103.312ZM3765.41 102L3785.38 65.3437L3766.72 30.9375H3782.47L3789.5 45.5625C3792.5 51.875 3794.28 55.625 3794.85 56.8125H3795.31C3796.63 53.375 3798.19 49.625 3800 45.5625L3806.75 30.9375H3821.66L3803 66L3822.97 102H3807.22L3799.25 86.25C3798.75 85.25 3798.03 83.75 3797.1 81.75C3795.6 78.625 3794.44 76.2187 3793.63 74.5312H3793.25C3791.81 78.0312 3790.1 81.9375 3788.1 86.25L3780.5 102H3765.41Z" fill="#363A35"/>
</svg>
