<svg width="3337" height="132" viewBox="0 0 3337 132" fill="none" xmlns="http://www.w3.org/2000/svg">
<rect width="3336" height="131" transform="translate(0.61499 0.401367)" fill="white"/>
<path d="M33.3337 102.401V31.3389H52.8337C68.7087 31.3389 79.2712 37.0576 84.5212 48.4951C86.8337 53.5576 87.99 59.5889 87.99 66.5889C87.99 81.7764 82.865 92.2451 72.615 97.9951C67.3025 100.933 60.9587 102.401 53.5837 102.401H33.3337ZM47.5837 90.9639H51.99C66.24 90.8389 73.3962 82.7139 73.4587 66.5889C73.0212 50.9014 65.865 42.9326 51.99 42.6826H47.5837V90.9639ZM124.234 103.714C115.796 103.714 109.077 100.808 104.077 94.9951C99.7025 89.8701 97.515 83.4014 97.515 75.5889C97.515 66.4014 100.515 59.0576 106.515 53.5576C111.202 49.3701 116.546 47.2764 122.546 47.2764C131.484 47.2764 137.89 50.9326 141.765 58.2451C143.952 62.4326 145.046 67.3701 145.046 73.0576C145.046 75.8701 144.827 77.9951 144.39 79.4326H111.202C112.015 85.9951 115.14 90.2139 120.577 92.0889C122.265 92.6514 124.109 92.9326 126.109 92.9326C130.234 92.8701 134.265 91.6201 138.202 89.1826L142.984 97.8076C137.296 101.745 131.046 103.714 124.234 103.714ZM111.015 70.1514H132.952C132.952 63.2139 130.265 59.3076 124.89 58.4326C124.202 58.3076 123.484 58.2451 122.734 58.2451C118.421 58.2451 115.14 60.2139 112.89 64.1514C111.952 65.9014 111.327 67.9014 111.015 70.1514ZM172.102 103.714C165.852 103.714 159.852 101.808 154.102 97.9951C153.227 97.3701 152.415 96.7451 151.665 96.1201L158.04 87.3076C163.102 91.2451 167.915 93.2139 172.477 93.2139C177.29 92.7139 179.884 90.8076 180.259 87.4951C180.259 85.3076 178.321 83.3389 174.446 81.5889C173.946 81.4014 172.134 80.6826 169.009 79.4326C161.321 76.4951 156.665 72.7764 155.04 68.2764C154.54 66.8389 154.29 65.3389 154.29 63.7764C154.29 57.9014 156.821 53.4326 161.884 50.3701C165.384 48.3076 169.509 47.2764 174.259 47.2764C180.634 47.3389 186.759 49.5576 192.634 53.9326L186.259 62.4639C181.884 59.4014 178.009 57.8701 174.634 57.8701C170.196 58.1826 167.852 59.9014 167.602 63.0264C167.602 65.0889 169.321 66.8701 172.759 68.3701C173.009 68.4326 174.915 69.1514 178.477 70.5264C184.477 72.8389 188.54 75.3389 190.665 78.0264C192.54 80.4639 193.477 83.3701 193.477 86.7451C193.477 92.7451 190.915 97.3076 185.79 100.433C182.102 102.62 177.54 103.714 172.102 103.714ZM204.315 102.401V48.6826H218.284V102.401H204.315ZM211.44 39.9639C207.877 39.9639 205.377 38.5889 203.94 35.8389C203.315 34.7139 203.002 33.5264 203.002 32.2764C203.002 28.9639 204.534 26.6826 207.596 25.4326C208.784 24.9326 210.065 24.6826 211.44 24.6826C215.065 24.6826 217.596 26.0576 219.034 28.8076C219.534 29.8701 219.784 31.0264 219.784 32.2764C219.784 35.4014 218.346 37.6514 215.471 39.0264C214.221 39.6514 212.877 39.9639 211.44 39.9639ZM252.559 125.745C242.684 125.745 235.965 123.464 232.402 118.901C230.84 116.839 230.059 114.495 230.059 111.87C230.121 107.433 232.684 103.745 237.746 100.808V100.245C234.496 98.1826 232.871 95.1826 232.871 91.2451C232.996 87.4326 234.965 84.0889 238.777 81.2139V80.8389C234.902 77.9639 232.59 74.1826 231.84 69.4951C231.715 68.5576 231.652 67.6514 231.652 66.7764C231.652 59.5889 234.621 54.2139 240.559 50.6514C244.309 48.4014 248.59 47.2764 253.402 47.2764C255.965 47.2764 258.652 47.7451 261.465 48.6826H280.871V58.9951H271.59C273.277 61.1826 274.121 63.9014 274.121 67.1514C274.121 74.5264 271.027 79.8076 264.84 82.9951C261.527 84.6201 257.715 85.4326 253.402 85.4326C251.465 85.4326 249.152 84.9951 246.465 84.1201C244.965 85.4326 244.215 86.9951 244.215 88.8076C244.215 91.1201 245.809 92.5264 248.996 93.0264C250.059 93.1514 251.277 93.2139 252.652 93.2139H261.746C274.996 93.2764 281.652 97.7451 281.715 106.62C281.715 112.62 278.684 117.433 272.621 121.058C267.246 124.183 260.559 125.745 252.559 125.745ZM253.402 76.7139C256.965 76.7139 259.434 75.0576 260.809 71.7451C261.434 70.2451 261.746 68.5889 261.746 66.7764C261.746 61.9639 260.027 58.8701 256.59 57.4951C255.59 57.1201 254.527 56.9326 253.402 56.9326C249.715 56.9326 247.184 58.6201 245.809 61.9951C245.246 63.4326 244.965 65.0264 244.965 66.7764C244.965 71.4014 246.621 74.4639 249.934 75.9639C251.059 76.4639 252.215 76.7139 253.402 76.7139ZM254.621 116.839C260.246 116.839 264.309 115.464 266.809 112.714C267.809 111.526 268.309 110.308 268.309 109.058C268.309 106.37 266.434 104.808 262.684 104.37C261.684 104.245 260.559 104.183 259.309 104.183H252.84C249.84 104.183 247.34 103.933 245.34 103.433C243.027 105.308 241.84 107.401 241.777 109.714C241.777 112.964 244.059 115.12 248.621 116.183C250.434 116.62 252.434 116.839 254.621 116.839ZM291.052 102.401V48.6826H302.584L303.521 55.7139H303.896C309.709 50.1514 315.521 47.3389 321.334 47.2764C332.396 47.4014 337.959 54.6201 338.021 68.9326V102.401H323.865V70.6201C323.865 64.4326 322.302 60.8076 319.177 59.7451C318.302 59.4951 317.334 59.3701 316.271 59.3701C313.271 59.3701 310.209 60.7764 307.084 63.5889C306.459 64.1514 305.771 64.7764 305.021 65.4639V102.401H291.052ZM389.884 102.401V43.1514H369.915V31.3389H424.196V43.1514H404.04V102.401H389.884ZM434.752 102.401V25.8076H448.721V45.1201L448.159 55.1514C453.971 50.0264 459.596 47.4014 465.034 47.2764C476.096 47.4014 481.659 54.6201 481.721 68.9326V102.401H467.565V70.6201C467.565 64.4326 466.002 60.8076 462.877 59.7451C462.002 59.4951 461.034 59.3701 459.971 59.3701C456.971 59.3701 453.909 60.7764 450.784 63.5889C450.159 64.1514 449.471 64.7764 448.721 65.4639V102.401H434.752ZM496.309 102.401V48.6826H510.277V102.401H496.309ZM503.434 39.9639C499.871 39.9639 497.371 38.5889 495.934 35.8389C495.309 34.7139 494.996 33.5264 494.996 32.2764C494.996 28.9639 496.527 26.6826 499.59 25.4326C500.777 24.9326 502.059 24.6826 503.434 24.6826C507.059 24.6826 509.59 26.0576 511.027 28.8076C511.527 29.8701 511.777 31.0264 511.777 32.2764C511.777 35.4014 510.34 37.6514 507.465 39.0264C506.215 39.6514 504.871 39.9639 503.434 39.9639ZM525.615 102.401V48.6826H537.146L538.084 55.7139H538.459C544.271 50.1514 550.084 47.3389 555.896 47.2764C566.959 47.4014 572.521 54.6201 572.584 68.9326V102.401H558.427V70.6201C558.427 64.4326 556.865 60.8076 553.74 59.7451C552.865 59.4951 551.896 59.3701 550.834 59.3701C547.834 59.3701 544.771 60.7764 541.646 63.5889C541.021 64.1514 540.334 64.7764 539.584 65.4639V102.401H525.615ZM587.265 102.401V25.8076H600.952V71.8389H601.327L619.984 48.6826H635.359L616.702 70.6201L637.046 102.401H621.859L608.734 80.0889L600.952 88.9951V102.401H587.265ZM645.446 102.401V48.6826H659.415V102.401H645.446ZM652.571 39.9639C649.009 39.9639 646.509 38.5889 645.071 35.8389C644.446 34.7139 644.134 33.5264 644.134 32.2764C644.134 28.9639 645.665 26.6826 648.727 25.4326C649.915 24.9326 651.196 24.6826 652.571 24.6826C656.196 24.6826 658.727 26.0576 660.165 28.8076C660.665 29.8701 660.915 31.0264 660.915 32.2764C660.915 35.4014 659.477 37.6514 656.602 39.0264C655.352 39.6514 654.009 39.9639 652.571 39.9639ZM674.752 102.401V48.6826H686.284L687.221 55.7139H687.596C693.409 50.1514 699.221 47.3389 705.034 47.2764C716.096 47.4014 721.659 54.6201 721.721 68.9326V102.401H707.565V70.6201C707.565 64.4326 706.002 60.8076 702.877 59.7451C702.002 59.4951 701.034 59.3701 699.971 59.3701C696.971 59.3701 693.909 60.7764 690.784 63.5889C690.159 64.1514 689.471 64.7764 688.721 65.4639V102.401H674.752ZM755.34 125.745C745.465 125.745 738.746 123.464 735.184 118.901C733.621 116.839 732.84 114.495 732.84 111.87C732.902 107.433 735.465 103.745 740.527 100.808V100.245C737.277 98.1826 735.652 95.1826 735.652 91.2451C735.777 87.4326 737.746 84.0889 741.559 81.2139V80.8389C737.684 77.9639 735.371 74.1826 734.621 69.4951C734.496 68.5576 734.434 67.6514 734.434 66.7764C734.434 59.5889 737.402 54.2139 743.34 50.6514C747.09 48.4014 751.371 47.2764 756.184 47.2764C758.746 47.2764 761.434 47.7451 764.246 48.6826H783.652V58.9951H774.371C776.059 61.1826 776.902 63.9014 776.902 67.1514C776.902 74.5264 773.809 79.8076 767.621 82.9951C764.309 84.6201 760.496 85.4326 756.184 85.4326C754.246 85.4326 751.934 84.9951 749.246 84.1201C747.746 85.4326 746.996 86.9951 746.996 88.8076C746.996 91.1201 748.59 92.5264 751.777 93.0264C752.84 93.1514 754.059 93.2139 755.434 93.2139H764.527C777.777 93.2764 784.434 97.7451 784.496 106.62C784.496 112.62 781.465 117.433 775.402 121.058C770.027 124.183 763.34 125.745 755.34 125.745ZM756.184 76.7139C759.746 76.7139 762.215 75.0576 763.59 71.7451C764.215 70.2451 764.527 68.5889 764.527 66.7764C764.527 61.9639 762.809 58.8701 759.371 57.4951C758.371 57.1201 757.309 56.9326 756.184 56.9326C752.496 56.9326 749.965 58.6201 748.59 61.9951C748.027 63.4326 747.746 65.0264 747.746 66.7764C747.746 71.4014 749.402 74.4639 752.715 75.9639C753.84 76.4639 754.996 76.7139 756.184 76.7139ZM757.402 116.839C763.027 116.839 767.09 115.464 769.59 112.714C770.59 111.526 771.09 110.308 771.09 109.058C771.09 106.37 769.215 104.808 765.465 104.37C764.465 104.245 763.34 104.183 762.09 104.183H755.621C752.621 104.183 750.121 103.933 748.121 103.433C745.809 105.308 744.621 107.401 744.559 109.714C744.559 112.964 746.84 115.12 751.402 116.183C753.215 116.62 755.215 116.839 757.402 116.839Z" fill="#363A35"/>
<path d="M875.334 102.401V31.3389H894.834C910.709 31.3389 921.271 37.0576 926.521 48.4951C928.834 53.5576 929.99 59.5889 929.99 66.5889C929.99 81.7764 924.865 92.2451 914.615 97.9951C909.302 100.933 902.959 102.401 895.584 102.401H875.334ZM889.584 90.9639H893.99C908.24 90.8389 915.396 82.7139 915.459 66.5889C915.021 50.9014 907.865 42.9326 893.99 42.6826H889.584V90.9639ZM966.234 103.714C957.796 103.714 951.077 100.808 946.077 94.9951C941.702 89.8701 939.515 83.4014 939.515 75.5889C939.515 66.4014 942.515 59.0576 948.515 53.5576C953.202 49.3701 958.546 47.2764 964.546 47.2764C973.484 47.2764 979.89 50.9326 983.765 58.2451C985.952 62.4326 987.046 67.3701 987.046 73.0576C987.046 75.8701 986.827 77.9951 986.39 79.4326H953.202C954.015 85.9951 957.14 90.2139 962.577 92.0889C964.265 92.6514 966.109 92.9326 968.109 92.9326C972.234 92.8701 976.265 91.6201 980.202 89.1826L984.984 97.8076C979.296 101.745 973.046 103.714 966.234 103.714ZM953.015 70.1514H974.952C974.952 63.2139 972.265 59.3076 966.89 58.4326C966.202 58.3076 965.484 58.2451 964.734 58.2451C960.421 58.2451 957.14 60.2139 954.89 64.1514C953.952 65.9014 953.327 67.9014 953.015 70.1514ZM1014.1 103.714C1007.85 103.714 1001.85 101.808 996.102 97.9951C995.227 97.3701 994.415 96.7451 993.665 96.1201L1000.04 87.3076C1005.1 91.2451 1009.91 93.2139 1014.48 93.2139C1019.29 92.7139 1021.88 90.8076 1022.26 87.4951C1022.26 85.3076 1020.32 83.3389 1016.45 81.5889C1015.95 81.4014 1014.13 80.6826 1011.01 79.4326C1003.32 76.4951 998.665 72.7764 997.04 68.2764C996.54 66.8389 996.29 65.3389 996.29 63.7764C996.29 57.9014 998.821 53.4326 1003.88 50.3701C1007.38 48.3076 1011.51 47.2764 1016.26 47.2764C1022.63 47.3389 1028.76 49.5576 1034.63 53.9326L1028.26 62.4639C1023.88 59.4014 1020.01 57.8701 1016.63 57.8701C1012.2 58.1826 1009.85 59.9014 1009.6 63.0264C1009.6 65.0889 1011.32 66.8701 1014.76 68.3701C1015.01 68.4326 1016.91 69.1514 1020.48 70.5264C1026.48 72.8389 1030.54 75.3389 1032.66 78.0264C1034.54 80.4639 1035.48 83.3701 1035.48 86.7451C1035.48 92.7451 1032.91 97.3076 1027.79 100.433C1024.1 102.62 1019.54 103.714 1014.1 103.714ZM1046.31 102.401V48.6826H1060.28V102.401H1046.31ZM1053.44 39.9639C1049.88 39.9639 1047.38 38.5889 1045.94 35.8389C1045.31 34.7139 1045 33.5264 1045 32.2764C1045 28.9639 1046.53 26.6826 1049.6 25.4326C1050.78 24.9326 1052.06 24.6826 1053.44 24.6826C1057.06 24.6826 1059.6 26.0576 1061.03 28.8076C1061.53 29.8701 1061.78 31.0264 1061.78 32.2764C1061.78 35.4014 1060.35 37.6514 1057.47 39.0264C1056.22 39.6514 1054.88 39.9639 1053.44 39.9639ZM1094.56 125.745C1084.68 125.745 1077.96 123.464 1074.4 118.901C1072.84 116.839 1072.06 114.495 1072.06 111.87C1072.12 107.433 1074.68 103.745 1079.75 100.808V100.245C1076.5 98.1826 1074.87 95.1826 1074.87 91.2451C1075 87.4326 1076.96 84.0889 1080.78 81.2139V80.8389C1076.9 77.9639 1074.59 74.1826 1073.84 69.4951C1073.71 68.5576 1073.65 67.6514 1073.65 66.7764C1073.65 59.5889 1076.62 54.2139 1082.56 50.6514C1086.31 48.4014 1090.59 47.2764 1095.4 47.2764C1097.96 47.2764 1100.65 47.7451 1103.46 48.6826H1122.87V58.9951H1113.59C1115.28 61.1826 1116.12 63.9014 1116.12 67.1514C1116.12 74.5264 1113.03 79.8076 1106.84 82.9951C1103.53 84.6201 1099.71 85.4326 1095.4 85.4326C1093.46 85.4326 1091.15 84.9951 1088.46 84.1201C1086.96 85.4326 1086.21 86.9951 1086.21 88.8076C1086.21 91.1201 1087.81 92.5264 1091 93.0264C1092.06 93.1514 1093.28 93.2139 1094.65 93.2139H1103.75C1117 93.2764 1123.65 97.7451 1123.71 106.62C1123.71 112.62 1120.68 117.433 1114.62 121.058C1109.25 124.183 1102.56 125.745 1094.56 125.745ZM1095.4 76.7139C1098.96 76.7139 1101.43 75.0576 1102.81 71.7451C1103.43 70.2451 1103.75 68.5889 1103.75 66.7764C1103.75 61.9639 1102.03 58.8701 1098.59 57.4951C1097.59 57.1201 1096.53 56.9326 1095.4 56.9326C1091.71 56.9326 1089.18 58.6201 1087.81 61.9951C1087.25 63.4326 1086.96 65.0264 1086.96 66.7764C1086.96 71.4014 1088.62 74.4639 1091.93 75.9639C1093.06 76.4639 1094.21 76.7139 1095.4 76.7139ZM1096.62 116.839C1102.25 116.839 1106.31 115.464 1108.81 112.714C1109.81 111.526 1110.31 110.308 1110.31 109.058C1110.31 106.37 1108.43 104.808 1104.68 104.37C1103.68 104.245 1102.56 104.183 1101.31 104.183H1094.84C1091.84 104.183 1089.34 103.933 1087.34 103.433C1085.03 105.308 1083.84 107.401 1083.78 109.714C1083.78 112.964 1086.06 115.12 1090.62 116.183C1092.43 116.62 1094.43 116.839 1096.62 116.839ZM1133.05 102.401V48.6826H1144.58L1145.52 55.7139H1145.9C1151.71 50.1514 1157.52 47.3389 1163.33 47.2764C1174.4 47.4014 1179.96 54.6201 1180.02 68.9326V102.401H1165.86V70.6201C1165.86 64.4326 1164.3 60.8076 1161.18 59.7451C1160.3 59.4951 1159.33 59.3701 1158.27 59.3701C1155.27 59.3701 1152.21 60.7764 1149.08 63.5889C1148.46 64.1514 1147.77 64.7764 1147.02 65.4639V102.401H1133.05ZM1231.88 102.401V43.1514H1211.91V31.3389H1266.2V43.1514H1246.04V102.401H1231.88ZM1276.75 102.401V25.8076H1290.72V45.1201L1290.16 55.1514C1295.97 50.0264 1301.6 47.4014 1307.03 47.2764C1318.1 47.4014 1323.66 54.6201 1323.72 68.9326V102.401H1309.56V70.6201C1309.56 64.4326 1308 60.8076 1304.88 59.7451C1304 59.4951 1303.03 59.3701 1301.97 59.3701C1298.97 59.3701 1295.91 60.7764 1292.78 63.5889C1292.16 64.1514 1291.47 64.7764 1290.72 65.4639V102.401H1276.75ZM1338.31 102.401V48.6826H1352.28V102.401H1338.31ZM1345.43 39.9639C1341.87 39.9639 1339.37 38.5889 1337.93 35.8389C1337.31 34.7139 1337 33.5264 1337 32.2764C1337 28.9639 1338.53 26.6826 1341.59 25.4326C1342.78 24.9326 1344.06 24.6826 1345.43 24.6826C1349.06 24.6826 1351.59 26.0576 1353.03 28.8076C1353.53 29.8701 1353.78 31.0264 1353.78 32.2764C1353.78 35.4014 1352.34 37.6514 1349.46 39.0264C1348.21 39.6514 1346.87 39.9639 1345.43 39.9639ZM1367.61 102.401V48.6826H1379.15L1380.08 55.7139H1380.46C1386.27 50.1514 1392.08 47.3389 1397.9 47.2764C1408.96 47.4014 1414.52 54.6201 1414.58 68.9326V102.401H1400.43V70.6201C1400.43 64.4326 1398.86 60.8076 1395.74 59.7451C1394.86 59.4951 1393.9 59.3701 1392.83 59.3701C1389.83 59.3701 1386.77 60.7764 1383.65 63.5889C1383.02 64.1514 1382.33 64.7764 1381.58 65.4639V102.401H1367.61ZM1429.26 102.401V25.8076H1442.95V71.8389H1443.33L1461.98 48.6826H1477.36L1458.7 70.6201L1479.05 102.401H1463.86L1450.73 80.0889L1442.95 88.9951V102.401H1429.26ZM1487.45 102.401V48.6826H1501.41V102.401H1487.45ZM1494.57 39.9639C1491.01 39.9639 1488.51 38.5889 1487.07 35.8389C1486.45 34.7139 1486.13 33.5264 1486.13 32.2764C1486.13 28.9639 1487.66 26.6826 1490.73 25.4326C1491.91 24.9326 1493.2 24.6826 1494.57 24.6826C1498.2 24.6826 1500.73 26.0576 1502.16 28.8076C1502.66 29.8701 1502.91 31.0264 1502.91 32.2764C1502.91 35.4014 1501.48 37.6514 1498.6 39.0264C1497.35 39.6514 1496.01 39.9639 1494.57 39.9639ZM1516.75 102.401V48.6826H1528.28L1529.22 55.7139H1529.6C1535.41 50.1514 1541.22 47.3389 1547.03 47.2764C1558.1 47.4014 1563.66 54.6201 1563.72 68.9326V102.401H1549.56V70.6201C1549.56 64.4326 1548 60.8076 1544.88 59.7451C1544 59.4951 1543.03 59.3701 1541.97 59.3701C1538.97 59.3701 1535.91 60.7764 1532.78 63.5889C1532.16 64.1514 1531.47 64.7764 1530.72 65.4639V102.401H1516.75ZM1597.34 125.745C1587.46 125.745 1580.75 123.464 1577.18 118.901C1575.62 116.839 1574.84 114.495 1574.84 111.87C1574.9 107.433 1577.46 103.745 1582.53 100.808V100.245C1579.28 98.1826 1577.65 95.1826 1577.65 91.2451C1577.78 87.4326 1579.75 84.0889 1583.56 81.2139V80.8389C1579.68 77.9639 1577.37 74.1826 1576.62 69.4951C1576.5 68.5576 1576.43 67.6514 1576.43 66.7764C1576.43 59.5889 1579.4 54.2139 1585.34 50.6514C1589.09 48.4014 1593.37 47.2764 1598.18 47.2764C1600.75 47.2764 1603.43 47.7451 1606.25 48.6826H1625.65V58.9951H1616.37C1618.06 61.1826 1618.9 63.9014 1618.9 67.1514C1618.9 74.5264 1615.81 79.8076 1609.62 82.9951C1606.31 84.6201 1602.5 85.4326 1598.18 85.4326C1596.25 85.4326 1593.93 84.9951 1591.25 84.1201C1589.75 85.4326 1589 86.9951 1589 88.8076C1589 91.1201 1590.59 92.5264 1593.78 93.0264C1594.84 93.1514 1596.06 93.2139 1597.43 93.2139H1606.53C1619.78 93.2764 1626.43 97.7451 1626.5 106.62C1626.5 112.62 1623.46 117.433 1617.4 121.058C1612.03 124.183 1605.34 125.745 1597.34 125.745ZM1598.18 76.7139C1601.75 76.7139 1604.21 75.0576 1605.59 71.7451C1606.21 70.2451 1606.53 68.5889 1606.53 66.7764C1606.53 61.9639 1604.81 58.8701 1601.37 57.4951C1600.37 57.1201 1599.31 56.9326 1598.18 56.9326C1594.5 56.9326 1591.96 58.6201 1590.59 61.9951C1590.03 63.4326 1589.75 65.0264 1589.75 66.7764C1589.75 71.4014 1591.4 74.4639 1594.71 75.9639C1595.84 76.4639 1597 76.7139 1598.18 76.7139ZM1599.4 116.839C1605.03 116.839 1609.09 115.464 1611.59 112.714C1612.59 111.526 1613.09 110.308 1613.09 109.058C1613.09 106.37 1611.21 104.808 1607.46 104.37C1606.46 104.245 1605.34 104.183 1604.09 104.183H1597.62C1594.62 104.183 1592.12 103.933 1590.12 103.433C1587.81 105.308 1586.62 107.401 1586.56 109.714C1586.56 112.964 1588.84 115.12 1593.4 116.183C1595.21 116.62 1597.21 116.839 1599.4 116.839Z" fill="#363A35"/>
<path d="M1717.33 102.401V31.3389H1736.83C1752.71 31.3389 1763.27 37.0576 1768.52 48.4951C1770.83 53.5576 1771.99 59.5889 1771.99 66.5889C1771.99 81.7764 1766.86 92.2451 1756.61 97.9951C1751.3 100.933 1744.96 102.401 1737.58 102.401H1717.33ZM1731.58 90.9639H1735.99C1750.24 90.8389 1757.4 82.7139 1757.46 66.5889C1757.02 50.9014 1749.86 42.9326 1735.99 42.6826H1731.58V90.9639ZM1808.23 103.714C1799.8 103.714 1793.08 100.808 1788.08 94.9951C1783.7 89.8701 1781.51 83.4014 1781.51 75.5889C1781.51 66.4014 1784.51 59.0576 1790.51 53.5576C1795.2 49.3701 1800.55 47.2764 1806.55 47.2764C1815.48 47.2764 1821.89 50.9326 1825.76 58.2451C1827.95 62.4326 1829.05 67.3701 1829.05 73.0576C1829.05 75.8701 1828.83 77.9951 1828.39 79.4326H1795.2C1796.01 85.9951 1799.14 90.2139 1804.58 92.0889C1806.26 92.6514 1808.11 92.9326 1810.11 92.9326C1814.23 92.8701 1818.26 91.6201 1822.2 89.1826L1826.98 97.8076C1821.3 101.745 1815.05 103.714 1808.23 103.714ZM1795.01 70.1514H1816.95C1816.95 63.2139 1814.26 59.3076 1808.89 58.4326C1808.2 58.3076 1807.48 58.2451 1806.73 58.2451C1802.42 58.2451 1799.14 60.2139 1796.89 64.1514C1795.95 65.9014 1795.33 67.9014 1795.01 70.1514ZM1856.1 103.714C1849.85 103.714 1843.85 101.808 1838.1 97.9951C1837.23 97.3701 1836.41 96.7451 1835.66 96.1201L1842.04 87.3076C1847.1 91.2451 1851.91 93.2139 1856.48 93.2139C1861.29 92.7139 1863.88 90.8076 1864.26 87.4951C1864.26 85.3076 1862.32 83.3389 1858.45 81.5889C1857.95 81.4014 1856.13 80.6826 1853.01 79.4326C1845.32 76.4951 1840.66 72.7764 1839.04 68.2764C1838.54 66.8389 1838.29 65.3389 1838.29 63.7764C1838.29 57.9014 1840.82 53.4326 1845.88 50.3701C1849.38 48.3076 1853.51 47.2764 1858.26 47.2764C1864.63 47.3389 1870.76 49.5576 1876.63 53.9326L1870.26 62.4639C1865.88 59.4014 1862.01 57.8701 1858.63 57.8701C1854.2 58.1826 1851.85 59.9014 1851.6 63.0264C1851.6 65.0889 1853.32 66.8701 1856.76 68.3701C1857.01 68.4326 1858.91 69.1514 1862.48 70.5264C1868.48 72.8389 1872.54 75.3389 1874.66 78.0264C1876.54 80.4639 1877.48 83.3701 1877.48 86.7451C1877.48 92.7451 1874.91 97.3076 1869.79 100.433C1866.1 102.62 1861.54 103.714 1856.1 103.714ZM1888.31 102.401V48.6826H1902.28V102.401H1888.31ZM1895.44 39.9639C1891.88 39.9639 1889.38 38.5889 1887.94 35.8389C1887.31 34.7139 1887 33.5264 1887 32.2764C1887 28.9639 1888.53 26.6826 1891.6 25.4326C1892.78 24.9326 1894.06 24.6826 1895.44 24.6826C1899.06 24.6826 1901.6 26.0576 1903.03 28.8076C1903.53 29.8701 1903.78 31.0264 1903.78 32.2764C1903.78 35.4014 1902.35 37.6514 1899.47 39.0264C1898.22 39.6514 1896.88 39.9639 1895.44 39.9639ZM1936.56 125.745C1926.68 125.745 1919.96 123.464 1916.4 118.901C1914.84 116.839 1914.06 114.495 1914.06 111.87C1914.12 107.433 1916.68 103.745 1921.75 100.808V100.245C1918.5 98.1826 1916.87 95.1826 1916.87 91.2451C1917 87.4326 1918.96 84.0889 1922.78 81.2139V80.8389C1918.9 77.9639 1916.59 74.1826 1915.84 69.4951C1915.71 68.5576 1915.65 67.6514 1915.65 66.7764C1915.65 59.5889 1918.62 54.2139 1924.56 50.6514C1928.31 48.4014 1932.59 47.2764 1937.4 47.2764C1939.96 47.2764 1942.65 47.7451 1945.46 48.6826H1964.87V58.9951H1955.59C1957.28 61.1826 1958.12 63.9014 1958.12 67.1514C1958.12 74.5264 1955.03 79.8076 1948.84 82.9951C1945.53 84.6201 1941.71 85.4326 1937.4 85.4326C1935.46 85.4326 1933.15 84.9951 1930.46 84.1201C1928.96 85.4326 1928.21 86.9951 1928.21 88.8076C1928.21 91.1201 1929.81 92.5264 1933 93.0264C1934.06 93.1514 1935.28 93.2139 1936.65 93.2139H1945.75C1959 93.2764 1965.65 97.7451 1965.71 106.62C1965.71 112.62 1962.68 117.433 1956.62 121.058C1951.25 124.183 1944.56 125.745 1936.56 125.745ZM1937.4 76.7139C1940.96 76.7139 1943.43 75.0576 1944.81 71.7451C1945.43 70.2451 1945.75 68.5889 1945.75 66.7764C1945.75 61.9639 1944.03 58.8701 1940.59 57.4951C1939.59 57.1201 1938.53 56.9326 1937.4 56.9326C1933.71 56.9326 1931.18 58.6201 1929.81 61.9951C1929.25 63.4326 1928.96 65.0264 1928.96 66.7764C1928.96 71.4014 1930.62 74.4639 1933.93 75.9639C1935.06 76.4639 1936.21 76.7139 1937.4 76.7139ZM1938.62 116.839C1944.25 116.839 1948.31 115.464 1950.81 112.714C1951.81 111.526 1952.31 110.308 1952.31 109.058C1952.31 106.37 1950.43 104.808 1946.68 104.37C1945.68 104.245 1944.56 104.183 1943.31 104.183H1936.84C1933.84 104.183 1931.34 103.933 1929.34 103.433C1927.03 105.308 1925.84 107.401 1925.78 109.714C1925.78 112.964 1928.06 115.12 1932.62 116.183C1934.43 116.62 1936.43 116.839 1938.62 116.839ZM1975.05 102.401V48.6826H1986.58L1987.52 55.7139H1987.9C1993.71 50.1514 1999.52 47.3389 2005.33 47.2764C2016.4 47.4014 2021.96 54.6201 2022.02 68.9326V102.401H2007.86V70.6201C2007.86 64.4326 2006.3 60.8076 2003.18 59.7451C2002.3 59.4951 2001.33 59.3701 2000.27 59.3701C1997.27 59.3701 1994.21 60.7764 1991.08 63.5889C1990.46 64.1514 1989.77 64.7764 1989.02 65.4639V102.401H1975.05ZM2073.88 102.401V43.1514H2053.91V31.3389H2108.2V43.1514H2088.04V102.401H2073.88ZM2118.75 102.401V25.8076H2132.72V45.1201L2132.16 55.1514C2137.97 50.0264 2143.6 47.4014 2149.03 47.2764C2160.1 47.4014 2165.66 54.6201 2165.72 68.9326V102.401H2151.56V70.6201C2151.56 64.4326 2150 60.8076 2146.88 59.7451C2146 59.4951 2145.03 59.3701 2143.97 59.3701C2140.97 59.3701 2137.91 60.7764 2134.78 63.5889C2134.16 64.1514 2133.47 64.7764 2132.72 65.4639V102.401H2118.75ZM2180.31 102.401V48.6826H2194.28V102.401H2180.31ZM2187.43 39.9639C2183.87 39.9639 2181.37 38.5889 2179.93 35.8389C2179.31 34.7139 2179 33.5264 2179 32.2764C2179 28.9639 2180.53 26.6826 2183.59 25.4326C2184.78 24.9326 2186.06 24.6826 2187.43 24.6826C2191.06 24.6826 2193.59 26.0576 2195.03 28.8076C2195.53 29.8701 2195.78 31.0264 2195.78 32.2764C2195.78 35.4014 2194.34 37.6514 2191.46 39.0264C2190.21 39.6514 2188.87 39.9639 2187.43 39.9639ZM2209.61 102.401V48.6826H2221.15L2222.08 55.7139H2222.46C2228.27 50.1514 2234.08 47.3389 2239.9 47.2764C2250.96 47.4014 2256.52 54.6201 2256.58 68.9326V102.401H2242.43V70.6201C2242.43 64.4326 2240.86 60.8076 2237.74 59.7451C2236.86 59.4951 2235.9 59.3701 2234.83 59.3701C2231.83 59.3701 2228.77 60.7764 2225.65 63.5889C2225.02 64.1514 2224.33 64.7764 2223.58 65.4639V102.401H2209.61ZM2271.26 102.401V25.8076H2284.95V71.8389H2285.33L2303.98 48.6826H2319.36L2300.7 70.6201L2321.05 102.401H2305.86L2292.73 80.0889L2284.95 88.9951V102.401H2271.26ZM2329.45 102.401V48.6826H2343.41V102.401H2329.45ZM2336.57 39.9639C2333.01 39.9639 2330.51 38.5889 2329.07 35.8389C2328.45 34.7139 2328.13 33.5264 2328.13 32.2764C2328.13 28.9639 2329.66 26.6826 2332.73 25.4326C2333.91 24.9326 2335.2 24.6826 2336.57 24.6826C2340.2 24.6826 2342.73 26.0576 2344.16 28.8076C2344.66 29.8701 2344.91 31.0264 2344.91 32.2764C2344.91 35.4014 2343.48 37.6514 2340.6 39.0264C2339.35 39.6514 2338.01 39.9639 2336.57 39.9639ZM2358.75 102.401V48.6826H2370.28L2371.22 55.7139H2371.6C2377.41 50.1514 2383.22 47.3389 2389.03 47.2764C2400.1 47.4014 2405.66 54.6201 2405.72 68.9326V102.401H2391.56V70.6201C2391.56 64.4326 2390 60.8076 2386.88 59.7451C2386 59.4951 2385.03 59.3701 2383.97 59.3701C2380.97 59.3701 2377.91 60.7764 2374.78 63.5889C2374.16 64.1514 2373.47 64.7764 2372.72 65.4639V102.401H2358.75ZM2439.34 125.745C2429.46 125.745 2422.75 123.464 2419.18 118.901C2417.62 116.839 2416.84 114.495 2416.84 111.87C2416.9 107.433 2419.46 103.745 2424.53 100.808V100.245C2421.28 98.1826 2419.65 95.1826 2419.65 91.2451C2419.78 87.4326 2421.75 84.0889 2425.56 81.2139V80.8389C2421.68 77.9639 2419.37 74.1826 2418.62 69.4951C2418.5 68.5576 2418.43 67.6514 2418.43 66.7764C2418.43 59.5889 2421.4 54.2139 2427.34 50.6514C2431.09 48.4014 2435.37 47.2764 2440.18 47.2764C2442.75 47.2764 2445.43 47.7451 2448.25 48.6826H2467.65V58.9951H2458.37C2460.06 61.1826 2460.9 63.9014 2460.9 67.1514C2460.9 74.5264 2457.81 79.8076 2451.62 82.9951C2448.31 84.6201 2444.5 85.4326 2440.18 85.4326C2438.25 85.4326 2435.93 84.9951 2433.25 84.1201C2431.75 85.4326 2431 86.9951 2431 88.8076C2431 91.1201 2432.59 92.5264 2435.78 93.0264C2436.84 93.1514 2438.06 93.2139 2439.43 93.2139H2448.53C2461.78 93.2764 2468.43 97.7451 2468.5 106.62C2468.5 112.62 2465.46 117.433 2459.4 121.058C2454.03 124.183 2447.34 125.745 2439.34 125.745ZM2440.18 76.7139C2443.75 76.7139 2446.21 75.0576 2447.59 71.7451C2448.21 70.2451 2448.53 68.5889 2448.53 66.7764C2448.53 61.9639 2446.81 58.8701 2443.37 57.4951C2442.37 57.1201 2441.31 56.9326 2440.18 56.9326C2436.5 56.9326 2433.96 58.6201 2432.59 61.9951C2432.03 63.4326 2431.75 65.0264 2431.75 66.7764C2431.75 71.4014 2433.4 74.4639 2436.71 75.9639C2437.84 76.4639 2439 76.7139 2440.18 76.7139ZM2441.4 116.839C2447.03 116.839 2451.09 115.464 2453.59 112.714C2454.59 111.526 2455.09 110.308 2455.09 109.058C2455.09 106.37 2453.21 104.808 2449.46 104.37C2448.46 104.245 2447.34 104.183 2446.09 104.183H2439.62C2436.62 104.183 2434.12 103.933 2432.12 103.433C2429.81 105.308 2428.62 107.401 2428.56 109.714C2428.56 112.964 2430.84 115.12 2435.4 116.183C2437.21 116.62 2439.21 116.839 2441.4 116.839Z" fill="#363A35"/>
<path d="M2559.33 102.401V31.3389H2578.83C2594.71 31.3389 2605.27 37.0576 2610.52 48.4951C2612.83 53.5576 2613.99 59.5889 2613.99 66.5889C2613.99 81.7764 2608.86 92.2451 2598.61 97.9951C2593.3 100.933 2586.96 102.401 2579.58 102.401H2559.33ZM2573.58 90.9639H2577.99C2592.24 90.8389 2599.4 82.7139 2599.46 66.5889C2599.02 50.9014 2591.86 42.9326 2577.99 42.6826H2573.58V90.9639ZM2650.23 103.714C2641.8 103.714 2635.08 100.808 2630.08 94.9951C2625.7 89.8701 2623.51 83.4014 2623.51 75.5889C2623.51 66.4014 2626.51 59.0576 2632.51 53.5576C2637.2 49.3701 2642.55 47.2764 2648.55 47.2764C2657.48 47.2764 2663.89 50.9326 2667.76 58.2451C2669.95 62.4326 2671.05 67.3701 2671.05 73.0576C2671.05 75.8701 2670.83 77.9951 2670.39 79.4326H2637.2C2638.01 85.9951 2641.14 90.2139 2646.58 92.0889C2648.26 92.6514 2650.11 92.9326 2652.11 92.9326C2656.23 92.8701 2660.26 91.6201 2664.2 89.1826L2668.98 97.8076C2663.3 101.745 2657.05 103.714 2650.23 103.714ZM2637.01 70.1514H2658.95C2658.95 63.2139 2656.26 59.3076 2650.89 58.4326C2650.2 58.3076 2649.48 58.2451 2648.73 58.2451C2644.42 58.2451 2641.14 60.2139 2638.89 64.1514C2637.95 65.9014 2637.33 67.9014 2637.01 70.1514ZM2698.1 103.714C2691.85 103.714 2685.85 101.808 2680.1 97.9951C2679.23 97.3701 2678.41 96.7451 2677.66 96.1201L2684.04 87.3076C2689.1 91.2451 2693.91 93.2139 2698.48 93.2139C2703.29 92.7139 2705.88 90.8076 2706.26 87.4951C2706.26 85.3076 2704.32 83.3389 2700.45 81.5889C2699.95 81.4014 2698.13 80.6826 2695.01 79.4326C2687.32 76.4951 2682.66 72.7764 2681.04 68.2764C2680.54 66.8389 2680.29 65.3389 2680.29 63.7764C2680.29 57.9014 2682.82 53.4326 2687.88 50.3701C2691.38 48.3076 2695.51 47.2764 2700.26 47.2764C2706.63 47.3389 2712.76 49.5576 2718.63 53.9326L2712.26 62.4639C2707.88 59.4014 2704.01 57.8701 2700.63 57.8701C2696.2 58.1826 2693.85 59.9014 2693.6 63.0264C2693.6 65.0889 2695.32 66.8701 2698.76 68.3701C2699.01 68.4326 2700.91 69.1514 2704.48 70.5264C2710.48 72.8389 2714.54 75.3389 2716.66 78.0264C2718.54 80.4639 2719.48 83.3701 2719.48 86.7451C2719.48 92.7451 2716.91 97.3076 2711.79 100.433C2708.1 102.62 2703.54 103.714 2698.1 103.714ZM2730.31 102.401V48.6826H2744.28V102.401H2730.31ZM2737.44 39.9639C2733.88 39.9639 2731.38 38.5889 2729.94 35.8389C2729.31 34.7139 2729 33.5264 2729 32.2764C2729 28.9639 2730.53 26.6826 2733.6 25.4326C2734.78 24.9326 2736.06 24.6826 2737.44 24.6826C2741.06 24.6826 2743.6 26.0576 2745.03 28.8076C2745.53 29.8701 2745.78 31.0264 2745.78 32.2764C2745.78 35.4014 2744.35 37.6514 2741.47 39.0264C2740.22 39.6514 2738.88 39.9639 2737.44 39.9639ZM2778.56 125.745C2768.68 125.745 2761.96 123.464 2758.4 118.901C2756.84 116.839 2756.06 114.495 2756.06 111.87C2756.12 107.433 2758.68 103.745 2763.75 100.808V100.245C2760.5 98.1826 2758.87 95.1826 2758.87 91.2451C2759 87.4326 2760.96 84.0889 2764.78 81.2139V80.8389C2760.9 77.9639 2758.59 74.1826 2757.84 69.4951C2757.71 68.5576 2757.65 67.6514 2757.65 66.7764C2757.65 59.5889 2760.62 54.2139 2766.56 50.6514C2770.31 48.4014 2774.59 47.2764 2779.4 47.2764C2781.96 47.2764 2784.65 47.7451 2787.46 48.6826H2806.87V58.9951H2797.59C2799.28 61.1826 2800.12 63.9014 2800.12 67.1514C2800.12 74.5264 2797.03 79.8076 2790.84 82.9951C2787.53 84.6201 2783.71 85.4326 2779.4 85.4326C2777.46 85.4326 2775.15 84.9951 2772.46 84.1201C2770.96 85.4326 2770.21 86.9951 2770.21 88.8076C2770.21 91.1201 2771.81 92.5264 2775 93.0264C2776.06 93.1514 2777.28 93.2139 2778.65 93.2139H2787.75C2801 93.2764 2807.65 97.7451 2807.71 106.62C2807.71 112.62 2804.68 117.433 2798.62 121.058C2793.25 124.183 2786.56 125.745 2778.56 125.745ZM2779.4 76.7139C2782.96 76.7139 2785.43 75.0576 2786.81 71.7451C2787.43 70.2451 2787.75 68.5889 2787.75 66.7764C2787.75 61.9639 2786.03 58.8701 2782.59 57.4951C2781.59 57.1201 2780.53 56.9326 2779.4 56.9326C2775.71 56.9326 2773.18 58.6201 2771.81 61.9951C2771.25 63.4326 2770.96 65.0264 2770.96 66.7764C2770.96 71.4014 2772.62 74.4639 2775.93 75.9639C2777.06 76.4639 2778.21 76.7139 2779.4 76.7139ZM2780.62 116.839C2786.25 116.839 2790.31 115.464 2792.81 112.714C2793.81 111.526 2794.31 110.308 2794.31 109.058C2794.31 106.37 2792.43 104.808 2788.68 104.37C2787.68 104.245 2786.56 104.183 2785.31 104.183H2778.84C2775.84 104.183 2773.34 103.933 2771.34 103.433C2769.03 105.308 2767.84 107.401 2767.78 109.714C2767.78 112.964 2770.06 115.12 2774.62 116.183C2776.43 116.62 2778.43 116.839 2780.62 116.839ZM2817.05 102.401V48.6826H2828.58L2829.52 55.7139H2829.9C2835.71 50.1514 2841.52 47.3389 2847.33 47.2764C2858.4 47.4014 2863.96 54.6201 2864.02 68.9326V102.401H2849.86V70.6201C2849.86 64.4326 2848.3 60.8076 2845.18 59.7451C2844.3 59.4951 2843.33 59.3701 2842.27 59.3701C2839.27 59.3701 2836.21 60.7764 2833.08 63.5889C2832.46 64.1514 2831.77 64.7764 2831.02 65.4639V102.401H2817.05ZM2915.88 102.401V43.1514H2895.91V31.3389H2950.2V43.1514H2930.04V102.401H2915.88ZM2960.75 102.401V25.8076H2974.72V45.1201L2974.16 55.1514C2979.97 50.0264 2985.6 47.4014 2991.03 47.2764C3002.1 47.4014 3007.66 54.6201 3007.72 68.9326V102.401H2993.56V70.6201C2993.56 64.4326 2992 60.8076 2988.88 59.7451C2988 59.4951 2987.03 59.3701 2985.97 59.3701C2982.97 59.3701 2979.91 60.7764 2976.78 63.5889C2976.16 64.1514 2975.47 64.7764 2974.72 65.4639V102.401H2960.75ZM3022.31 102.401V48.6826H3036.28V102.401H3022.31ZM3029.43 39.9639C3025.87 39.9639 3023.37 38.5889 3021.93 35.8389C3021.31 34.7139 3021 33.5264 3021 32.2764C3021 28.9639 3022.53 26.6826 3025.59 25.4326C3026.78 24.9326 3028.06 24.6826 3029.43 24.6826C3033.06 24.6826 3035.59 26.0576 3037.03 28.8076C3037.53 29.8701 3037.78 31.0264 3037.78 32.2764C3037.78 35.4014 3036.34 37.6514 3033.46 39.0264C3032.21 39.6514 3030.87 39.9639 3029.43 39.9639ZM3051.61 102.401V48.6826H3063.15L3064.08 55.7139H3064.46C3070.27 50.1514 3076.08 47.3389 3081.9 47.2764C3092.96 47.4014 3098.52 54.6201 3098.58 68.9326V102.401H3084.43V70.6201C3084.43 64.4326 3082.86 60.8076 3079.74 59.7451C3078.86 59.4951 3077.9 59.3701 3076.83 59.3701C3073.83 59.3701 3070.77 60.7764 3067.65 63.5889C3067.02 64.1514 3066.33 64.7764 3065.58 65.4639V102.401H3051.61ZM3113.26 102.401V25.8076H3126.95V71.8389H3127.33L3145.98 48.6826H3161.36L3142.7 70.6201L3163.05 102.401H3147.86L3134.73 80.0889L3126.95 88.9951V102.401H3113.26ZM3171.45 102.401V48.6826H3185.41V102.401H3171.45ZM3178.57 39.9639C3175.01 39.9639 3172.51 38.5889 3171.07 35.8389C3170.45 34.7139 3170.13 33.5264 3170.13 32.2764C3170.13 28.9639 3171.66 26.6826 3174.73 25.4326C3175.91 24.9326 3177.2 24.6826 3178.57 24.6826C3182.2 24.6826 3184.73 26.0576 3186.16 28.8076C3186.66 29.8701 3186.91 31.0264 3186.91 32.2764C3186.91 35.4014 3185.48 37.6514 3182.6 39.0264C3181.35 39.6514 3180.01 39.9639 3178.57 39.9639ZM3200.75 102.401V48.6826H3212.28L3213.22 55.7139H3213.6C3219.41 50.1514 3225.22 47.3389 3231.03 47.2764C3242.1 47.4014 3247.66 54.6201 3247.72 68.9326V102.401H3233.56V70.6201C3233.56 64.4326 3232 60.8076 3228.88 59.7451C3228 59.4951 3227.03 59.3701 3225.97 59.3701C3222.97 59.3701 3219.91 60.7764 3216.78 63.5889C3216.16 64.1514 3215.47 64.7764 3214.72 65.4639V102.401H3200.75ZM3281.34 125.745C3271.46 125.745 3264.75 123.464 3261.18 118.901C3259.62 116.839 3258.84 114.495 3258.84 111.87C3258.9 107.433 3261.46 103.745 3266.53 100.808V100.245C3263.28 98.1826 3261.65 95.1826 3261.65 91.2451C3261.78 87.4326 3263.75 84.0889 3267.56 81.2139V80.8389C3263.68 77.9639 3261.37 74.1826 3260.62 69.4951C3260.5 68.5576 3260.43 67.6514 3260.43 66.7764C3260.43 59.5889 3263.4 54.2139 3269.34 50.6514C3273.09 48.4014 3277.37 47.2764 3282.18 47.2764C3284.75 47.2764 3287.43 47.7451 3290.25 48.6826H3309.65V58.9951H3300.37C3302.06 61.1826 3302.9 63.9014 3302.9 67.1514C3302.9 74.5264 3299.81 79.8076 3293.62 82.9951C3290.31 84.6201 3286.5 85.4326 3282.18 85.4326C3280.25 85.4326 3277.93 84.9951 3275.25 84.1201C3273.75 85.4326 3273 86.9951 3273 88.8076C3273 91.1201 3274.59 92.5264 3277.78 93.0264C3278.84 93.1514 3280.06 93.2139 3281.43 93.2139H3290.53C3303.78 93.2764 3310.43 97.7451 3310.5 106.62C3310.5 112.62 3307.46 117.433 3301.4 121.058C3296.03 124.183 3289.34 125.745 3281.34 125.745ZM3282.18 76.7139C3285.75 76.7139 3288.21 75.0576 3289.59 71.7451C3290.21 70.2451 3290.53 68.5889 3290.53 66.7764C3290.53 61.9639 3288.81 58.8701 3285.37 57.4951C3284.37 57.1201 3283.31 56.9326 3282.18 56.9326C3278.5 56.9326 3275.96 58.6201 3274.59 61.9951C3274.03 63.4326 3273.75 65.0264 3273.75 66.7764C3273.75 71.4014 3275.4 74.4639 3278.71 75.9639C3279.84 76.4639 3281 76.7139 3282.18 76.7139ZM3283.4 116.839C3289.03 116.839 3293.09 115.464 3295.59 112.714C3296.59 111.526 3297.09 110.308 3297.09 109.058C3297.09 106.37 3295.21 104.808 3291.46 104.37C3290.46 104.245 3289.34 104.183 3288.09 104.183H3281.62C3278.62 104.183 3276.12 103.933 3274.12 103.433C3271.81 105.308 3270.62 107.401 3270.56 109.714C3270.56 112.964 3272.84 115.12 3277.4 116.183C3279.21 116.62 3281.21 116.839 3283.4 116.839Z" fill="#363A35"/>
</svg>
