<svg width="1312" height="421" viewBox="0 0 1312 421" fill="none" xmlns="http://www.w3.org/2000/svg">
<g clip-path="url(#clip0_1903_78903)">
<path d="M31.4742 107.108V176.23H1V16.1787H31.4742V78.8874V79.8874H32.4742H93.5769H94.5769V78.8874V16.1787H124.837V176.23H94.5769V107.108V106.108H93.5769H32.4742H31.4742V107.108Z" fill="#363A35" stroke="#363A35" stroke-width="2"/>
<path d="M163.043 24.9777L163.037 24.9664L163.031 24.9554C161.687 22.5339 161.021 19.9924 161.021 17.3168C161.021 13.6968 161.855 10.7118 163.468 8.30686C165.082 5.90204 167.524 4.00167 170.868 2.63608L170.868 2.63613L170.878 2.63183C173.453 1.54683 176.24 1 179.249 1C183.255 1 186.589 1.76015 189.293 3.23025C191.984 4.69268 194.105 6.88668 195.658 9.85115C196.725 12.1271 197.263 14.611 197.263 17.3168C197.263 20.7224 196.482 23.5927 194.964 25.9716C193.444 28.3517 191.145 30.3046 188.004 31.8075L187.996 31.8113L187.989 31.8152C185.283 33.169 182.374 33.8474 179.249 33.8474C175.317 33.8474 172.038 33.0883 169.369 31.6196C166.708 30.1551 164.599 27.9548 163.043 24.9777ZM164.012 176.23V55.7296H193.845V176.23H164.012Z" fill="#363A35" stroke="#363A35" stroke-width="2"/>
<path d="M236.317 169.485L236.313 169.477L236.309 169.469C234.543 166.345 233.661 162.952 233.661 159.272C233.661 151.466 236.709 145.747 242.794 141.955C245.767 140.199 249.006 139.321 252.53 139.321C259.871 139.321 265.309 142.416 268.972 148.661C270.876 151.926 271.826 155.457 271.826 159.272C271.826 166.778 268.788 172.44 262.681 176.383C259.565 178.278 256.188 179.223 252.53 179.223C248.836 179.223 245.673 178.403 243.003 176.8C240.332 175.197 238.098 172.775 236.317 169.485ZM262.266 121.073H243.007L238.573 41.2158L237.542 11.9033H267.731L266.699 41.2159L262.266 121.073Z" fill="#363A35" stroke="#363A35" stroke-width="2"/>
<path d="M1 417.007V256.956H31.4742V417.007H1Z" fill="#363A35" stroke="#363A35" stroke-width="2"/>
<path d="M91.5807 263.754L91.581 263.752C91.7263 262.297 91.7996 260.91 91.7996 259.59V258.37L90.6028 258.61C89.9746 258.736 89.1897 258.804 88.2358 258.804C84.8089 258.804 81.9214 258.119 79.5349 256.793C77.1532 255.469 75.216 253.476 73.7297 250.772L73.7277 250.768C72.3832 248.346 71.7168 245.804 71.7168 243.129C71.7168 238.983 72.5453 235.61 74.1382 232.954C75.725 230.307 78.1119 228.302 81.3566 226.949L81.3648 226.946L81.373 226.942C83.5215 226.001 85.8059 225.529 88.2358 225.529C94.5522 225.529 99.2833 227.561 102.582 231.529C105.915 235.537 107.896 241.653 108.389 250.029L108.39 250.055L108.393 250.08C108.531 251.322 108.6 252.638 108.6 254.029C108.53 265.265 105.795 275.013 100.428 283.312C95.206 291.389 87.4557 298.147 77.1243 303.567L70.5673 291.008C83.3072 284.121 90.4228 275.052 91.5807 263.754Z" fill="#363A35" stroke="#363A35" stroke-width="2"/>
<path d="M170.574 312.443C181.591 300.853 192.422 294.617 203.061 293.509C204.596 293.369 206.058 293.3 207.446 293.3C215.342 293.37 221.985 295.169 227.421 298.647C232.857 302.124 237.155 307.322 240.294 314.302L240.908 315.669L241.935 314.577C253.132 302.663 263.352 295.93 272.59 294.136L272.603 294.134L272.616 294.131C275.109 293.576 277.601 293.3 280.09 293.3C290.649 293.3 298.848 296.268 304.815 302.101C310.797 307.949 314.653 316.795 316.273 328.778L316.273 328.78C316.837 332.864 317.119 337.165 317.119 341.685V417.007H287.072V345.533C287.072 338.194 286.104 332.312 284.096 327.957C282.07 323.567 278.976 320.716 274.803 319.556L274.79 319.553L274.778 319.55C272.98 319.099 271.045 318.878 268.98 318.878H268.97L268.96 318.878C261.429 319.029 253.284 323.907 244.542 333.085L244.266 333.375V333.775V417.007H214.219V345.533C214.219 338.194 213.251 332.312 211.243 327.957C209.217 323.567 206.123 320.716 201.95 319.556L201.937 319.553L201.925 319.55C200.127 319.099 198.192 318.878 196.127 318.878H196.117L196.107 318.878C188.576 319.029 180.431 323.907 171.688 333.085L171.412 333.375V333.775V417.007H141.579V296.507H165.981L168.003 311.884L168.117 312.754H168.994H169.849H170.278L170.574 312.443Z" fill="#363A35" stroke="#363A35" stroke-width="2"/>
<path d="M442.79 387.036C442.94 386.437 446.437 369.154 453.266 335.272L471.879 256.956H497.86L516.474 335.272C518.752 346.529 522.169 363.766 526.725 386.987L526.883 387.794H527.706H528.774H529.644L529.764 386.933L531.633 373.571C532.381 368.227 533.253 361.992 534.25 354.867C535.531 346.039 536.457 339.484 537.028 335.202L549.496 256.956H578.207L548.665 417.007H510.131L492.15 337.627C488.733 320.817 486.388 308.368 485.11 300.268L484.977 299.424H484.122H483.267H482.424L482.281 300.255C480.005 313.497 477.657 325.955 475.239 337.627C475.239 337.63 475.238 337.632 475.238 337.634L457.681 417.007H419.785L388.766 256.956H419.818L432.498 335.202C433.212 340.629 434.424 348.898 436.131 360.004C436.131 360.005 436.131 360.007 436.132 360.009L437.414 368.992C438.496 376.575 439.35 382.556 439.975 386.935L440.098 387.794H440.965H441.82H442.601L442.79 387.036Z" fill="#363A35" stroke="#363A35" stroke-width="2"/>
<path d="M601.018 265.755L601.012 265.744L601.006 265.733C599.661 263.311 598.995 260.769 598.995 258.094C598.995 254.474 599.829 251.489 601.443 249.084C603.056 246.679 605.499 244.779 608.842 243.413L608.842 243.413L608.852 243.409C611.427 242.324 614.214 241.777 617.223 241.777C621.229 241.777 624.563 242.538 627.268 244.008C629.958 245.47 632.08 247.664 633.633 250.629C634.699 252.905 635.238 255.388 635.238 258.094C635.238 261.5 634.457 264.37 632.938 266.749C631.418 269.129 629.119 271.082 625.978 272.585L625.97 272.589L625.963 272.593C623.258 273.946 620.348 274.624 617.223 274.624C613.291 274.624 610.012 273.865 607.344 272.397C604.683 270.933 602.574 268.732 601.018 265.755ZM601.986 417.007V296.507H631.819V417.007H601.986Z" fill="#363A35" stroke="#363A35" stroke-width="2"/>
<path d="M773.467 341.689L773.467 417.007H743.206V345.533C743.206 338.411 742.31 332.664 740.454 328.355C738.585 324.018 735.727 321.108 731.846 319.787L731.823 319.779L731.799 319.772C729.702 319.173 727.4 318.878 724.901 318.878C717.733 318.878 710.526 322.243 703.295 328.756C701.867 330.041 700.299 331.468 698.587 333.038L698.263 333.335V333.775V417.007H668.43V296.507H692.833L694.854 311.673L694.969 312.541H695.845H696.7H697.102L697.392 312.263C710.522 299.689 723.533 293.442 736.438 293.3C748.803 293.442 757.951 297.536 764.06 305.47C770.207 313.453 773.396 325.472 773.467 341.687C773.467 341.688 773.467 341.689 773.467 341.689Z" fill="#363A35" stroke="#363A35" stroke-width="2"/>
<path d="M972.878 273.552L972.878 273.552C972.948 273.622 973.017 273.691 973.087 273.761L957.264 292.762C948.084 284.137 938.207 279.755 927.651 279.755C912.761 279.755 901.195 286.362 893.046 299.468C886.8 309.496 883.708 321.877 883.708 336.554C883.708 359.807 890.094 376.497 903.121 386.31L903.125 386.313C910.002 391.438 917.977 393.994 927.01 393.994L927.022 393.994C939.4 393.851 950.499 388.703 960.294 378.665L976.113 397.265C962.86 412.431 946.088 420 925.728 420C903.912 420 886.245 412.479 872.634 397.458C859.302 382.431 852.593 362.519 852.593 337.623C852.593 310.194 860.991 288.673 877.7 272.934C891.324 260.287 907.741 253.963 927.01 253.963C944.534 253.963 959.808 260.473 972.878 273.552Z" fill="#363A35" stroke="#363A35" stroke-width="2"/>
<path d="M1031.93 311.008C1045.07 299.417 1057.66 293.583 1069.74 293.3C1082.1 293.443 1091.24 297.538 1097.35 305.47C1103.49 313.453 1106.68 325.471 1106.75 341.687C1106.75 341.688 1106.75 341.688 1106.75 341.689L1106.75 417.007H1076.49V345.533C1076.49 338.411 1075.59 332.664 1073.74 328.355C1071.87 324.018 1069.01 321.108 1065.13 319.787L1065.11 319.779L1065.09 319.772C1062.99 319.173 1060.69 318.878 1058.19 318.878C1051.02 318.878 1043.81 322.243 1036.58 328.756L1036.58 328.757C1035.16 330.041 1033.59 331.468 1031.87 333.038L1031.55 333.335V333.775V417.007H1001.72V244.342H1031.55V287.355L1030.27 310.202L1030.14 312.59L1031.93 311.008Z" fill="#363A35" stroke="#363A35" stroke-width="2"/>
<path d="M1140.69 265.755L1140.68 265.744L1140.68 265.734C1139.33 263.31 1138.66 260.768 1138.66 258.094C1138.66 254.474 1139.49 251.489 1141.11 249.084C1142.72 246.679 1145.16 244.779 1148.51 243.413L1148.51 243.413L1148.52 243.409C1151.1 242.324 1153.88 241.777 1156.89 241.777C1160.9 241.777 1164.23 242.538 1166.93 244.008C1169.63 245.47 1171.75 247.665 1173.3 250.629C1174.37 252.905 1174.91 255.388 1174.91 258.094C1174.91 261.5 1174.13 264.37 1172.61 266.749C1171.09 269.129 1168.79 271.082 1165.65 272.585L1165.64 272.589L1165.63 272.593C1162.93 273.946 1160.02 274.624 1156.89 274.624C1152.96 274.624 1149.68 273.865 1147.01 272.397C1144.35 270.933 1142.24 268.732 1140.69 265.755ZM1141.66 417.007V296.507H1171.49V417.007H1141.66Z" fill="#363A35" stroke="#363A35" stroke-width="2"/>
<path d="M1206.82 372.041V296.507H1236.86V367.981C1236.86 374.958 1237.7 380.592 1239.45 384.824C1241.2 389.08 1243.9 391.964 1247.57 393.292L1247.58 393.296L1247.59 393.3C1249.84 394.052 1252.3 394.421 1254.96 394.421C1263.13 394.421 1270.44 390.764 1276.85 383.614C1278.16 382.165 1279.45 380.573 1280.75 378.841L1280.95 378.575V378.242V296.507H1311V417.007H1286.8L1284.36 400.331L1284.23 399.476H1283.37H1282.52H1282.07L1281.77 399.81C1269.94 413.056 1257.16 419.717 1243.42 420C1231.19 419.857 1222.15 415.799 1216.12 407.938C1210.04 400.026 1206.89 388.114 1206.82 372.041Z" fill="#363A35" stroke="#363A35" stroke-width="2"/>
</g>
<defs>
<clipPath id="clip0_1903_78903">
<rect width="1312" height="421" fill="white"/>
</clipPath>
</defs>
</svg>
