<svg width="3430" height="341" viewBox="0 0 3430 341" fill="none" xmlns="http://www.w3.org/2000/svg">
<rect width="3428" height="131" transform="translate(0 209.935) rotate(-3.51046)" fill="white"/>
<path d="M67.1491 309.322C56.8559 309.954 48.5751 306.642 42.3066 299.387C36.848 293.085 33.7972 284.693 33.1543 274.213C32.343 260.988 35.6041 250.863 42.9378 243.838C48.1481 238.947 54.7145 236.259 62.6371 235.773C73.1798 235.126 81.5873 238.461 87.8596 245.779C93.0611 251.972 95.9737 260.152 96.5975 270.321C97.3858 283.172 94.308 293.223 87.364 300.474C82.1219 305.868 75.3836 308.817 67.1491 309.322ZM66.3971 297.064C72.8225 296.67 77.3684 293.197 80.0348 286.647C81.8371 282.341 82.5545 277.194 82.1871 271.205C81.5556 260.912 78.4038 253.935 72.7316 250.276C69.9305 248.506 66.8144 247.727 63.3834 247.938C56.7084 248.347 52.0747 251.919 49.4821 258.653C47.918 262.756 47.31 267.646 47.6582 273.323C48.2744 283.367 51.3034 290.382 56.7452 294.369C59.5616 296.387 62.7789 297.286 66.3971 297.064ZM127.654 305.61C116.729 306.155 110.802 299.349 109.87 285.192L107.815 251.693L121.852 250.832L123.798 282.553C124.169 288.604 125.853 292.07 128.85 292.951C129.805 293.205 130.844 293.298 131.967 293.229C135.398 293.019 138.392 291.301 140.949 288.076C141.472 287.418 141.992 286.697 142.507 285.914L140.286 249.701L154.322 248.84L157.611 302.458L146.195 303.158L144.601 295.554L144.227 295.577C139.347 301.762 133.822 305.107 127.654 305.61ZM192.557 301.629C180.821 302.224 174.515 295.879 173.637 282.595L172.179 258.828L164.693 259.287L164.056 248.9L172.251 247.74L172.957 233.232L184.748 232.509L185.632 246.919L198.826 246.11L199.503 257.151L186.309 257.961L187.767 281.729C188.259 287.71 190.878 290.586 195.623 290.358C197.12 290.266 198.842 289.753 200.788 288.82L203.759 298.969C199.722 300.532 195.988 301.418 192.557 301.629ZM232.195 299.197C224.272 299.683 218.138 296.647 213.79 290.088C210.688 285.457 208.919 279.586 208.483 272.474C207.905 263.054 210.286 255.425 215.626 249.587C219.502 245.405 224.061 243.153 229.301 242.831C233.855 242.552 238.103 243.919 242.045 246.934C242.442 247.285 242.837 247.605 243.231 247.894L242.153 239.507L240.993 220.605L255.123 219.738L259.813 296.188L248.397 296.888L246.841 291.442L246.561 291.459C242.158 296.238 237.369 298.817 232.195 299.197ZM235.133 287.37C238.934 287.074 242.128 285.031 244.713 281.241L243.266 257.66C240.107 255.161 236.719 254.023 233.101 254.245C229.046 254.494 226.121 256.833 224.326 261.264C223.185 264.089 222.734 267.467 222.976 271.397C223.618 281.877 227.295 287.194 234.004 287.346C234.382 287.385 234.758 287.393 235.133 287.37ZM297.566 295.187C290.33 295.631 284.057 293.417 278.749 288.545C273.433 283.549 270.523 276.934 270.017 268.699C269.436 259.217 272.131 251.6 278.102 245.849C282.598 241.565 287.934 239.234 294.11 238.855C301.347 238.411 307.59 240.658 312.839 245.596C318.155 250.593 321.068 257.239 321.577 265.536C322.155 274.956 319.458 282.542 313.486 288.293C309.049 292.51 303.742 294.808 297.566 295.187ZM296.86 283.677C301.975 283.364 305.228 280.252 306.619 274.344C307.164 271.993 307.346 269.352 307.166 266.42C306.673 258.373 304.17 253.298 299.657 251.195C298.177 250.535 296.563 250.258 294.816 250.365C289.763 250.675 286.504 253.693 285.04 259.418C284.44 261.897 284.236 264.696 284.428 267.815C284.91 275.675 287.376 280.659 291.826 282.765C293.373 283.484 295.051 283.788 296.86 283.677ZM357.697 291.498C350.46 291.942 344.188 289.728 338.88 284.857C333.564 279.86 330.653 273.245 330.148 265.01C329.566 255.528 332.261 247.911 338.233 242.16C342.729 237.877 348.065 235.546 354.241 235.167C361.477 234.723 367.72 236.97 372.97 241.907C378.286 246.904 381.198 253.551 381.707 261.847C382.285 271.267 379.588 278.853 373.617 284.604C369.179 288.821 363.873 291.119 357.697 291.498ZM356.991 279.989C362.106 279.675 365.359 276.564 366.75 270.655C367.294 268.305 367.477 265.663 367.297 262.731C366.803 254.684 364.3 249.609 359.788 247.506C358.307 246.846 356.694 246.569 354.947 246.676C349.894 246.986 346.635 250.004 345.17 255.729C344.571 258.208 344.367 261.007 344.558 264.126C345.041 271.987 347.507 276.97 351.957 279.076C353.503 279.796 355.181 280.1 356.991 279.989ZM395.289 287.877L392 234.259L403.51 233.553L405.025 242.947L405.399 242.924C408.287 236.923 412.159 233.179 417.015 231.691C418.06 231.377 419.05 231.191 419.986 231.133C422.294 230.992 424.44 231.267 426.424 231.96L424.643 244.279C422.609 243.778 420.718 243.581 418.972 243.688C414.667 243.952 411.257 246.541 408.74 251.454C408.182 252.553 407.691 253.741 407.269 255.019L409.232 287.022L395.289 287.877ZM471.745 253.882L488.588 252.849L485.96 245.214C485.734 244.602 483.623 238.25 479.625 226.16C479.162 224.748 478.741 223.49 478.36 222.387L477.986 222.409C476.745 229.749 475.192 237.609 473.327 245.989L471.745 253.882ZM498.427 281.55L492.348 263.607L469.329 265.02L465.488 283.571L451.078 284.455L469.465 212.131L486.122 211.109L513.211 280.643L498.427 281.55ZM543.479 280.101C534.932 280.626 528.042 278.043 522.809 272.352C518.444 267.548 516.026 261.309 515.556 253.636C514.97 244.092 517.821 236.465 524.108 230.757C528.854 226.459 534.564 224.105 541.239 223.695C547.045 223.402 552.376 225.078 557.234 228.725L551.053 238.215C548.1 236.017 545.283 235 542.6 235.164C537.36 235.486 533.669 238.092 531.527 242.982C530.261 245.815 529.74 249.072 529.966 252.752C530.379 259.49 532.764 264.165 537.12 266.778C539.329 268.083 541.712 268.657 544.27 268.5C547.884 268.215 551.29 266.566 554.486 263.552L560.581 272.571C555.979 277.174 550.278 279.684 543.479 280.101ZM590.883 277.193C579.148 277.788 572.841 271.443 571.964 258.16L570.506 234.392L563.02 234.851L562.382 224.464L570.577 223.304L571.283 208.796L583.074 208.073L583.958 222.483L597.152 221.674L597.829 232.716L584.635 233.525L586.093 257.293C586.585 263.274 589.204 266.15 593.949 265.922C595.446 265.83 597.168 265.317 599.114 264.384L602.085 274.534C598.048 276.096 594.314 276.983 590.883 277.193ZM611.539 274.611L608.25 220.993L622.192 220.138L625.481 273.756L611.539 274.611ZM614.827 211.854C611.272 212.073 608.692 210.853 607.089 208.196C606.396 207.112 606.012 205.946 605.935 204.698C605.732 201.392 607.121 199.021 610.101 197.586C611.256 197.014 612.519 196.686 613.892 196.602C617.51 196.38 620.121 197.597 621.724 200.254C622.288 201.284 622.608 202.423 622.685 203.671C622.876 206.79 621.579 209.123 618.794 210.672C617.584 211.372 616.262 211.766 614.827 211.854ZM652.861 272.076L631.231 219.583L645.455 218.711L654.951 244.897C655.572 246.863 656.571 249.87 657.946 253.918C659.015 257.046 659.784 259.378 660.254 260.915L660.722 260.886C661.001 259.304 662.103 253.788 664.028 244.34L670.252 217.19L683.727 216.363L669.143 271.077L652.861 272.076ZM696.055 269.426L692.766 215.808L706.708 214.953L709.998 268.571L696.055 269.426ZM699.344 206.67C695.788 206.888 693.208 205.669 691.605 203.012C690.912 201.927 690.528 200.761 690.451 199.513C690.248 196.207 691.637 193.836 694.617 192.401C695.772 191.829 697.035 191.501 698.408 191.417C702.026 191.195 704.637 192.413 706.24 195.069C706.804 196.099 707.124 197.238 707.201 198.486C707.392 201.605 706.095 203.939 703.31 205.487C702.1 206.188 700.778 206.582 699.344 206.67ZM745.037 267.737C733.302 268.331 726.995 261.987 726.118 248.703L724.659 224.935L717.174 225.394L716.536 215.008L724.731 213.848L725.437 199.34L737.228 198.616L738.112 213.027L751.306 212.217L751.983 223.259L738.789 224.068L740.247 247.836C740.739 253.817 743.358 256.694 748.103 256.465C749.6 256.373 751.322 255.861 753.268 254.927L756.239 265.077C752.202 266.639 748.468 267.526 745.037 267.737ZM771.692 286.389C769.009 286.554 766.524 286.362 764.236 285.814L766.191 274.798C767.906 275.194 769.168 275.367 769.979 275.317C774.904 274.953 778.075 272.034 779.492 266.562L780.327 263.317L756.134 211.921L770.357 211.049L780.4 235.417C780.924 236.825 782.731 241.786 785.821 250.3L786.289 250.272C786.56 248.564 787.029 246 787.696 242.577C788.421 239.089 788.921 236.522 789.196 234.877L795.061 209.533L808.536 208.706L792.927 265.08C790.164 274.142 786.496 280.19 781.924 283.226C779.095 285.09 775.684 286.144 771.692 286.389Z" fill="#363A35"/>
<path d="M930.526 256.357C920.233 256.989 911.952 253.677 905.684 246.422C900.225 240.12 897.174 231.728 896.531 221.248C895.72 208.023 898.981 197.898 906.315 190.873C911.525 185.982 918.091 183.294 926.014 182.808C936.557 182.161 944.964 185.497 951.237 192.814C956.438 199.007 959.351 207.188 959.974 217.356C960.763 230.207 957.685 240.258 950.741 247.509C945.499 252.903 938.761 255.852 930.526 256.357ZM929.774 244.099C936.199 243.705 940.745 240.233 943.412 233.682C945.214 229.376 945.931 224.229 945.564 218.24C944.933 207.947 941.781 200.97 936.109 197.311C933.307 195.542 930.191 194.762 926.76 194.973C920.085 195.382 915.452 198.954 912.859 205.688C911.295 209.791 910.687 214.681 911.035 220.358C911.651 230.402 914.68 237.417 920.122 241.404C922.939 243.423 926.156 244.321 929.774 244.099ZM991.031 252.646C980.106 253.191 974.179 246.384 973.247 232.227L971.192 198.728L985.229 197.867L987.174 229.588C987.546 235.64 989.23 239.105 992.227 239.986C993.182 240.241 994.221 240.333 995.344 240.265C998.775 240.054 1001.77 238.336 1004.33 235.111C1004.85 234.453 1005.37 233.732 1005.88 232.949L1003.66 196.736L1017.7 195.875L1020.99 249.493L1009.57 250.193L1007.98 242.589L1007.6 242.612C1002.72 248.797 997.199 252.142 991.031 252.646ZM1055.93 248.664C1044.2 249.259 1037.89 242.914 1037.01 229.631L1035.56 205.863L1028.07 206.322L1027.43 195.935L1035.63 194.775L1036.33 180.267L1048.12 179.544L1049.01 193.954L1062.2 193.145L1062.88 204.187L1049.69 204.996L1051.14 228.764C1051.64 234.745 1054.25 237.621 1059 237.393C1060.5 237.301 1062.22 236.788 1064.17 235.855L1067.14 246.004C1063.1 247.567 1059.37 248.454 1055.93 248.664ZM1095.57 246.232C1087.65 246.718 1081.51 243.682 1077.17 237.124C1074.07 232.492 1072.3 226.621 1071.86 219.509C1071.28 210.089 1073.66 202.461 1079 196.623C1082.88 192.44 1087.44 190.188 1092.68 189.866C1097.23 189.587 1101.48 190.954 1105.42 193.969C1105.82 194.32 1106.21 194.64 1106.61 194.929L1105.53 186.542L1104.37 167.64L1118.5 166.773L1123.19 243.223L1111.77 243.924L1110.22 238.477L1109.94 238.495C1105.53 243.273 1100.75 245.852 1095.57 246.232ZM1098.51 234.405C1102.31 234.11 1105.5 232.066 1108.09 228.276L1106.64 204.695C1103.48 202.197 1100.1 201.058 1096.48 201.28C1092.42 201.529 1089.5 203.869 1087.7 208.299C1086.56 211.124 1086.11 214.502 1086.35 218.432C1087 228.913 1090.67 234.229 1097.38 234.381C1097.76 234.42 1098.14 234.428 1098.51 234.405ZM1160.94 242.222C1153.71 242.666 1147.43 240.452 1142.13 235.581C1136.81 230.584 1133.9 223.969 1133.39 215.734C1132.81 206.252 1135.51 198.635 1141.48 192.884C1145.98 188.601 1151.31 186.269 1157.49 185.891C1164.72 185.447 1170.97 187.694 1176.22 192.631C1181.53 197.628 1184.44 204.274 1184.95 212.571C1185.53 221.991 1182.83 229.577 1176.86 235.328C1172.43 239.545 1167.12 241.843 1160.94 242.222ZM1160.24 230.713C1165.35 230.399 1168.61 227.287 1170 221.379C1170.54 219.028 1170.72 216.387 1170.54 213.455C1170.05 205.408 1167.55 200.333 1163.03 198.23C1161.55 197.57 1159.94 197.293 1158.19 197.4C1153.14 197.71 1149.88 200.728 1148.42 206.453C1147.82 208.932 1147.61 211.731 1147.8 214.85C1148.29 222.71 1150.75 227.694 1155.2 229.8C1156.75 230.519 1158.43 230.824 1160.24 230.713ZM1221.07 238.533C1213.84 238.977 1207.56 236.763 1202.26 231.892C1196.94 226.895 1194.03 220.28 1193.53 212.046C1192.94 202.563 1195.64 194.947 1201.61 189.195C1206.11 184.912 1211.44 182.581 1217.62 182.202C1224.85 181.758 1231.1 184.005 1236.35 188.943C1241.66 193.939 1244.58 200.586 1245.08 208.883C1245.66 218.302 1242.97 225.888 1236.99 231.639C1232.56 235.857 1227.25 238.155 1221.07 238.533ZM1220.37 227.024C1225.48 226.71 1228.74 223.599 1230.13 217.69C1230.67 215.34 1230.85 212.699 1230.67 209.767C1230.18 201.719 1227.68 196.644 1223.17 194.542C1221.68 193.881 1220.07 193.604 1218.32 193.711C1213.27 194.021 1210.01 197.039 1208.55 202.765C1207.95 205.243 1207.74 208.042 1207.94 211.162C1208.42 219.022 1210.88 224.005 1215.33 226.112C1216.88 226.831 1218.56 227.135 1220.37 227.024ZM1258.67 234.912L1255.38 181.294L1266.89 180.588L1268.4 189.982L1268.78 189.959C1271.66 183.958 1275.54 180.214 1280.39 178.727C1281.44 178.412 1282.43 178.226 1283.36 178.169C1285.67 178.027 1287.82 178.302 1289.8 178.995L1288.02 191.314C1285.99 190.813 1284.1 190.616 1282.35 190.723C1278.04 190.987 1274.63 193.576 1272.12 198.489C1271.56 199.588 1271.07 200.776 1270.65 202.055L1272.61 234.057L1258.67 234.912ZM1335.12 200.917L1351.97 199.884L1349.34 192.249C1349.11 191.637 1347 185.285 1343 173.195C1342.54 171.783 1342.12 170.525 1341.74 169.422L1341.36 169.445C1340.12 176.784 1338.57 184.644 1336.7 193.024L1335.12 200.917ZM1361.8 228.585L1355.72 210.643L1332.71 212.055L1328.87 230.606L1314.46 231.49L1332.84 159.166L1349.5 158.144L1376.59 227.678L1361.8 228.585ZM1406.86 227.136C1398.31 227.661 1391.42 225.078 1386.19 219.388C1381.82 214.583 1379.4 208.345 1378.93 200.672C1378.35 191.127 1381.2 183.501 1387.49 177.792C1392.23 173.494 1397.94 171.14 1404.62 170.73C1410.42 170.437 1415.75 172.113 1420.61 175.76L1414.43 185.25C1411.48 183.052 1408.66 182.035 1405.98 182.2C1400.74 182.521 1397.05 185.127 1394.9 190.017C1393.64 192.85 1393.12 196.107 1393.34 199.788C1393.76 206.525 1396.14 211.2 1400.5 213.813C1402.71 215.118 1405.09 215.692 1407.65 215.535C1411.26 215.251 1414.67 213.602 1417.86 210.588L1423.96 219.606C1419.36 224.209 1413.66 226.719 1406.86 227.136ZM1454.26 224.228C1442.52 224.823 1436.22 218.479 1435.34 205.195L1433.88 181.427L1426.4 181.886L1425.76 171.5L1433.95 170.339L1434.66 155.831L1446.45 155.108L1447.33 169.519L1460.53 168.709L1461.21 179.751L1448.01 180.56L1449.47 204.328C1449.96 210.309 1452.58 213.185 1457.33 212.957C1458.82 212.865 1460.54 212.353 1462.49 211.419L1465.46 221.569C1461.43 223.131 1457.69 224.018 1454.26 224.228ZM1474.92 221.646L1471.63 168.028L1485.57 167.173L1488.86 220.791L1474.92 221.646ZM1478.2 158.89C1474.65 159.108 1472.07 157.888 1470.47 155.232C1469.77 154.147 1469.39 152.981 1469.31 151.733C1469.11 148.427 1470.5 146.056 1473.48 144.621C1474.63 144.049 1475.9 143.721 1477.27 143.637C1480.89 143.415 1483.5 144.633 1485.1 147.289C1485.66 148.319 1485.99 149.458 1486.06 150.706C1486.25 153.825 1484.96 156.159 1482.17 157.707C1480.96 158.407 1479.64 158.802 1478.2 158.89ZM1516.24 219.111L1494.61 166.618L1508.83 165.746L1518.33 191.932C1518.95 193.898 1519.95 196.905 1521.32 200.953C1522.39 204.081 1523.16 206.414 1523.63 207.95L1524.1 207.921C1524.38 206.339 1525.48 200.824 1527.4 191.376L1533.63 164.225L1547.1 163.398L1532.52 218.112L1516.24 219.111ZM1559.43 216.462L1556.14 162.844L1570.09 161.988L1573.37 215.606L1559.43 216.462ZM1562.72 153.705C1559.16 153.923 1556.59 152.704 1554.98 150.047C1554.29 148.962 1553.9 147.796 1553.83 146.548C1553.63 143.242 1555.01 140.871 1557.99 139.436C1559.15 138.865 1560.41 138.537 1561.78 138.452C1565.4 138.23 1568.01 139.448 1569.62 142.105C1570.18 143.135 1570.5 144.273 1570.58 145.521C1570.77 148.64 1569.47 150.974 1566.69 152.522C1565.48 153.223 1564.16 153.617 1562.72 153.705ZM1608.41 214.772C1596.68 215.366 1590.37 209.022 1589.49 195.738L1588.04 171.97L1580.55 172.43L1579.91 162.043L1588.11 160.883L1588.81 146.375L1600.6 145.651L1601.49 160.062L1614.68 159.252L1615.36 170.294L1602.17 171.104L1603.62 194.871C1604.12 200.852 1606.73 203.729 1611.48 203.5C1612.98 203.408 1614.7 202.896 1616.65 201.962L1619.62 212.112C1615.58 213.675 1611.85 214.561 1608.41 214.772ZM1635.07 233.425C1632.39 233.589 1629.9 233.397 1627.61 232.849L1629.57 221.833C1631.28 222.229 1632.55 222.402 1633.36 222.352C1638.28 221.988 1641.45 219.069 1642.87 213.597L1643.7 210.353L1619.51 158.956L1633.73 158.084L1643.78 182.452C1644.3 183.86 1646.11 188.821 1649.2 197.335L1649.67 197.307C1649.94 195.599 1650.41 193.035 1651.07 189.612C1651.8 186.124 1652.3 183.557 1652.57 181.912L1658.44 156.568L1671.91 155.742L1656.3 212.116C1653.54 221.177 1649.87 227.225 1645.3 230.261C1642.47 232.125 1639.06 233.18 1635.07 233.425Z" fill="#363A35"/>
<path d="M1793.9 203.393C1783.61 204.024 1775.33 200.713 1769.06 193.458C1763.6 187.155 1760.55 178.764 1759.91 168.284C1759.1 155.058 1762.36 144.934 1769.69 137.909C1774.9 133.018 1781.47 130.33 1789.39 129.844C1799.93 129.197 1808.34 132.532 1814.61 139.849C1819.81 146.042 1822.73 154.223 1823.35 164.392C1824.14 177.242 1821.06 187.294 1814.12 194.545C1808.88 199.938 1802.14 202.888 1793.9 203.393ZM1793.15 191.135C1799.58 190.741 1804.12 187.268 1806.79 180.718C1808.59 176.412 1809.31 171.264 1808.94 165.276C1808.31 154.982 1805.16 148.006 1799.49 144.347C1796.68 142.577 1793.57 141.798 1790.14 142.008C1783.46 142.418 1778.83 145.99 1776.24 152.723C1774.67 156.827 1774.06 161.717 1774.41 167.394C1775.03 177.437 1778.06 184.453 1783.5 188.439C1786.32 190.458 1789.53 191.357 1793.15 191.135ZM1854.41 199.681C1843.48 200.226 1837.56 193.42 1836.62 179.263L1834.57 145.764L1848.61 144.902L1850.55 176.624C1850.92 182.675 1852.61 186.141 1855.6 187.022C1856.56 187.276 1857.6 187.369 1858.72 187.3C1862.15 187.09 1865.15 185.372 1867.7 182.147C1868.23 181.488 1868.75 180.768 1869.26 179.985L1867.04 143.772L1881.08 142.911L1884.36 196.529L1872.95 197.229L1871.36 189.625L1870.98 189.648C1866.1 195.833 1860.58 199.178 1854.41 199.681ZM1919.31 195.7C1907.58 196.294 1901.27 189.95 1900.39 176.666L1898.93 152.898L1891.45 153.358L1890.81 142.971L1899 141.811L1899.71 127.303L1911.5 126.579L1912.39 140.99L1925.58 140.18L1926.26 151.222L1913.06 152.032L1914.52 175.799C1915.01 181.78 1917.63 184.657 1922.38 184.428C1923.87 184.336 1925.6 183.824 1927.54 182.89L1930.51 193.04C1926.48 194.603 1922.74 195.489 1919.31 195.7ZM1958.95 193.268C1951.03 193.754 1944.89 190.718 1940.54 184.159C1937.44 179.528 1935.67 173.656 1935.24 166.545C1934.66 157.125 1937.04 149.496 1942.38 143.658C1946.26 139.476 1950.81 137.223 1956.05 136.902C1960.61 136.623 1964.86 137.99 1968.8 141.004C1969.2 141.356 1969.59 141.676 1969.98 141.965L1968.91 133.578L1967.75 114.676L1981.88 113.809L1986.57 190.259L1975.15 190.959L1973.6 185.513L1973.31 185.53C1968.91 190.309 1964.12 192.888 1958.95 193.268ZM1961.89 181.441C1965.69 181.145 1968.88 179.102 1971.47 175.312L1970.02 151.731C1966.86 149.232 1963.47 148.094 1959.85 148.316C1955.8 148.565 1952.87 150.904 1951.08 155.335C1949.94 158.16 1949.49 161.538 1949.73 165.468C1950.37 175.948 1954.05 181.264 1960.76 181.416C1961.14 181.456 1961.51 181.464 1961.89 181.441ZM2024.32 189.258C2017.08 189.702 2010.81 187.488 2005.5 182.616C2000.19 177.62 1997.28 171.004 1996.77 162.77C1996.19 153.288 1998.88 145.671 2004.86 139.92C2009.35 135.636 2014.69 133.305 2020.86 132.926C2028.1 132.482 2034.34 134.729 2039.59 139.667C2044.91 144.663 2047.82 151.31 2048.33 159.607C2048.91 169.027 2046.21 176.612 2040.24 182.364C2035.8 186.581 2030.5 188.879 2024.32 189.258ZM2023.61 177.748C2028.73 177.434 2031.98 174.323 2033.37 168.414C2033.92 166.064 2034.1 163.423 2033.92 160.491C2033.43 152.444 2030.92 147.369 2026.41 145.266C2024.93 144.605 2023.32 144.329 2021.57 144.436C2016.52 144.746 2013.26 147.764 2011.79 153.489C2011.19 155.968 2010.99 158.767 2011.18 161.886C2011.66 169.746 2014.13 174.729 2018.58 176.836C2020.13 177.555 2021.8 177.859 2023.61 177.748ZM2084.45 185.569C2077.21 186.013 2070.94 183.799 2065.63 178.928C2060.32 173.931 2057.41 167.316 2056.9 159.081C2056.32 149.599 2059.02 141.982 2064.99 136.231C2069.48 131.947 2074.82 129.616 2080.99 129.237C2088.23 128.794 2094.47 131.04 2099.72 135.978C2105.04 140.975 2107.95 147.621 2108.46 155.918C2109.04 165.338 2106.34 172.924 2100.37 178.675C2095.93 182.892 2090.63 185.19 2084.45 185.569ZM2083.74 174.059C2088.86 173.746 2092.11 170.634 2093.5 164.726C2094.05 162.375 2094.23 159.734 2094.05 156.802C2093.56 148.755 2091.05 143.68 2086.54 141.577C2085.06 140.917 2083.45 140.64 2081.7 140.747C2076.65 141.057 2073.39 144.075 2071.92 149.8C2071.33 152.279 2071.12 155.078 2071.31 158.197C2071.79 166.057 2074.26 171.041 2078.71 173.147C2080.26 173.866 2081.94 174.17 2083.74 174.059ZM2122.04 181.948L2118.75 128.33L2130.26 127.624L2131.78 137.017L2132.15 136.995C2135.04 130.994 2138.91 127.25 2143.77 125.762C2144.81 125.448 2145.8 125.262 2146.74 125.204C2149.05 125.063 2151.19 125.338 2153.18 126.03L2151.4 138.35C2149.36 137.849 2147.47 137.652 2145.73 137.759C2141.42 138.023 2138.01 140.611 2135.49 145.525C2134.94 146.623 2134.44 147.812 2134.02 149.09L2135.99 181.093L2122.04 181.948ZM2198.5 147.953L2215.34 146.919L2212.71 139.285C2212.49 138.672 2210.38 132.321 2206.38 120.231C2205.92 118.819 2205.49 117.561 2205.11 116.457L2204.74 116.48C2203.5 123.82 2201.95 131.68 2200.08 140.06L2198.5 147.953ZM2225.18 175.621L2219.1 157.678L2196.08 159.09L2192.24 177.641L2177.83 178.526L2196.22 106.201L2212.88 105.18L2239.97 174.714L2225.18 175.621ZM2270.23 174.172C2261.69 174.696 2254.8 172.113 2249.56 166.423C2245.2 161.619 2242.78 155.38 2242.31 147.707C2241.72 138.163 2244.58 130.536 2250.86 124.828C2255.61 120.529 2261.32 118.175 2267.99 117.766C2273.8 117.472 2279.13 119.149 2283.99 122.796L2277.81 132.286C2274.85 130.088 2272.04 129.071 2269.35 129.235C2264.11 129.557 2260.42 132.163 2258.28 137.053C2257.01 139.886 2256.49 143.143 2256.72 146.823C2257.13 153.56 2259.52 158.236 2263.87 160.849C2266.08 162.154 2268.47 162.728 2271.02 162.571C2274.64 162.286 2278.04 160.637 2281.24 157.623L2287.33 166.642C2282.73 171.245 2277.03 173.755 2270.23 174.172ZM2317.64 171.264C2305.9 171.859 2299.6 165.514 2298.72 152.231L2297.26 128.463L2289.77 128.922L2289.14 118.535L2297.33 117.375L2298.04 102.867L2309.83 102.144L2310.71 116.554L2323.91 115.745L2324.58 126.787L2311.39 127.596L2312.85 151.364C2313.34 157.345 2315.96 160.221 2320.7 159.993C2322.2 159.901 2323.92 159.388 2325.87 158.455L2328.84 168.604C2324.8 170.167 2321.07 171.054 2317.64 171.264ZM2338.29 168.682L2335 115.064L2348.95 114.209L2352.24 167.827L2338.29 168.682ZM2341.58 105.925C2338.03 106.143 2335.45 104.924 2333.84 102.267C2333.15 101.183 2332.77 100.017 2332.69 98.7688C2332.49 95.4626 2333.87 93.0918 2336.86 91.6567C2338.01 91.0849 2339.27 90.7569 2340.65 90.6727C2344.26 90.4507 2346.87 91.6682 2348.48 94.325C2349.04 95.3549 2349.36 96.4937 2349.44 97.7413C2349.63 100.86 2348.33 103.194 2345.55 104.743C2344.34 105.443 2343.02 105.837 2341.58 105.925ZM2379.62 166.147L2357.99 113.654L2372.21 112.782L2381.7 138.968C2382.33 140.934 2383.32 143.941 2384.7 147.989C2385.77 151.117 2386.54 153.449 2387.01 154.986L2387.48 154.957C2387.75 153.375 2388.86 147.859 2390.78 138.411L2397.01 111.26L2410.48 110.434L2395.9 165.148L2379.62 166.147ZM2422.81 163.497L2419.52 109.879L2433.46 109.024L2436.75 162.642L2422.81 163.497ZM2426.1 100.741C2422.54 100.959 2419.96 99.7394 2418.36 97.0825C2417.67 95.9979 2417.28 94.8318 2417.21 93.5841C2417 90.2778 2418.39 87.9071 2421.37 86.4719C2422.53 85.9002 2423.79 85.5722 2425.16 85.488C2428.78 85.266 2431.39 86.4835 2432.99 89.1403C2433.56 90.1702 2433.88 91.3089 2433.95 92.5566C2434.15 95.6757 2432.85 98.0095 2430.06 99.558C2428.85 100.258 2427.53 100.653 2426.1 100.741ZM2471.79 161.807C2460.06 162.402 2453.75 156.057 2452.87 142.774L2451.41 119.006L2443.93 119.465L2443.29 109.078L2451.48 107.918L2452.19 93.4103L2463.98 92.687L2464.87 107.097L2478.06 106.288L2478.74 117.33L2465.54 118.139L2467 141.907C2467.49 147.888 2470.11 150.764 2474.86 150.536C2476.35 150.444 2478.08 149.931 2480.02 148.998L2482.99 159.148C2478.96 160.71 2475.22 161.597 2471.79 161.807ZM2498.45 180.46C2495.76 180.625 2493.28 180.433 2490.99 179.884L2492.94 168.869C2494.66 169.265 2495.92 169.438 2496.73 169.388C2501.66 169.023 2504.83 166.105 2506.25 160.633L2507.08 157.388L2482.89 105.992L2497.11 105.119L2507.15 129.488C2507.68 130.896 2509.49 135.857 2512.58 144.371L2513.04 144.342C2513.31 142.635 2513.78 140.07 2514.45 136.648C2515.17 133.16 2515.67 130.593 2515.95 128.948L2521.81 103.604L2535.29 102.777L2519.68 159.151C2516.92 168.212 2513.25 174.261 2508.68 177.297C2505.85 179.161 2502.44 180.215 2498.45 180.46Z" fill="#363A35"/>
<path d="M2657.28 150.428C2646.99 151.06 2638.71 147.748 2632.44 140.493C2626.98 134.19 2623.93 125.799 2623.29 115.319C2622.47 102.094 2625.73 91.9687 2633.07 84.944C2638.28 80.0532 2644.85 77.3649 2652.77 76.8789C2663.31 76.2321 2671.72 79.5673 2677.99 86.8845C2683.19 93.0776 2686.1 101.258 2686.73 111.427C2687.52 124.278 2684.44 134.329 2677.49 141.58C2672.25 146.974 2665.51 149.923 2657.28 150.428ZM2656.53 138.17C2662.95 137.776 2667.5 134.303 2670.17 127.753C2671.97 123.447 2672.69 118.3 2672.32 112.311C2671.69 102.018 2668.53 95.0413 2662.86 91.3817C2660.06 89.6124 2656.95 88.833 2653.51 89.0435C2646.84 89.453 2642.21 93.0247 2639.61 99.7585C2638.05 103.862 2637.44 108.752 2637.79 114.429C2638.41 124.473 2641.43 131.488 2646.88 135.475C2649.69 137.493 2652.91 138.392 2656.53 138.17ZM2717.78 146.716C2706.86 147.261 2700.93 140.455 2700 126.298L2697.95 92.7987L2711.98 91.9376L2713.93 123.659C2714.3 129.71 2715.98 133.176 2718.98 134.057C2719.94 134.311 2720.97 134.404 2722.1 134.335C2725.53 134.125 2728.52 132.407 2731.08 129.182C2731.6 128.524 2732.12 127.803 2732.64 127.02L2730.42 90.8068L2744.45 89.9457L2747.74 143.564L2736.33 144.264L2734.73 136.66L2734.36 136.683C2729.48 142.868 2723.95 146.213 2717.78 146.716ZM2782.69 142.735C2770.95 143.33 2764.65 136.985 2763.77 123.701L2762.31 99.9335L2754.82 100.393L2754.19 90.006L2762.38 88.8459L2763.09 74.3379L2774.88 73.6146L2775.76 88.025L2788.96 87.2156L2789.63 98.2573L2776.44 99.0667L2777.9 122.835C2778.39 128.816 2781.01 131.692 2785.75 131.463C2787.25 131.372 2788.97 130.859 2790.92 129.926L2793.89 140.075C2789.85 141.638 2786.12 142.524 2782.69 142.735ZM2822.33 140.303C2814.4 140.789 2808.27 137.753 2803.92 131.194C2800.82 126.563 2799.05 120.692 2798.61 113.58C2798.04 104.16 2800.42 96.5313 2805.76 90.6934C2809.63 86.5107 2814.19 84.2586 2819.43 83.9372C2823.99 83.6578 2828.23 85.0253 2832.18 88.0395C2832.57 88.3909 2832.97 88.711 2833.36 89L2832.28 80.6128L2831.12 61.7108L2845.25 60.844L2849.94 137.294L2838.53 137.994L2836.97 132.548L2836.69 132.565C2832.29 137.344 2827.5 139.923 2822.33 140.303ZM2825.26 128.476C2829.07 128.18 2832.26 126.137 2834.84 122.347L2833.4 98.7661C2830.24 96.2674 2826.85 95.129 2823.23 95.3509C2819.18 95.5997 2816.25 97.9394 2814.46 102.37C2813.32 105.195 2812.87 108.573 2813.11 112.503C2813.75 122.983 2817.43 128.299 2824.13 128.451C2824.51 128.491 2824.89 128.499 2825.26 128.476ZM2887.7 136.293C2880.46 136.737 2874.19 134.523 2868.88 129.651C2863.56 124.655 2860.65 118.04 2860.15 109.805C2859.57 100.323 2862.26 92.7061 2868.23 86.9547C2872.73 82.6713 2878.07 80.3402 2884.24 79.9614C2891.48 79.5175 2897.72 81.7644 2902.97 86.7022C2908.29 91.6986 2911.2 98.3452 2911.71 106.642C2912.29 116.062 2909.59 123.648 2903.62 129.399C2899.18 133.616 2893.87 135.914 2887.7 136.293ZM2886.99 124.783C2892.11 124.47 2895.36 121.358 2896.75 115.45C2897.29 113.099 2897.48 110.458 2897.3 107.526C2896.8 99.4788 2894.3 94.4038 2889.79 92.3011C2888.31 91.6405 2886.69 91.3638 2884.95 91.471C2879.89 91.781 2876.64 94.7987 2875.17 100.524C2874.57 103.003 2874.37 105.802 2874.56 108.921C2875.04 116.781 2877.51 121.765 2881.96 123.871C2883.5 124.59 2885.18 124.894 2886.99 124.783ZM2947.83 132.604C2940.59 133.048 2934.32 130.834 2929.01 125.963C2923.69 120.966 2920.78 114.351 2920.28 106.116C2919.7 96.6341 2922.39 89.0173 2928.36 83.2659C2932.86 78.9826 2938.2 76.6515 2944.37 76.2726C2951.61 75.8287 2957.85 78.0756 2963.1 83.0135C2968.42 88.0098 2971.33 94.6565 2971.84 102.953C2972.42 112.373 2969.72 119.959 2963.75 125.71C2959.31 129.927 2954 132.225 2947.83 132.604ZM2947.12 121.095C2952.24 120.781 2955.49 117.67 2956.88 111.761C2957.43 109.411 2957.61 106.769 2957.43 103.837C2956.93 95.79 2954.43 90.715 2949.92 88.6123C2948.44 87.9518 2946.82 87.6751 2945.08 87.7822C2940.02 88.0922 2936.77 91.1099 2935.3 96.8353C2934.7 99.3142 2934.5 102.113 2934.69 105.232C2935.17 113.093 2937.64 118.076 2942.09 120.182C2943.63 120.901 2945.31 121.206 2947.12 121.095ZM2985.42 128.983L2982.13 75.3651L2993.64 74.6591L2995.16 84.0526L2995.53 84.0297C2998.42 78.0291 3002.29 74.285 3007.15 72.7974C3008.19 72.4828 3009.18 72.2968 3010.12 72.2394C3012.43 72.0978 3014.57 72.3732 3016.55 73.0655L3014.77 85.3851C3012.74 84.8838 3010.85 84.6867 3009.1 84.7938C3004.8 85.0579 3001.39 87.6466 2998.87 92.5599C2998.31 93.6586 2997.82 94.8472 2997.4 96.1254L2999.36 128.128L2985.42 128.983ZM3061.88 94.9879L3078.72 93.9546L3076.09 86.32C3075.86 85.7076 3073.75 79.3563 3069.76 67.2659C3069.29 65.854 3068.87 64.5962 3068.49 63.4925L3068.12 63.5154C3066.88 70.8551 3065.32 78.715 3063.46 87.0949L3061.88 94.9879ZM3088.56 122.656L3082.48 104.713L3059.46 106.125L3055.62 124.677L3041.21 125.561L3059.6 53.2366L3076.25 52.2148L3103.34 121.749L3088.56 122.656ZM3133.61 121.207C3125.06 121.732 3118.17 119.149 3112.94 113.458C3108.58 108.654 3106.16 102.415 3105.69 94.7423C3105.1 85.1978 3107.95 77.5714 3114.24 71.8632C3118.98 67.5646 3124.7 65.2105 3131.37 64.801C3137.18 64.5075 3142.51 66.1842 3147.36 69.8311L3141.18 79.3211C3138.23 77.1228 3135.41 76.1059 3132.73 76.2704C3127.49 76.5919 3123.8 79.1978 3121.66 84.0881C3120.39 86.921 3119.87 90.1777 3120.1 93.8583C3120.51 100.596 3122.89 105.271 3127.25 107.884C3129.46 109.189 3131.84 109.763 3134.4 109.606C3138.01 109.321 3141.42 107.672 3144.62 104.658L3150.71 113.677C3146.11 118.28 3140.41 120.79 3133.61 121.207ZM3181.01 118.299C3169.28 118.894 3162.97 112.549 3162.09 99.2657L3160.64 75.4979L3153.15 75.9571L3152.51 65.5704L3160.71 64.4102L3161.41 49.9022L3173.2 49.1789L3174.09 63.5893L3187.28 62.7799L3187.96 73.8217L3174.77 74.6311L3176.22 98.3989C3176.72 104.38 3179.33 107.256 3184.08 107.028C3185.58 106.936 3187.3 106.423 3189.25 105.49L3192.22 115.64C3188.18 117.202 3184.45 118.089 3181.01 118.299ZM3201.67 115.717L3198.38 62.0991L3212.32 61.2438L3215.61 114.862L3201.67 115.717ZM3204.96 52.9604C3201.4 53.1786 3198.82 51.9592 3197.22 49.3024C3196.53 48.2178 3196.14 47.0517 3196.07 45.804C3195.86 42.4977 3197.25 40.127 3200.23 38.6918C3201.39 38.12 3202.65 37.7921 3204.02 37.7079C3207.64 37.4859 3210.25 38.7033 3211.85 41.3602C3212.42 42.39 3212.74 43.5288 3212.82 44.7765C3213.01 47.8956 3211.71 50.2294 3208.92 51.7779C3207.72 52.4782 3206.39 52.8724 3204.96 52.9604ZM3242.99 113.182L3221.36 60.6893L3235.59 59.8167L3245.08 86.0032C3245.7 87.9688 3246.7 90.9758 3248.08 95.0242C3249.15 98.1521 3249.92 100.484 3250.39 102.021L3250.85 101.992C3251.13 100.41 3252.23 94.8944 3254.16 85.4463L3260.38 58.2955L3273.86 57.4689L3259.27 112.183L3242.99 113.182ZM3286.19 110.532L3282.9 56.9144L3296.84 56.0591L3300.13 109.677L3286.19 110.532ZM3289.47 47.7757C3285.92 47.9939 3283.34 46.7745 3281.74 44.1177C3281.04 43.0331 3280.66 41.8669 3280.58 40.6193C3280.38 37.313 3281.77 34.9423 3284.75 33.5071C3285.9 32.9353 3287.17 32.6073 3288.54 32.5232C3292.16 32.3012 3294.77 33.5186 3296.37 36.1754C3296.93 37.2053 3297.26 38.3441 3297.33 39.5918C3297.52 42.7109 3296.23 45.0447 3293.44 46.5932C3292.23 47.2935 3290.91 47.6877 3289.47 47.7757ZM3335.17 108.842C3323.43 109.437 3317.13 103.093 3316.25 89.809L3314.79 66.0411L3307.3 66.5004L3306.67 56.1136L3314.86 54.9535L3315.57 40.4455L3327.36 39.7222L3328.24 54.1326L3341.44 53.3232L3342.11 64.3649L3328.92 65.1743L3330.38 88.9422C3330.87 94.9233 3333.49 97.7996 3338.23 97.5711C3339.73 97.4793 3341.45 96.9666 3343.4 96.0332L3346.37 106.183C3342.33 107.745 3338.6 108.632 3335.17 108.842ZM3361.82 127.495C3359.14 127.66 3356.66 127.468 3354.37 126.92L3356.32 115.904C3358.04 116.3 3359.3 116.473 3360.11 116.423C3365.03 116.058 3368.21 113.14 3369.62 107.668L3370.46 104.423L3346.27 53.027L3360.49 52.1545L3370.53 76.5228C3371.06 77.9308 3372.86 82.892 3375.95 91.4063L3376.42 91.3776C3376.69 89.6703 3377.16 87.1055 3377.83 83.6832C3378.55 80.1948 3379.05 77.6281 3379.33 75.9832L3385.19 50.639L3398.67 49.8124L3383.06 106.186C3380.29 115.248 3376.63 121.296 3372.05 124.332C3369.23 126.196 3365.82 127.25 3361.82 127.495Z" fill="#363A35"/>
</svg>
