<svg width="811" height="225" viewBox="0 0 811 225" fill="none" xmlns="http://www.w3.org/2000/svg">
<mask id="path-1-outside-1_2089_79947" maskUnits="userSpaceOnUse" x="0.00674438" y="0.577637" width="811" height="224" fill="black">
<rect fill="white" x="0.00674438" y="0.577637" width="811" height="224"/>
<path d="M19.3953 94.9999L3.00674 10.4932H20.2871L26.9763 51.7432C27.348 54.5675 27.9797 58.8783 28.8716 64.6756C29.7635 70.9189 30.4324 75.6013 30.8784 78.7229H31.3243C31.3986 78.4256 33.2196 69.4324 36.7872 51.7432L46.598 10.4932H60.9797L70.7905 51.7432C71.9797 57.6148 73.7635 66.608 76.1419 78.7229H76.6993C77.2196 75.0067 78 69.4324 79.0405 61.9999C79.7094 57.3918 80.1926 53.9729 80.4899 51.7432L87.0676 10.4932H103.122L87.5135 94.9999H66.554L57.0777 53.1925C55.2939 44.4222 54.0676 37.9189 53.3986 33.6824H52.9527C51.7635 40.5945 50.5371 47.0979 49.2736 53.1925L40.0203 94.9999H19.3953Z"/>
<path d="M114.382 94.9999V31.1182H130.993V94.9999H114.382ZM122.855 20.7499C118.618 20.7499 115.645 19.1148 113.936 15.8445C113.193 14.5067 112.821 13.0945 112.821 11.608C112.821 7.66885 114.642 4.95602 118.284 3.46953C119.696 2.87493 121.22 2.57764 122.855 2.57764C127.166 2.57764 130.176 4.21277 131.885 7.48304C132.48 8.74656 132.777 10.1216 132.777 11.608C132.777 15.3243 131.068 17.9999 127.649 19.6351C126.162 20.3783 124.564 20.7499 122.855 20.7499Z"/>
<path d="M149.054 94.9999V31.1182H162.767L163.882 39.4797H164.328C171.24 32.8648 178.152 29.5202 185.064 29.4459C198.22 29.5945 204.834 38.179 204.909 55.1993V94.9999H188.074V57.206C188.074 49.8479 186.216 45.5371 182.5 44.2736C181.459 43.9763 180.307 43.8276 179.044 43.8276C175.476 43.8276 171.834 45.4999 168.118 48.8445C167.375 49.5134 166.557 50.2567 165.666 51.0743V94.9999H149.054Z"/>
<path d="M45.8176 222.561C34.2973 222.561 24.9324 218.584 17.723 210.632C10.6621 202.679 7.13174 192.162 7.13174 179.081C7.13174 164.662 11.554 153.29 20.3986 144.966C27.6081 138.277 36.304 134.932 46.4865 134.932C55.777 134.932 63.8784 138.388 70.7905 145.301C70.9392 145.449 71.0878 145.598 71.2365 145.747L62.3176 156.449C57.4865 151.767 52.3209 149.426 46.8209 149.426C39.2399 149.426 33.3682 152.77 29.2061 159.459C26.0101 164.588 24.4121 170.943 24.4121 178.524C24.4121 190.564 27.7196 199.074 34.3344 204.054C37.8277 206.655 41.8784 207.956 46.4865 207.956C52.9527 207.882 58.75 205.132 63.8784 199.706L72.7973 210.186C65.7365 218.436 56.7432 222.561 45.8176 222.561Z"/>
<path d="M84.9493 221V129.915H101.561V152.882L100.892 164.811C107.804 158.716 114.493 155.595 120.959 155.446C134.115 155.595 140.73 164.179 140.804 181.199V221H123.97V183.206C123.97 175.848 122.111 171.537 118.395 170.274C117.355 169.976 116.203 169.828 114.939 169.828C111.372 169.828 107.73 171.5 104.014 174.845C103.27 175.513 102.453 176.257 101.561 177.074V221H84.9493Z"/>
<path d="M157.973 221V157.118H174.584V221H157.973ZM166.446 146.75C162.209 146.75 159.236 145.115 157.527 141.845C156.784 140.507 156.412 139.095 156.412 137.608C156.412 133.669 158.233 130.956 161.875 129.47C163.287 128.875 164.811 128.578 166.446 128.578C170.757 128.578 173.767 130.213 175.476 133.483C176.071 134.747 176.368 136.122 176.368 137.608C176.368 141.324 174.659 144 171.24 145.635C169.753 146.378 168.155 146.75 166.446 146.75Z"/>
<path d="M211.598 222.561C198.591 222.412 192.051 213.902 191.976 197.03V157.118H208.699V194.912C208.699 202.122 210.446 206.358 213.939 207.622C215.054 207.993 216.28 208.179 217.618 208.179C221.706 208.179 225.385 206.358 228.655 202.716C229.324 201.973 229.993 201.155 230.662 200.263V157.118H247.385V221H233.784L232.446 211.858H232C225.757 218.845 218.956 222.412 211.598 222.561Z"/>
<path d="M300.564 221L284.176 136.493H301.456L308.145 177.743C308.517 180.568 309.149 184.878 310.041 190.676C310.932 196.919 311.601 201.601 312.047 204.723H312.493C312.568 204.426 314.388 195.432 317.956 177.743L327.767 136.493H342.149L351.959 177.743C353.149 183.615 354.932 192.608 357.311 204.723H357.868C358.388 201.007 359.169 195.432 360.209 188C360.878 183.392 361.361 179.973 361.659 177.743L368.236 136.493H384.291L368.682 221H347.723L338.247 179.193C336.463 170.422 335.236 163.919 334.568 159.682H334.122C332.932 166.595 331.706 173.098 330.443 179.193L321.189 221H300.564Z"/>
<path d="M423.311 222.561C413.277 222.561 405.287 219.105 399.341 212.193C394.138 206.098 391.537 198.405 391.537 189.115C391.537 178.189 395.105 169.456 402.24 162.915C407.814 157.936 414.169 155.446 421.304 155.446C431.932 155.446 439.551 159.794 444.159 168.49C446.76 173.47 448.061 179.341 448.061 186.105C448.061 189.449 447.801 191.976 447.28 193.686H407.814C408.78 201.49 412.497 206.507 418.963 208.736C420.97 209.405 423.162 209.74 425.541 209.74C430.446 209.665 435.24 208.179 439.922 205.28L445.608 215.537C438.845 220.22 431.412 222.561 423.311 222.561ZM407.591 182.649H433.679C433.679 174.399 430.483 169.753 424.091 168.713C423.274 168.564 422.419 168.49 421.527 168.49C416.399 168.49 412.497 170.831 409.821 175.513C408.706 177.595 407.963 179.973 407.591 182.649Z"/>
<path d="M461.774 221V157.118H478.385V221H461.774ZM470.247 146.75C466.01 146.75 463.037 145.115 461.328 141.845C460.584 140.507 460.213 139.095 460.213 137.608C460.213 133.669 462.034 130.956 465.676 129.47C467.088 128.875 468.611 128.578 470.247 128.578C474.557 128.578 477.568 130.213 479.277 133.483C479.872 134.747 480.169 136.122 480.169 137.608C480.169 141.324 478.459 144 475.041 145.635C473.554 146.378 471.956 146.75 470.247 146.75Z"/>
<path d="M492.99 194.243V182.314H524.206V194.243H492.99Z"/>
<path d="M574.375 222.561C562.855 222.561 553.49 218.584 546.28 210.632C539.22 202.679 535.689 192.162 535.689 179.081C535.689 164.662 540.111 153.29 548.956 144.966C556.166 138.277 564.861 134.932 575.044 134.932C584.334 134.932 592.436 138.388 599.348 145.301C599.497 145.449 599.645 145.598 599.794 145.747L590.875 156.449C586.044 151.767 580.878 149.426 575.378 149.426C567.797 149.426 561.926 152.77 557.764 159.459C554.568 164.588 552.97 170.943 552.97 178.524C552.97 190.564 556.277 199.074 562.892 204.054C566.385 206.655 570.436 207.956 575.044 207.956C581.51 207.882 587.307 205.132 592.436 199.706L601.355 210.186C594.294 218.436 585.301 222.561 574.375 222.561Z"/>
<path d="M613.507 221V129.915H630.118V152.882L629.449 164.811C636.361 158.716 643.051 155.595 649.517 155.446C662.672 155.595 669.287 164.179 669.361 181.199V221H652.527V183.206C652.527 175.848 650.669 171.537 646.953 170.274C645.912 169.976 644.76 169.828 643.497 169.828C639.929 169.828 636.287 171.5 632.571 174.845C631.828 175.513 631.01 176.257 630.118 177.074V221H613.507Z"/>
<path d="M714.291 222.561C704.257 222.561 696.267 219.105 690.321 212.193C685.118 206.098 682.517 198.405 682.517 189.115C682.517 178.189 686.084 169.456 693.22 162.915C698.794 157.936 705.149 155.446 712.284 155.446C722.912 155.446 730.53 159.794 735.139 168.49C737.74 173.47 739.041 179.341 739.041 186.105C739.041 189.449 738.78 191.976 738.26 193.686H698.794C699.76 201.49 703.476 206.507 709.943 208.736C711.949 209.405 714.142 209.74 716.52 209.74C721.426 209.665 726.22 208.179 730.902 205.28L736.588 215.537C729.824 220.22 722.392 222.561 714.291 222.561ZM698.571 182.649H724.659C724.659 174.399 721.463 169.753 715.071 168.713C714.253 168.564 713.399 168.49 712.507 168.49C707.378 168.49 703.476 170.831 700.801 175.513C699.686 177.595 698.943 179.973 698.571 182.649Z"/>
<path d="M752.753 221V157.118H766.466L767.581 165.48H768.027C774.939 158.865 781.851 155.52 788.764 155.446C801.919 155.595 808.534 164.179 808.608 181.199V221H791.774V183.206C791.774 175.848 789.916 171.537 786.199 170.274C785.159 169.976 784.007 169.828 782.743 169.828C779.176 169.828 775.534 171.5 771.818 174.845C771.074 175.513 770.257 176.257 769.365 177.074V221H752.753Z"/>
</mask>
<path d="M19.3953 94.9999L3.00674 10.4932H20.2871L26.9763 51.7432C27.348 54.5675 27.9797 58.8783 28.8716 64.6756C29.7635 70.9189 30.4324 75.6013 30.8784 78.7229H31.3243C31.3986 78.4256 33.2196 69.4324 36.7872 51.7432L46.598 10.4932H60.9797L70.7905 51.7432C71.9797 57.6148 73.7635 66.608 76.1419 78.7229H76.6993C77.2196 75.0067 78 69.4324 79.0405 61.9999C79.7094 57.3918 80.1926 53.9729 80.4899 51.7432L87.0676 10.4932H103.122L87.5135 94.9999H66.554L57.0777 53.1925C55.2939 44.4222 54.0676 37.9189 53.3986 33.6824H52.9527C51.7635 40.5945 50.5371 47.0979 49.2736 53.1925L40.0203 94.9999H19.3953Z" fill="#363A35"/>
<path d="M114.382 94.9999V31.1182H130.993V94.9999H114.382ZM122.855 20.7499C118.618 20.7499 115.645 19.1148 113.936 15.8445C113.193 14.5067 112.821 13.0945 112.821 11.608C112.821 7.66885 114.642 4.95602 118.284 3.46953C119.696 2.87493 121.22 2.57764 122.855 2.57764C127.166 2.57764 130.176 4.21277 131.885 7.48304C132.48 8.74656 132.777 10.1216 132.777 11.608C132.777 15.3243 131.068 17.9999 127.649 19.6351C126.162 20.3783 124.564 20.7499 122.855 20.7499Z" fill="#363A35"/>
<path d="M149.054 94.9999V31.1182H162.767L163.882 39.4797H164.328C171.24 32.8648 178.152 29.5202 185.064 29.4459C198.22 29.5945 204.834 38.179 204.909 55.1993V94.9999H188.074V57.206C188.074 49.8479 186.216 45.5371 182.5 44.2736C181.459 43.9763 180.307 43.8276 179.044 43.8276C175.476 43.8276 171.834 45.4999 168.118 48.8445C167.375 49.5134 166.557 50.2567 165.666 51.0743V94.9999H149.054Z" fill="#363A35"/>
<path d="M45.8176 222.561C34.2973 222.561 24.9324 218.584 17.723 210.632C10.6621 202.679 7.13174 192.162 7.13174 179.081C7.13174 164.662 11.554 153.29 20.3986 144.966C27.6081 138.277 36.304 134.932 46.4865 134.932C55.777 134.932 63.8784 138.388 70.7905 145.301C70.9392 145.449 71.0878 145.598 71.2365 145.747L62.3176 156.449C57.4865 151.767 52.3209 149.426 46.8209 149.426C39.2399 149.426 33.3682 152.77 29.2061 159.459C26.0101 164.588 24.4121 170.943 24.4121 178.524C24.4121 190.564 27.7196 199.074 34.3344 204.054C37.8277 206.655 41.8784 207.956 46.4865 207.956C52.9527 207.882 58.75 205.132 63.8784 199.706L72.7973 210.186C65.7365 218.436 56.7432 222.561 45.8176 222.561Z" fill="#363A35"/>
<path d="M84.9493 221V129.915H101.561V152.882L100.892 164.811C107.804 158.716 114.493 155.595 120.959 155.446C134.115 155.595 140.73 164.179 140.804 181.199V221H123.97V183.206C123.97 175.848 122.111 171.537 118.395 170.274C117.355 169.976 116.203 169.828 114.939 169.828C111.372 169.828 107.73 171.5 104.014 174.845C103.27 175.513 102.453 176.257 101.561 177.074V221H84.9493Z" fill="#363A35"/>
<path d="M157.973 221V157.118H174.584V221H157.973ZM166.446 146.75C162.209 146.75 159.236 145.115 157.527 141.845C156.784 140.507 156.412 139.095 156.412 137.608C156.412 133.669 158.233 130.956 161.875 129.47C163.287 128.875 164.811 128.578 166.446 128.578C170.757 128.578 173.767 130.213 175.476 133.483C176.071 134.747 176.368 136.122 176.368 137.608C176.368 141.324 174.659 144 171.24 145.635C169.753 146.378 168.155 146.75 166.446 146.75Z" fill="#363A35"/>
<path d="M211.598 222.561C198.591 222.412 192.051 213.902 191.976 197.03V157.118H208.699V194.912C208.699 202.122 210.446 206.358 213.939 207.622C215.054 207.993 216.28 208.179 217.618 208.179C221.706 208.179 225.385 206.358 228.655 202.716C229.324 201.973 229.993 201.155 230.662 200.263V157.118H247.385V221H233.784L232.446 211.858H232C225.757 218.845 218.956 222.412 211.598 222.561Z" fill="#363A35"/>
<path d="M300.564 221L284.176 136.493H301.456L308.145 177.743C308.517 180.568 309.149 184.878 310.041 190.676C310.932 196.919 311.601 201.601 312.047 204.723H312.493C312.568 204.426 314.388 195.432 317.956 177.743L327.767 136.493H342.149L351.959 177.743C353.149 183.615 354.932 192.608 357.311 204.723H357.868C358.388 201.007 359.169 195.432 360.209 188C360.878 183.392 361.361 179.973 361.659 177.743L368.236 136.493H384.291L368.682 221H347.723L338.247 179.193C336.463 170.422 335.236 163.919 334.568 159.682H334.122C332.932 166.595 331.706 173.098 330.443 179.193L321.189 221H300.564Z" fill="#363A35"/>
<path d="M423.311 222.561C413.277 222.561 405.287 219.105 399.341 212.193C394.138 206.098 391.537 198.405 391.537 189.115C391.537 178.189 395.105 169.456 402.24 162.915C407.814 157.936 414.169 155.446 421.304 155.446C431.932 155.446 439.551 159.794 444.159 168.49C446.76 173.47 448.061 179.341 448.061 186.105C448.061 189.449 447.801 191.976 447.28 193.686H407.814C408.78 201.49 412.497 206.507 418.963 208.736C420.97 209.405 423.162 209.74 425.541 209.74C430.446 209.665 435.24 208.179 439.922 205.28L445.608 215.537C438.845 220.22 431.412 222.561 423.311 222.561ZM407.591 182.649H433.679C433.679 174.399 430.483 169.753 424.091 168.713C423.274 168.564 422.419 168.49 421.527 168.49C416.399 168.49 412.497 170.831 409.821 175.513C408.706 177.595 407.963 179.973 407.591 182.649Z" fill="#363A35"/>
<path d="M461.774 221V157.118H478.385V221H461.774ZM470.247 146.75C466.01 146.75 463.037 145.115 461.328 141.845C460.584 140.507 460.213 139.095 460.213 137.608C460.213 133.669 462.034 130.956 465.676 129.47C467.088 128.875 468.611 128.578 470.247 128.578C474.557 128.578 477.568 130.213 479.277 133.483C479.872 134.747 480.169 136.122 480.169 137.608C480.169 141.324 478.459 144 475.041 145.635C473.554 146.378 471.956 146.75 470.247 146.75Z" fill="#363A35"/>
<path d="M492.99 194.243V182.314H524.206V194.243H492.99Z" fill="#363A35"/>
<path d="M574.375 222.561C562.855 222.561 553.49 218.584 546.28 210.632C539.22 202.679 535.689 192.162 535.689 179.081C535.689 164.662 540.111 153.29 548.956 144.966C556.166 138.277 564.861 134.932 575.044 134.932C584.334 134.932 592.436 138.388 599.348 145.301C599.497 145.449 599.645 145.598 599.794 145.747L590.875 156.449C586.044 151.767 580.878 149.426 575.378 149.426C567.797 149.426 561.926 152.77 557.764 159.459C554.568 164.588 552.97 170.943 552.97 178.524C552.97 190.564 556.277 199.074 562.892 204.054C566.385 206.655 570.436 207.956 575.044 207.956C581.51 207.882 587.307 205.132 592.436 199.706L601.355 210.186C594.294 218.436 585.301 222.561 574.375 222.561Z" fill="#363A35"/>
<path d="M613.507 221V129.915H630.118V152.882L629.449 164.811C636.361 158.716 643.051 155.595 649.517 155.446C662.672 155.595 669.287 164.179 669.361 181.199V221H652.527V183.206C652.527 175.848 650.669 171.537 646.953 170.274C645.912 169.976 644.76 169.828 643.497 169.828C639.929 169.828 636.287 171.5 632.571 174.845C631.828 175.513 631.01 176.257 630.118 177.074V221H613.507Z" fill="#363A35"/>
<path d="M714.291 222.561C704.257 222.561 696.267 219.105 690.321 212.193C685.118 206.098 682.517 198.405 682.517 189.115C682.517 178.189 686.084 169.456 693.22 162.915C698.794 157.936 705.149 155.446 712.284 155.446C722.912 155.446 730.53 159.794 735.139 168.49C737.74 173.47 739.041 179.341 739.041 186.105C739.041 189.449 738.78 191.976 738.26 193.686H698.794C699.76 201.49 703.476 206.507 709.943 208.736C711.949 209.405 714.142 209.74 716.52 209.74C721.426 209.665 726.22 208.179 730.902 205.28L736.588 215.537C729.824 220.22 722.392 222.561 714.291 222.561ZM698.571 182.649H724.659C724.659 174.399 721.463 169.753 715.071 168.713C714.253 168.564 713.399 168.49 712.507 168.49C707.378 168.49 703.476 170.831 700.801 175.513C699.686 177.595 698.943 179.973 698.571 182.649Z" fill="#363A35"/>
<path d="M752.753 221V157.118H766.466L767.581 165.48H768.027C774.939 158.865 781.851 155.52 788.764 155.446C801.919 155.595 808.534 164.179 808.608 181.199V221H791.774V183.206C791.774 175.848 789.916 171.537 786.199 170.274C785.159 169.976 784.007 169.828 782.743 169.828C779.176 169.828 775.534 171.5 771.818 174.845C771.074 175.513 770.257 176.257 769.365 177.074V221H752.753Z" fill="#363A35"/>
<path d="M19.3953 94.9999L3.00674 10.4932H20.2871L26.9763 51.7432C27.348 54.5675 27.9797 58.8783 28.8716 64.6756C29.7635 70.9189 30.4324 75.6013 30.8784 78.7229H31.3243C31.3986 78.4256 33.2196 69.4324 36.7872 51.7432L46.598 10.4932H60.9797L70.7905 51.7432C71.9797 57.6148 73.7635 66.608 76.1419 78.7229H76.6993C77.2196 75.0067 78 69.4324 79.0405 61.9999C79.7094 57.3918 80.1926 53.9729 80.4899 51.7432L87.0676 10.4932H103.122L87.5135 94.9999H66.554L57.0777 53.1925C55.2939 44.4222 54.0676 37.9189 53.3986 33.6824H52.9527C51.7635 40.5945 50.5371 47.0979 49.2736 53.1925L40.0203 94.9999H19.3953Z" stroke="#363A35" stroke-width="4" mask="url(#path-1-outside-1_2089_79947)"/>
<path d="M114.382 94.9999V31.1182H130.993V94.9999H114.382ZM122.855 20.7499C118.618 20.7499 115.645 19.1148 113.936 15.8445C113.193 14.5067 112.821 13.0945 112.821 11.608C112.821 7.66885 114.642 4.95602 118.284 3.46953C119.696 2.87493 121.22 2.57764 122.855 2.57764C127.166 2.57764 130.176 4.21277 131.885 7.48304C132.48 8.74656 132.777 10.1216 132.777 11.608C132.777 15.3243 131.068 17.9999 127.649 19.6351C126.162 20.3783 124.564 20.7499 122.855 20.7499Z" stroke="#363A35" stroke-width="4" mask="url(#path-1-outside-1_2089_79947)"/>
<path d="M149.054 94.9999V31.1182H162.767L163.882 39.4797H164.328C171.24 32.8648 178.152 29.5202 185.064 29.4459C198.22 29.5945 204.834 38.179 204.909 55.1993V94.9999H188.074V57.206C188.074 49.8479 186.216 45.5371 182.5 44.2736C181.459 43.9763 180.307 43.8276 179.044 43.8276C175.476 43.8276 171.834 45.4999 168.118 48.8445C167.375 49.5134 166.557 50.2567 165.666 51.0743V94.9999H149.054Z" stroke="#363A35" stroke-width="4" mask="url(#path-1-outside-1_2089_79947)"/>
<path d="M45.8176 222.561C34.2973 222.561 24.9324 218.584 17.723 210.632C10.6621 202.679 7.13174 192.162 7.13174 179.081C7.13174 164.662 11.554 153.29 20.3986 144.966C27.6081 138.277 36.304 134.932 46.4865 134.932C55.777 134.932 63.8784 138.388 70.7905 145.301C70.9392 145.449 71.0878 145.598 71.2365 145.747L62.3176 156.449C57.4865 151.767 52.3209 149.426 46.8209 149.426C39.2399 149.426 33.3682 152.77 29.2061 159.459C26.0101 164.588 24.4121 170.943 24.4121 178.524C24.4121 190.564 27.7196 199.074 34.3344 204.054C37.8277 206.655 41.8784 207.956 46.4865 207.956C52.9527 207.882 58.75 205.132 63.8784 199.706L72.7973 210.186C65.7365 218.436 56.7432 222.561 45.8176 222.561Z" stroke="#363A35" stroke-width="4" mask="url(#path-1-outside-1_2089_79947)"/>
<path d="M84.9493 221V129.915H101.561V152.882L100.892 164.811C107.804 158.716 114.493 155.595 120.959 155.446C134.115 155.595 140.73 164.179 140.804 181.199V221H123.97V183.206C123.97 175.848 122.111 171.537 118.395 170.274C117.355 169.976 116.203 169.828 114.939 169.828C111.372 169.828 107.73 171.5 104.014 174.845C103.27 175.513 102.453 176.257 101.561 177.074V221H84.9493Z" stroke="#363A35" stroke-width="4" mask="url(#path-1-outside-1_2089_79947)"/>
<path d="M157.973 221V157.118H174.584V221H157.973ZM166.446 146.75C162.209 146.75 159.236 145.115 157.527 141.845C156.784 140.507 156.412 139.095 156.412 137.608C156.412 133.669 158.233 130.956 161.875 129.47C163.287 128.875 164.811 128.578 166.446 128.578C170.757 128.578 173.767 130.213 175.476 133.483C176.071 134.747 176.368 136.122 176.368 137.608C176.368 141.324 174.659 144 171.24 145.635C169.753 146.378 168.155 146.75 166.446 146.75Z" stroke="#363A35" stroke-width="4" mask="url(#path-1-outside-1_2089_79947)"/>
<path d="M211.598 222.561C198.591 222.412 192.051 213.902 191.976 197.03V157.118H208.699V194.912C208.699 202.122 210.446 206.358 213.939 207.622C215.054 207.993 216.28 208.179 217.618 208.179C221.706 208.179 225.385 206.358 228.655 202.716C229.324 201.973 229.993 201.155 230.662 200.263V157.118H247.385V221H233.784L232.446 211.858H232C225.757 218.845 218.956 222.412 211.598 222.561Z" stroke="#363A35" stroke-width="4" mask="url(#path-1-outside-1_2089_79947)"/>
<path d="M300.564 221L284.176 136.493H301.456L308.145 177.743C308.517 180.568 309.149 184.878 310.041 190.676C310.932 196.919 311.601 201.601 312.047 204.723H312.493C312.568 204.426 314.388 195.432 317.956 177.743L327.767 136.493H342.149L351.959 177.743C353.149 183.615 354.932 192.608 357.311 204.723H357.868C358.388 201.007 359.169 195.432 360.209 188C360.878 183.392 361.361 179.973 361.659 177.743L368.236 136.493H384.291L368.682 221H347.723L338.247 179.193C336.463 170.422 335.236 163.919 334.568 159.682H334.122C332.932 166.595 331.706 173.098 330.443 179.193L321.189 221H300.564Z" stroke="#363A35" stroke-width="4" mask="url(#path-1-outside-1_2089_79947)"/>
<path d="M423.311 222.561C413.277 222.561 405.287 219.105 399.341 212.193C394.138 206.098 391.537 198.405 391.537 189.115C391.537 178.189 395.105 169.456 402.24 162.915C407.814 157.936 414.169 155.446 421.304 155.446C431.932 155.446 439.551 159.794 444.159 168.49C446.76 173.47 448.061 179.341 448.061 186.105C448.061 189.449 447.801 191.976 447.28 193.686H407.814C408.78 201.49 412.497 206.507 418.963 208.736C420.97 209.405 423.162 209.74 425.541 209.74C430.446 209.665 435.24 208.179 439.922 205.28L445.608 215.537C438.845 220.22 431.412 222.561 423.311 222.561ZM407.591 182.649H433.679C433.679 174.399 430.483 169.753 424.091 168.713C423.274 168.564 422.419 168.49 421.527 168.49C416.399 168.49 412.497 170.831 409.821 175.513C408.706 177.595 407.963 179.973 407.591 182.649Z" stroke="#363A35" stroke-width="4" mask="url(#path-1-outside-1_2089_79947)"/>
<path d="M461.774 221V157.118H478.385V221H461.774ZM470.247 146.75C466.01 146.75 463.037 145.115 461.328 141.845C460.584 140.507 460.213 139.095 460.213 137.608C460.213 133.669 462.034 130.956 465.676 129.47C467.088 128.875 468.611 128.578 470.247 128.578C474.557 128.578 477.568 130.213 479.277 133.483C479.872 134.747 480.169 136.122 480.169 137.608C480.169 141.324 478.459 144 475.041 145.635C473.554 146.378 471.956 146.75 470.247 146.75Z" stroke="#363A35" stroke-width="4" mask="url(#path-1-outside-1_2089_79947)"/>
<path d="M492.99 194.243V182.314H524.206V194.243H492.99Z" stroke="#363A35" stroke-width="4" mask="url(#path-1-outside-1_2089_79947)"/>
<path d="M574.375 222.561C562.855 222.561 553.49 218.584 546.28 210.632C539.22 202.679 535.689 192.162 535.689 179.081C535.689 164.662 540.111 153.29 548.956 144.966C556.166 138.277 564.861 134.932 575.044 134.932C584.334 134.932 592.436 138.388 599.348 145.301C599.497 145.449 599.645 145.598 599.794 145.747L590.875 156.449C586.044 151.767 580.878 149.426 575.378 149.426C567.797 149.426 561.926 152.77 557.764 159.459C554.568 164.588 552.97 170.943 552.97 178.524C552.97 190.564 556.277 199.074 562.892 204.054C566.385 206.655 570.436 207.956 575.044 207.956C581.51 207.882 587.307 205.132 592.436 199.706L601.355 210.186C594.294 218.436 585.301 222.561 574.375 222.561Z" stroke="#363A35" stroke-width="4" mask="url(#path-1-outside-1_2089_79947)"/>
<path d="M613.507 221V129.915H630.118V152.882L629.449 164.811C636.361 158.716 643.051 155.595 649.517 155.446C662.672 155.595 669.287 164.179 669.361 181.199V221H652.527V183.206C652.527 175.848 650.669 171.537 646.953 170.274C645.912 169.976 644.76 169.828 643.497 169.828C639.929 169.828 636.287 171.5 632.571 174.845C631.828 175.513 631.01 176.257 630.118 177.074V221H613.507Z" stroke="#363A35" stroke-width="4" mask="url(#path-1-outside-1_2089_79947)"/>
<path d="M714.291 222.561C704.257 222.561 696.267 219.105 690.321 212.193C685.118 206.098 682.517 198.405 682.517 189.115C682.517 178.189 686.084 169.456 693.22 162.915C698.794 157.936 705.149 155.446 712.284 155.446C722.912 155.446 730.53 159.794 735.139 168.49C737.74 173.47 739.041 179.341 739.041 186.105C739.041 189.449 738.78 191.976 738.26 193.686H698.794C699.76 201.49 703.476 206.507 709.943 208.736C711.949 209.405 714.142 209.74 716.52 209.74C721.426 209.665 726.22 208.179 730.902 205.28L736.588 215.537C729.824 220.22 722.392 222.561 714.291 222.561ZM698.571 182.649H724.659C724.659 174.399 721.463 169.753 715.071 168.713C714.253 168.564 713.399 168.49 712.507 168.49C707.378 168.49 703.476 170.831 700.801 175.513C699.686 177.595 698.943 179.973 698.571 182.649Z" stroke="#363A35" stroke-width="4" mask="url(#path-1-outside-1_2089_79947)"/>
<path d="M752.753 221V157.118H766.466L767.581 165.48H768.027C774.939 158.865 781.851 155.52 788.764 155.446C801.919 155.595 808.534 164.179 808.608 181.199V221H791.774V183.206C791.774 175.848 789.916 171.537 786.199 170.274C785.159 169.976 784.007 169.828 782.743 169.828C779.176 169.828 775.534 171.5 771.818 174.845C771.074 175.513 770.257 176.257 769.365 177.074V221H752.753Z" stroke="#363A35" stroke-width="4" mask="url(#path-1-outside-1_2089_79947)"/>
</svg>
